<?xml version="1.0" encoding="utf-8" standalone="no"?>
<!DOCTYPE svg PUBLIC "-//W3C//DTD SVG 1.1//EN"
  "http://www.w3.org/Graphics/SVG/1.1/DTD/svg11.dtd">
<svg xmlns:xlink="http://www.w3.org/1999/xlink" width="1382.4pt" height="702pt" viewBox="0 0 1382.4 702" xmlns="http://www.w3.org/2000/svg" version="1.1">
 <metadata>
  <rdf:RDF xmlns:dc="http://purl.org/dc/elements/1.1/" xmlns:cc="http://creativecommons.org/ns#" xmlns:rdf="http://www.w3.org/1999/02/22-rdf-syntax-ns#">
   <cc:Work>
    <dc:type rdf:resource="http://purl.org/dc/dcmitype/StillImage"/>
    <dc:date>2022-10-24T17:02:33.671042</dc:date>
    <dc:format>image/svg+xml</dc:format>
    <dc:creator>
     <cc:Agent>
      <dc:title>Matplotlib v3.5.3, https://matplotlib.org/</dc:title>
     </cc:Agent>
    </dc:creator>
   </cc:Work>
  </rdf:RDF>
 </metadata>
 <defs>
  <style type="text/css">*{stroke-linejoin: round; stroke-linecap: butt}</style>
 </defs>
 <g id="figure_1">
  <g id="patch_1">
   <path d="M 0 702 
L 1382.4 702 
L 1382.4 0 
L 0 0 
z
" style="fill: #ffffff"/>
  </g>
  <g id="axes_1">
   <g id="patch_2">
    <path d="M 172.8 624.78 
L 1244.16 624.78 
L 1244.16 84.24 
L 172.8 84.24 
z
" style="fill: #ffffff"/>
   </g>
   <g id="PolyCollection_1">
    <defs>
     <path id="m94987dd7c9" d="M 172.8 -593.19 
L 172.8 -490.39473 
L 174.947014 -490.845599 
L 177.094028 -491.292786 
L 179.241042 -491.736371 
L 181.388056 -492.176431 
L 183.53507 -492.613045 
L 185.682084 -493.046287 
L 187.829098 -493.476231 
L 189.976112 -493.902948 
L 192.123126 -494.326507 
L 194.27014 -494.746975 
L 196.417154 -495.164417 
L 198.564168 -495.578894 
L 200.711182 -495.990467 
L 202.858196 -496.39919 
L 205.00521 -496.805119 
L 207.152224 -497.208303 
L 209.299238 -497.60879 
L 211.446253 -498.006624 
L 213.593267 -498.401848 
L 215.740281 -498.794498 
L 217.887295 -499.18461 
L 220.034309 -499.572214 
L 222.181323 -499.957339 
L 224.328337 -500.340009 
L 226.475351 -500.720246 
L 228.622365 -501.098066 
L 230.769379 -501.473483 
L 232.916393 -501.846508 
L 235.063407 -502.217149 
L 237.210421 -502.585407 
L 239.357435 -502.951284 
L 241.504449 -503.314775 
L 243.651463 -503.675873 
L 245.798477 -504.034567 
L 247.945491 -504.390844 
L 250.092505 -504.744685 
L 252.239519 -505.09607 
L 254.386533 -505.444973 
L 256.533547 -505.791367 
L 258.680561 -506.135221 
L 260.827575 -506.4765 
L 262.974589 -506.815166 
L 265.121603 -507.151177 
L 267.268617 -507.484491 
L 269.415631 -507.815059 
L 271.562645 -508.14283 
L 273.709659 -508.467751 
L 275.856673 -508.789766 
L 278.003687 -509.108814 
L 280.150701 -509.424833 
L 282.297715 -509.737758 
L 284.444729 -510.047519 
L 286.591743 -510.354047 
L 288.738758 -510.657267 
L 290.885772 -510.957102 
L 293.032786 -511.253474 
L 295.1798 -511.5463 
L 297.326814 -511.835496 
L 299.473828 -512.120976 
L 301.620842 -512.40265 
L 303.767856 -512.680426 
L 305.91487 -512.954209 
L 308.061884 -513.223905 
L 310.208898 -513.489413 
L 312.355912 -513.750633 
L 314.502926 -514.007461 
L 316.64994 -514.259793 
L 318.796954 -514.50752 
L 320.943968 -514.750533 
L 323.090982 -514.98872 
L 325.237996 -515.221969 
L 327.38501 -515.450162 
L 329.532024 -515.673183 
L 331.679038 -515.890911 
L 333.826052 -516.103227 
L 335.973066 -516.310007 
L 338.12008 -516.511125 
L 340.267094 -516.706456 
L 342.414108 -516.895871 
L 344.561122 -517.07924 
L 346.708136 -517.256432 
L 348.85515 -517.427315 
L 351.002164 -517.591754 
L 353.149178 -517.749613 
L 355.296192 -517.900755 
L 357.443206 -518.045043 
L 359.59022 -518.182338 
L 361.737234 -518.312498 
L 363.884248 -518.435384 
L 366.031263 -518.550854 
L 368.178277 -518.658766 
L 370.325291 -518.758976 
L 372.472305 -518.851342 
L 374.619319 -518.935722 
L 376.766333 -519.011972 
L 378.913347 -519.07995 
L 381.060361 -519.139515 
L 383.207375 -519.190525 
L 385.354389 -519.232842 
L 387.501403 -519.266328 
L 389.648417 -519.290846 
L 391.795431 -519.306263 
L 393.942445 -519.312448 
L 396.089459 -519.309273 
L 398.236473 -519.296614 
L 400.383487 -519.274351 
L 402.530501 -519.242369 
L 404.677515 -519.200556 
L 406.824529 -519.148809 
L 408.971543 -519.087028 
L 411.118557 -519.015122 
L 413.265571 -518.933006 
L 415.412585 -518.840604 
L 417.559599 -518.737849 
L 419.706613 -518.624681 
L 421.853627 -518.501051 
L 424.000641 -518.366922 
L 426.147655 -518.222265 
L 428.294669 -518.067064 
L 430.441683 -517.901315 
L 432.588697 -517.725024 
L 434.735711 -517.538213 
L 436.882725 -517.340915 
L 439.029739 -517.133175 
L 441.176754 -516.915053 
L 443.323768 -516.686623 
L 445.470782 -516.447971 
L 447.617796 -516.199196 
L 449.76481 -515.940412 
L 451.911824 -515.671743 
L 454.058838 -515.393327 
L 456.205852 -515.105314 
L 458.352866 -514.807866 
L 460.49988 -514.501155 
L 462.646894 -514.185362 
L 464.793908 -513.860677 
L 466.940922 -513.527302 
L 469.087936 -513.185442 
L 471.23495 -512.835309 
L 473.381964 -512.477123 
L 475.528978 -512.111105 
L 477.675992 -511.737481 
L 479.823006 -511.356477 
L 481.97002 -510.96832 
L 484.117034 -510.573239 
L 486.264048 -510.171458 
L 488.411062 -509.763199 
L 490.558076 -509.34868 
L 492.70509 -508.928113 
L 494.852104 -508.501705 
L 496.999118 -508.069654 
L 499.146132 -507.63215 
L 501.293146 -507.189371 
L 503.44016 -506.741487 
L 505.587174 -506.288654 
L 507.734188 -505.831016 
L 509.881202 -505.368703 
L 512.028216 -504.901829 
L 514.17523 -504.430493 
L 516.322244 -503.954778 
L 518.469259 -503.474748 
L 520.616273 -502.990449 
L 522.763287 -502.50191 
L 524.910301 -502.009136 
L 527.057315 -501.512114 
L 529.204329 -501.010811 
L 531.351343 -500.505171 
L 533.498357 -499.995114 
L 535.645371 -499.48054 
L 537.792385 -498.961325 
L 539.939399 -498.437322 
L 542.086413 -497.90836 
L 544.233427 -497.374247 
L 546.380441 -496.834766 
L 548.527455 -496.289678 
L 550.674469 -495.738724 
L 552.821483 -495.181623 
L 554.968497 -494.618074 
L 557.115511 -494.047759 
L 559.262525 -493.470345 
L 561.409539 -492.885483 
L 563.556553 -492.292815 
L 565.703567 -491.691974 
L 567.850581 -491.082587 
L 569.997595 -490.464281 
L 572.144609 -489.836686 
L 574.291623 -489.199437 
L 576.438637 -488.552181 
L 578.585651 -487.894582 
L 580.732665 -487.226321 
L 582.879679 -486.547105 
L 585.026693 -485.856669 
L 587.173707 -485.15478 
L 589.320721 -484.441239 
L 591.467735 -483.715887 
L 593.614749 -482.978603 
L 595.761764 -482.229308 
L 597.908778 -481.467968 
L 600.055792 -480.694586 
L 602.202806 -479.909211 
L 604.34982 -479.11193 
L 606.496834 -478.302868 
L 608.643848 -477.482185 
L 610.790862 -476.650073 
L 612.937876 -475.806754 
L 615.08489 -474.952475 
L 617.231904 -474.087504 
L 619.378918 -473.212126 
L 621.525932 -472.326642 
L 623.672946 -471.431362 
L 625.81996 -470.526604 
L 627.966974 -469.612689 
L 630.113988 -468.689942 
L 632.261002 -467.758683 
L 634.408016 -466.819231 
L 636.55503 -465.8719 
L 638.702044 -464.916995 
L 640.849058 -463.954816 
L 642.996072 -462.985649 
L 645.143086 -462.009774 
L 647.2901 -461.027459 
L 649.437114 -460.03896 
L 651.584128 -459.044523 
L 653.731142 -458.044383 
L 655.878156 -457.038761 
L 658.02517 -456.027869 
L 660.172184 -455.011908 
L 662.319198 -453.991068 
L 664.466212 -452.965528 
L 666.613226 -451.935458 
L 668.76024 -450.901018 
L 670.907255 -449.86236 
L 673.054269 -448.819626 
L 675.201283 -447.772951 
L 677.348297 -446.722462 
L 679.495311 -445.668279 
L 681.642325 -444.610516 
L 683.789339 -443.549279 
L 685.936353 -442.48467 
L 688.083367 -441.416786 
L 690.230381 -440.345717 
L 692.377395 -439.271549 
L 694.524409 -438.194365 
L 696.671423 -437.114244 
L 698.818437 -436.03126 
L 700.965451 -434.945485 
L 703.112465 -433.856987 
L 705.259479 -432.765832 
L 707.406493 -431.672083 
L 709.553507 -430.575801 
L 711.700521 -429.477046 
L 713.847535 -428.375873 
L 715.994549 -427.272338 
L 718.141563 -426.166494 
L 720.288577 -425.058393 
L 722.435591 -423.948085 
L 724.582605 -422.83562 
L 726.729619 -421.721045 
L 728.876633 -420.604406 
L 731.023647 -419.485749 
L 733.170661 -418.365118 
L 735.317675 -417.242555 
L 737.464689 -416.118103 
L 739.611703 -414.991803 
L 741.758717 -413.863693 
L 743.905731 -412.733812 
L 746.052745 -411.602198 
L 748.19976 -410.468885 
L 750.346774 -409.333909 
L 752.493788 -408.197302 
L 754.640802 -407.059097 
L 756.787816 -405.919322 
L 758.93483 -404.778007 
L 761.081844 -403.635178 
L 763.228858 -402.49086 
L 765.375872 -401.345076 
L 767.522886 -400.197846 
L 769.6699 -399.04919 
L 771.816914 -397.899123 
L 773.963928 -396.747659 
L 776.110942 -395.59481 
L 778.257956 -394.440585 
L 780.40497 -393.284988 
L 782.551984 -392.128024 
L 784.698998 -390.969691 
L 786.846012 -389.809987 
L 788.993026 -388.648903 
L 791.14004 -387.486431 
L 793.287054 -386.322555 
L 795.434068 -385.157258 
L 797.581082 -383.990518 
L 799.728096 -382.822308 
L 801.87511 -381.652599 
L 804.022124 -380.481355 
L 806.169138 -379.308538 
L 808.316152 -378.134104 
L 810.463166 -376.958004 
L 812.61018 -375.780185 
L 814.757194 -374.600589 
L 816.904208 -373.419153 
L 819.051222 -372.235808 
L 821.198236 -371.050482 
L 823.345251 -369.863096 
L 825.492265 -368.673566 
L 827.639279 -367.481806 
L 829.786293 -366.28772 
L 831.933307 -365.091211 
L 834.080321 -363.892176 
L 836.227335 -362.690507 
L 838.374349 -361.486092 
L 840.521363 -360.278814 
L 842.668377 -359.068553 
L 844.815391 -357.855185 
L 846.962405 -356.638582 
L 849.109419 -355.418614 
L 851.256433 -354.195146 
L 853.403447 -352.968044 
L 855.550461 -351.737171 
L 857.697475 -350.502389 
L 859.844489 -349.263558 
L 861.991503 -348.020541 
L 864.138517 -346.7732 
L 866.285531 -345.521398 
L 868.432545 -344.265002 
L 870.579559 -343.003881 
L 872.726573 -341.737907 
L 874.873587 -340.466959 
L 877.020601 -339.190919 
L 879.167615 -337.909677 
L 881.314629 -336.62313 
L 883.461643 -335.33118 
L 885.608657 -334.033743 
L 887.755671 -332.730739 
L 889.902685 -331.422102 
L 892.049699 -330.107776 
L 894.196713 -328.787714 
L 896.343727 -327.461885 
L 898.490741 -326.130268 
L 900.637756 -324.792854 
L 902.78477 -323.449651 
L 904.931784 -322.100677 
L 907.078798 -320.745964 
L 909.225812 -319.38556 
L 911.372826 -318.019524 
L 913.51984 -316.647931 
L 915.666854 -315.270867 
L 917.813868 -313.888433 
L 919.960882 -312.50074 
L 922.107896 -311.107915 
L 924.25491 -309.710094 
L 926.401924 -308.307424 
L 928.548938 -306.900063 
L 930.695952 -305.48818 
L 932.842966 -304.07195 
L 934.98998 -302.651559 
L 937.136994 -301.227198 
L 939.284008 -299.799067 
L 941.431022 -298.367369 
L 943.578036 -296.932313 
L 945.72505 -295.494114 
L 947.872064 -294.052986 
L 950.019078 -292.609149 
L 952.166092 -291.162823 
L 954.313106 -289.714228 
L 956.46012 -288.263587 
L 958.607134 -286.81112 
L 960.754148 -285.357046 
L 962.901162 -283.901582 
L 965.048176 -282.444944 
L 967.19519 -280.987345 
L 969.342204 -279.528992 
L 971.489218 -278.070091 
L 973.636232 -276.610843 
L 975.783246 -275.151444 
L 977.930261 -273.692085 
L 980.077275 -272.232951 
L 982.224289 -270.774224 
L 984.371303 -269.316077 
L 986.518317 -267.858681 
L 988.665331 -266.402197 
L 990.812345 -264.946782 
L 992.959359 -263.492586 
L 995.106373 -262.039754 
L 997.253387 -260.588423 
L 999.400401 -259.138724 
L 1001.547415 -257.690781 
L 1003.694429 -256.244713 
L 1005.841443 -254.800632 
L 1007.988457 -253.358642 
L 1010.135471 -251.918843 
L 1012.282485 -250.481327 
L 1014.429499 -249.04618 
L 1016.576513 -247.613484 
L 1018.723527 -246.183311 
L 1020.870541 -244.755729 
L 1023.017555 -243.330802 
L 1025.164569 -241.908584 
L 1027.311583 -240.489127 
L 1029.458597 -239.072475 
L 1031.605611 -237.658667 
L 1033.752625 -236.247738 
L 1035.899639 -234.839715 
L 1038.046653 -233.434622 
L 1040.193667 -232.032477 
L 1042.340681 -230.633294 
L 1044.487695 -229.23708 
L 1046.634709 -227.843838 
L 1048.781723 -226.453568 
L 1050.928737 -225.066263 
L 1053.075752 -223.681914 
L 1055.222766 -222.300504 
L 1057.36978 -220.922016 
L 1059.516794 -219.546425 
L 1061.663808 -218.173705 
L 1063.810822 -216.803823 
L 1065.957836 -215.436745 
L 1068.10485 -214.072431 
L 1070.251864 -212.710838 
L 1072.398878 -211.351919 
L 1074.545892 -209.995625 
L 1076.692906 -208.641901 
L 1078.83992 -207.29069 
L 1080.986934 -205.941931 
L 1083.133948 -204.595561 
L 1085.280962 -203.251512 
L 1087.427976 -201.909715 
L 1089.57499 -200.570095 
L 1091.722004 -199.232576 
L 1093.869018 -197.89708 
L 1096.016032 -196.563522 
L 1098.163046 -195.231819 
L 1100.31006 -193.901882 
L 1102.457074 -192.57362 
L 1104.604088 -191.246939 
L 1106.751102 -189.921743 
L 1108.898116 -188.597934 
L 1111.04513 -187.275409 
L 1113.192144 -185.954064 
L 1115.339158 -184.633793 
L 1117.486172 -183.314485 
L 1119.633186 -181.996029 
L 1121.7802 -180.678311 
L 1123.927214 -179.361213 
L 1126.074228 -178.044616 
L 1128.221242 -176.728397 
L 1130.368257 -175.412434 
L 1132.515271 -174.096597 
L 1134.662285 -172.780759 
L 1136.809299 -171.464787 
L 1138.956313 -170.148547 
L 1141.103327 -168.831901 
L 1143.250341 -167.51471 
L 1145.397355 -166.196833 
L 1147.544369 -164.878124 
L 1149.691383 -163.558437 
L 1151.838397 -162.237622 
L 1153.985411 -160.915525 
L 1156.132425 -159.591993 
L 1158.279439 -158.266868 
L 1160.426453 -156.939988 
L 1162.573467 -155.611191 
L 1164.720481 -154.280311 
L 1166.867495 -152.947178 
L 1169.014509 -151.611622 
L 1171.161523 -150.273467 
L 1173.308537 -148.932536 
L 1175.455551 -147.588648 
L 1177.602565 -146.24162 
L 1179.749579 -144.891265 
L 1181.896593 -143.537395 
L 1184.043607 -142.179815 
L 1186.190621 -140.818332 
L 1188.337635 -139.452745 
L 1190.484649 -138.082853 
L 1192.631663 -136.708452 
L 1194.778677 -135.329333 
L 1196.925691 -133.945286 
L 1199.072705 -132.556097 
L 1201.219719 -131.161548 
L 1203.366733 -129.761421 
L 1205.513747 -128.355493 
L 1207.660762 -126.943538 
L 1209.807776 -125.525329 
L 1211.95479 -124.100635 
L 1214.101804 -122.669225 
L 1216.248818 -121.230862 
L 1218.395832 -119.785311 
L 1220.542846 -118.332332 
L 1222.68986 -116.871686 
L 1224.836874 -115.40313 
L 1226.983888 -113.926421 
L 1229.130902 -112.441317 
L 1231.277916 -110.947572 
L 1233.42493 -109.444943 
L 1235.571944 -107.933185 
L 1237.718958 -106.412054 
L 1239.865972 -104.881307 
L 1242.012986 -103.340702 
L 1244.16 -101.79 
L 1244.16 -189.708086 
L 1244.16 -189.708086 
L 1242.012986 -191.093162 
L 1239.865972 -192.477916 
L 1237.718958 -193.862157 
L 1235.571944 -195.245696 
L 1233.42493 -196.628347 
L 1231.277916 -198.009922 
L 1229.130902 -199.390238 
L 1226.983888 -200.769113 
L 1224.836874 -202.146368 
L 1222.68986 -203.521826 
L 1220.542846 -204.895315 
L 1218.395832 -206.266663 
L 1216.248818 -207.635705 
L 1214.101804 -209.002278 
L 1211.95479 -210.366222 
L 1209.807776 -211.727384 
L 1207.660762 -213.085611 
L 1205.513747 -214.440758 
L 1203.366733 -215.792683 
L 1201.219719 -217.141247 
L 1199.072705 -218.486317 
L 1196.925691 -219.827766 
L 1194.778677 -221.165469 
L 1192.631663 -222.499306 
L 1190.484649 -223.829163 
L 1188.337635 -225.154931 
L 1186.190621 -226.476502 
L 1184.043607 -227.793777 
L 1181.896593 -229.10666 
L 1179.749579 -230.415059 
L 1177.602565 -231.718886 
L 1175.455551 -233.01806 
L 1173.308537 -234.312501 
L 1171.161523 -235.602138 
L 1169.014509 -236.886899 
L 1166.867495 -238.16672 
L 1164.720481 -239.44154 
L 1162.573467 -240.711302 
L 1160.426453 -241.975954 
L 1158.279439 -243.235446 
L 1156.132425 -244.489734 
L 1153.985411 -245.738777 
L 1151.838397 -246.982538 
L 1149.691383 -248.220984 
L 1147.544369 -249.454084 
L 1145.397355 -250.681813 
L 1143.250341 -251.904147 
L 1141.103327 -253.121068 
L 1138.956313 -254.33256 
L 1136.809299 -255.53861 
L 1134.662285 -256.739209 
L 1132.515271 -257.934351 
L 1130.368257 -259.124032 
L 1128.221242 -260.308254 
L 1126.074228 -261.487018 
L 1123.927214 -262.660332 
L 1121.7802 -263.828204 
L 1119.633186 -264.990646 
L 1117.486172 -266.147673 
L 1115.339158 -267.299302 
L 1113.192144 -268.445554 
L 1111.04513 -269.586452 
L 1108.898116 -270.722022 
L 1106.751102 -271.852291 
L 1104.604088 -272.977291 
L 1102.457074 -274.097056 
L 1100.31006 -275.211622 
L 1098.163046 -276.321028 
L 1096.016032 -277.425314 
L 1093.869018 -278.524526 
L 1091.722004 -279.618709 
L 1089.57499 -280.707913 
L 1087.427976 -281.792189 
L 1085.280962 -282.871591 
L 1083.133948 -283.946176 
L 1080.986934 -285.016003 
L 1078.83992 -286.081133 
L 1076.692906 -287.141632 
L 1074.545892 -288.197566 
L 1072.398878 -289.249004 
L 1070.251864 -290.296019 
L 1068.10485 -291.338685 
L 1065.957836 -292.377079 
L 1063.810822 -293.411283 
L 1061.663808 -294.441378 
L 1059.516794 -295.46745 
L 1057.36978 -296.489588 
L 1055.222766 -297.507883 
L 1053.075752 -298.522428 
L 1050.928737 -299.533322 
L 1048.781723 -300.540663 
L 1046.634709 -301.544555 
L 1044.487695 -302.545104 
L 1042.340681 -303.542419 
L 1040.193667 -304.536613 
L 1038.046653 -305.5278 
L 1035.899639 -306.516101 
L 1033.752625 -307.501636 
L 1031.605611 -308.484532 
L 1029.458597 -309.464917 
L 1027.311583 -310.442923 
L 1025.164569 -311.418688 
L 1023.017555 -312.392349 
L 1020.870541 -313.364052 
L 1018.723527 -314.333941 
L 1016.576513 -315.302169 
L 1014.429499 -316.268888 
L 1012.282485 -317.234258 
L 1010.135471 -318.198441 
L 1007.988457 -319.161601 
L 1005.841443 -320.123909 
L 1003.694429 -321.085539 
L 1001.547415 -322.046666 
L 999.400401 -323.007474 
L 997.253387 -323.968145 
L 995.106373 -324.92887 
L 992.959359 -325.889839 
L 990.812345 -326.85125 
L 988.665331 -327.8133 
L 986.518317 -328.776193 
L 984.371303 -329.740134 
L 982.224289 -330.705331 
L 980.077275 -331.671997 
L 977.930261 -332.640344 
L 975.783246 -333.610589 
L 973.636232 -334.58295 
L 971.489218 -335.557646 
L 969.342204 -336.534898 
L 967.19519 -337.514929 
L 965.048176 -338.497959 
L 962.901162 -339.484211 
L 960.754148 -340.473906 
L 958.607134 -341.467263 
L 956.46012 -342.4645 
L 954.313106 -343.465833 
L 952.166092 -344.471474 
L 950.019078 -345.481631 
L 947.872064 -346.496507 
L 945.72505 -347.5163 
L 943.578036 -348.541202 
L 941.431022 -349.571396 
L 939.284008 -350.60706 
L 937.136994 -351.648359 
L 934.98998 -352.695452 
L 932.842966 -353.748485 
L 930.695952 -354.807593 
L 928.548938 -355.872899 
L 926.401924 -356.944511 
L 924.25491 -358.022526 
L 922.107896 -359.107024 
L 919.960882 -360.198069 
L 917.813868 -361.295711 
L 915.666854 -362.399981 
L 913.51984 -363.510896 
L 911.372826 -364.628452 
L 909.225812 -365.752629 
L 907.078798 -366.883389 
L 904.931784 -368.020675 
L 902.78477 -369.164412 
L 900.637756 -370.314508 
L 898.490741 -371.470851 
L 896.343727 -372.633314 
L 894.196713 -373.80175 
L 892.049699 -374.975996 
L 889.902685 -376.155875 
L 887.755671 -377.341192 
L 885.608657 -378.531737 
L 883.461643 -379.727288 
L 881.314629 -380.927607 
L 879.167615 -382.132446 
L 877.020601 -383.341545 
L 874.873587 -384.554633 
L 872.726573 -385.771429 
L 870.579559 -386.991646 
L 868.432545 -388.214987 
L 866.285531 -389.441149 
L 864.138517 -390.669825 
L 861.991503 -391.900702 
L 859.844489 -393.133464 
L 857.697475 -394.367792 
L 855.550461 -395.603365 
L 853.403447 -396.839861 
L 851.256433 -398.07696 
L 849.109419 -399.31434 
L 846.962405 -400.551681 
L 844.815391 -401.788665 
L 842.668377 -403.024976 
L 840.521363 -404.260303 
L 838.374349 -405.494337 
L 836.227335 -406.726772 
L 834.080321 -407.957309 
L 831.933307 -409.185653 
L 829.786293 -410.411514 
L 827.639279 -411.634606 
L 825.492265 -412.854652 
L 823.345251 -414.071379 
L 821.198236 -415.28452 
L 819.051222 -416.493815 
L 816.904208 -417.69901 
L 814.757194 -418.899858 
L 812.61018 -420.09612 
L 810.463166 -421.28756 
L 808.316152 -422.473954 
L 806.169138 -423.655079 
L 804.022124 -424.830724 
L 801.87511 -426.000683 
L 799.728096 -427.164754 
L 797.581082 -428.322748 
L 795.434068 -429.474476 
L 793.287054 -430.61976 
L 791.14004 -431.758428 
L 788.993026 -432.890314 
L 786.846012 -434.015259 
L 784.698998 -435.13311 
L 782.551984 -436.243721 
L 780.40497 -437.346951 
L 778.257956 -438.442669 
L 776.110942 -439.530746 
L 773.963928 -440.611061 
L 771.816914 -441.683501 
L 769.6699 -442.747955 
L 767.522886 -443.804321 
L 765.375872 -444.852503 
L 763.228858 -445.89241 
L 761.081844 -446.923957 
L 758.93483 -447.947064 
L 756.787816 -448.961659 
L 754.640802 -449.967674 
L 752.493788 -450.965047 
L 750.346774 -451.953721 
L 748.19976 -452.933647 
L 746.052745 -453.904779 
L 743.905731 -454.867078 
L 741.758717 -455.820511 
L 739.611703 -456.765049 
L 737.464689 -457.700669 
L 735.317675 -458.627356 
L 733.170661 -459.545097 
L 731.023647 -460.453889 
L 728.876633 -461.35373 
L 726.729619 -462.244626 
L 724.582605 -463.126591 
L 722.435591 -463.999641 
L 720.288577 -464.863801 
L 718.141563 -465.719099 
L 715.994549 -466.565573 
L 713.847535 -467.403264 
L 711.700521 -468.232221 
L 709.553507 -469.052499 
L 707.406493 -469.86416 
L 705.259479 -470.667272 
L 703.112465 -471.461912 
L 700.965451 -472.248161 
L 698.818437 -473.026111 
L 696.671423 -473.795858 
L 694.524409 -474.557508 
L 692.377395 -475.311176 
L 690.230381 -476.056982 
L 688.083367 -476.795057 
L 685.936353 -477.525541 
L 683.789339 -478.248582 
L 681.642325 -478.964339 
L 679.495311 -479.672979 
L 677.348297 -480.37468 
L 675.201283 -481.06963 
L 673.054269 -481.758031 
L 670.907255 -482.44009 
L 668.76024 -483.116032 
L 666.613226 -483.786091 
L 664.466212 -484.450511 
L 662.319198 -485.109553 
L 660.172184 -485.763488 
L 658.02517 -486.412602 
L 655.878156 -487.057192 
L 653.731142 -487.69757 
L 651.584128 -488.334062 
L 649.437114 -488.967006 
L 647.2901 -489.596756 
L 645.143086 -490.223677 
L 642.996072 -490.848147 
L 640.849058 -491.470557 
L 638.702044 -492.091311 
L 636.55503 -492.710822 
L 634.408016 -493.329512 
L 632.261002 -493.947812 
L 630.113988 -494.566159 
L 627.966974 -495.184996 
L 625.81996 -495.804765 
L 623.672946 -496.425909 
L 621.525932 -497.048867 
L 619.378918 -497.67407 
L 617.231904 -498.30194 
L 615.08489 -498.932884 
L 612.937876 -499.567289 
L 610.790862 -500.20552 
L 608.643848 -500.847916 
L 606.496834 -501.494783 
L 604.34982 -502.146392 
L 602.202806 -502.802977 
L 600.055792 -503.464727 
L 597.908778 -504.131787 
L 595.761764 -504.804252 
L 593.614749 -505.482171 
L 591.467735 -506.165539 
L 589.320721 -506.854304 
L 587.173707 -507.548361 
L 585.026693 -508.247558 
L 582.879679 -508.951697 
L 580.732665 -509.660535 
L 578.585651 -510.373793 
L 576.438637 -511.091152 
L 574.291623 -511.812263 
L 572.144609 -512.536751 
L 569.997595 -513.264218 
L 567.850581 -513.99425 
L 565.703567 -514.726419 
L 563.556553 -515.460289 
L 561.409539 -516.195422 
L 559.262525 -516.931379 
L 557.115511 -517.667725 
L 554.968497 -518.404034 
L 552.821483 -519.139889 
L 550.674469 -519.874887 
L 548.527455 -520.608639 
L 546.380441 -521.340775 
L 544.233427 -522.070943 
L 542.086413 -522.79881 
L 539.939399 -523.524067 
L 537.792385 -524.246424 
L 535.645371 -524.965614 
L 533.498357 -525.681393 
L 531.351343 -526.39354 
L 529.204329 -527.101857 
L 527.057315 -527.806168 
L 524.910301 -528.506319 
L 522.763287 -529.20218 
L 520.616273 -529.89364 
L 518.469259 -530.58061 
L 516.322244 -531.263023 
L 514.17523 -531.940831 
L 512.028216 -532.614004 
L 509.881202 -533.282532 
L 507.734188 -533.946422 
L 505.587174 -534.605697 
L 503.44016 -535.260398 
L 501.293146 -535.91058 
L 499.146132 -536.556311 
L 496.999118 -537.197674 
L 494.852104 -537.834764 
L 492.70509 -538.467685 
L 490.558076 -539.096553 
L 488.411062 -539.721493 
L 486.264048 -540.342637 
L 484.117034 -540.960124 
L 481.97002 -541.574097 
L 479.823006 -542.184707 
L 477.675992 -542.792105 
L 475.528978 -543.396443 
L 473.381964 -543.997877 
L 471.23495 -544.59656 
L 469.087936 -545.192645 
L 466.940922 -545.78628 
L 464.793908 -546.377612 
L 462.646894 -546.966779 
L 460.49988 -547.553918 
L 458.352866 -548.139155 
L 456.205852 -548.72261 
L 454.058838 -549.304394 
L 451.911824 -549.884609 
L 449.76481 -550.463345 
L 447.617796 -551.040684 
L 445.470782 -551.616696 
L 443.323768 -552.19144 
L 441.176754 -552.764961 
L 439.029739 -553.337295 
L 436.882725 -553.908466 
L 434.735711 -554.478483 
L 432.588697 -555.047347 
L 430.441683 -555.615045 
L 428.294669 -556.181553 
L 426.147655 -556.746837 
L 424.000641 -557.310851 
L 421.853627 -557.87354 
L 419.706613 -558.434838 
L 417.559599 -558.994671 
L 415.412585 -559.552957 
L 413.265571 -560.109604 
L 411.118557 -560.664514 
L 408.971543 -561.217582 
L 406.824529 -561.768697 
L 404.677515 -562.317742 
L 402.530501 -562.864596 
L 400.383487 -563.409134 
L 398.236473 -563.951227 
L 396.089459 -564.490741 
L 393.942445 -565.027543 
L 391.795431 -565.561496 
L 389.648417 -566.092462 
L 387.501403 -566.620302 
L 385.354389 -567.144877 
L 383.207375 -567.666047 
L 381.060361 -568.183674 
L 378.913347 -568.69762 
L 376.766333 -569.207747 
L 374.619319 -569.713919 
L 372.472305 -570.216004 
L 370.325291 -570.71387 
L 368.178277 -571.207386 
L 366.031263 -571.696426 
L 363.884248 -572.180867 
L 361.737234 -572.660587 
L 359.59022 -573.135467 
L 357.443206 -573.605394 
L 355.296192 -574.070255 
L 353.149178 -574.529943 
L 351.002164 -574.984355 
L 348.85515 -575.433389 
L 346.708136 -575.876949 
L 344.561122 -576.314943 
L 342.414108 -576.747283 
L 340.267094 -577.173883 
L 338.12008 -577.594663 
L 335.973066 -578.009549 
L 333.826052 -578.418467 
L 331.679038 -578.82135 
L 329.532024 -579.218135 
L 327.38501 -579.608764 
L 325.237996 -579.993181 
L 323.090982 -580.371337 
L 320.943968 -580.743185 
L 318.796954 -581.108685 
L 316.64994 -581.4678 
L 314.502926 -581.820498 
L 312.355912 -582.16675 
L 310.208898 -582.506534 
L 308.061884 -582.839831 
L 305.91487 -583.166625 
L 303.767856 -583.486908 
L 301.620842 -583.800674 
L 299.473828 -584.107923 
L 297.326814 -584.408658 
L 295.1798 -584.702888 
L 293.032786 -584.990625 
L 290.885772 -585.271888 
L 288.738758 -585.546698 
L 286.591743 -585.815082 
L 284.444729 -586.077071 
L 282.297715 -586.332702 
L 280.150701 -586.582014 
L 278.003687 -586.825053 
L 275.856673 -587.061868 
L 273.709659 -587.292514 
L 271.562645 -587.517049 
L 269.415631 -587.735538 
L 267.268617 -587.948047 
L 265.121603 -588.15465 
L 262.974589 -588.355424 
L 260.827575 -588.55045 
L 258.680561 -588.739816 
L 256.533547 -588.923611 
L 254.386533 -589.101932 
L 252.239519 -589.274878 
L 250.092505 -589.442555 
L 247.945491 -589.60507 
L 245.798477 -589.762538 
L 243.651463 -589.915077 
L 241.504449 -590.062808 
L 239.357435 -590.205859 
L 237.210421 -590.34436 
L 235.063407 -590.478447 
L 232.916393 -590.608259 
L 230.769379 -590.73394 
L 228.622365 -590.855638 
L 226.475351 -590.973505 
L 224.328337 -591.087696 
L 222.181323 -591.198371 
L 220.034309 -591.305695 
L 217.887295 -591.409833 
L 215.740281 -591.510958 
L 213.593267 -591.609243 
L 211.446253 -591.704866 
L 209.299238 -591.798009 
L 207.152224 -591.888855 
L 205.00521 -591.977592 
L 202.858196 -592.06441 
L 200.711182 -592.149502 
L 198.564168 -592.233062 
L 196.417154 -592.315289 
L 194.27014 -592.396381 
L 192.123126 -592.476542 
L 189.976112 -592.555974 
L 187.829098 -592.634882 
L 185.682084 -592.713472 
L 183.53507 -592.791952 
L 181.388056 -592.870531 
L 179.241042 -592.949415 
L 177.094028 -593.028816 
L 174.947014 -593.108941 
L 172.8 -593.19 
z
" style="stroke: #ffa500; stroke-opacity: 0.3"/>
    </defs>
    <g clip-path="url(#pcf15c9d039)">
     <use xlink:href="#m94987dd7c9" x="0" y="702" style="fill: #ffa500; fill-opacity: 0.3; stroke: #ffa500; stroke-opacity: 0.3"/>
    </g>
   </g>
   <g id="matplotlib.axis_1">
    <g id="xtick_1">
     <g id="line2d_1">
      <defs>
       <path id="mcbc5cab8ac" d="M 0 0 
L 0 3.5 
" style="stroke: #000000; stroke-width: 0.8"/>
      </defs>
      <g>
       <use xlink:href="#mcbc5cab8ac" x="249.325714" y="624.78" style="stroke: #000000; stroke-width: 0.8"/>
      </g>
     </g>
     <g id="text_1">
      <!-- 1.2 -->
      <g transform="translate(241.374152 639.378438)scale(0.1 -0.1)">
       <defs>
        <path id="DejaVuSans-31" d="M 794 531 
L 1825 531 
L 1825 4091 
L 703 3866 
L 703 4441 
L 1819 4666 
L 2450 4666 
L 2450 531 
L 3481 531 
L 3481 0 
L 794 0 
L 794 531 
z
" transform="scale(0.015625)"/>
        <path id="DejaVuSans-2e" d="M 684 794 
L 1344 794 
L 1344 0 
L 684 0 
L 684 794 
z
" transform="scale(0.015625)"/>
        <path id="DejaVuSans-32" d="M 1228 531 
L 3431 531 
L 3431 0 
L 469 0 
L 469 531 
Q 828 903 1448 1529 
Q 2069 2156 2228 2338 
Q 2531 2678 2651 2914 
Q 2772 3150 2772 3378 
Q 2772 3750 2511 3984 
Q 2250 4219 1831 4219 
Q 1534 4219 1204 4116 
Q 875 4013 500 3803 
L 500 4441 
Q 881 4594 1212 4672 
Q 1544 4750 1819 4750 
Q 2544 4750 2975 4387 
Q 3406 4025 3406 3419 
Q 3406 3131 3298 2873 
Q 3191 2616 2906 2266 
Q 2828 2175 2409 1742 
Q 1991 1309 1228 531 
z
" transform="scale(0.015625)"/>
       </defs>
       <use xlink:href="#DejaVuSans-31"/>
       <use xlink:href="#DejaVuSans-2e" x="63.623047"/>
       <use xlink:href="#DejaVuSans-32" x="95.410156"/>
      </g>
     </g>
    </g>
    <g id="xtick_2">
     <g id="line2d_2">
      <g>
       <use xlink:href="#mcbc5cab8ac" x="402.377143" y="624.78" style="stroke: #000000; stroke-width: 0.8"/>
      </g>
     </g>
     <g id="text_2">
      <!-- 1.4 -->
      <g transform="translate(394.42558 639.378438)scale(0.1 -0.1)">
       <defs>
        <path id="DejaVuSans-34" d="M 2419 4116 
L 825 1625 
L 2419 1625 
L 2419 4116 
z
M 2253 4666 
L 3047 4666 
L 3047 1625 
L 3713 1625 
L 3713 1100 
L 3047 1100 
L 3047 0 
L 2419 0 
L 2419 1100 
L 313 1100 
L 313 1709 
L 2253 4666 
z
" transform="scale(0.015625)"/>
       </defs>
       <use xlink:href="#DejaVuSans-31"/>
       <use xlink:href="#DejaVuSans-2e" x="63.623047"/>
       <use xlink:href="#DejaVuSans-34" x="95.410156"/>
      </g>
     </g>
    </g>
    <g id="xtick_3">
     <g id="line2d_3">
      <g>
       <use xlink:href="#mcbc5cab8ac" x="555.428571" y="624.78" style="stroke: #000000; stroke-width: 0.8"/>
      </g>
     </g>
     <g id="text_3">
      <!-- 1.6 -->
      <g transform="translate(547.477009 639.378438)scale(0.1 -0.1)">
       <defs>
        <path id="DejaVuSans-36" d="M 2113 2584 
Q 1688 2584 1439 2293 
Q 1191 2003 1191 1497 
Q 1191 994 1439 701 
Q 1688 409 2113 409 
Q 2538 409 2786 701 
Q 3034 994 3034 1497 
Q 3034 2003 2786 2293 
Q 2538 2584 2113 2584 
z
M 3366 4563 
L 3366 3988 
Q 3128 4100 2886 4159 
Q 2644 4219 2406 4219 
Q 1781 4219 1451 3797 
Q 1122 3375 1075 2522 
Q 1259 2794 1537 2939 
Q 1816 3084 2150 3084 
Q 2853 3084 3261 2657 
Q 3669 2231 3669 1497 
Q 3669 778 3244 343 
Q 2819 -91 2113 -91 
Q 1303 -91 875 529 
Q 447 1150 447 2328 
Q 447 3434 972 4092 
Q 1497 4750 2381 4750 
Q 2619 4750 2861 4703 
Q 3103 4656 3366 4563 
z
" transform="scale(0.015625)"/>
       </defs>
       <use xlink:href="#DejaVuSans-31"/>
       <use xlink:href="#DejaVuSans-2e" x="63.623047"/>
       <use xlink:href="#DejaVuSans-36" x="95.410156"/>
      </g>
     </g>
    </g>
    <g id="xtick_4">
     <g id="line2d_4">
      <g>
       <use xlink:href="#mcbc5cab8ac" x="708.48" y="624.78" style="stroke: #000000; stroke-width: 0.8"/>
      </g>
     </g>
     <g id="text_4">
      <!-- 1.8 -->
      <g transform="translate(700.528437 639.378438)scale(0.1 -0.1)">
       <defs>
        <path id="DejaVuSans-38" d="M 2034 2216 
Q 1584 2216 1326 1975 
Q 1069 1734 1069 1313 
Q 1069 891 1326 650 
Q 1584 409 2034 409 
Q 2484 409 2743 651 
Q 3003 894 3003 1313 
Q 3003 1734 2745 1975 
Q 2488 2216 2034 2216 
z
M 1403 2484 
Q 997 2584 770 2862 
Q 544 3141 544 3541 
Q 544 4100 942 4425 
Q 1341 4750 2034 4750 
Q 2731 4750 3128 4425 
Q 3525 4100 3525 3541 
Q 3525 3141 3298 2862 
Q 3072 2584 2669 2484 
Q 3125 2378 3379 2068 
Q 3634 1759 3634 1313 
Q 3634 634 3220 271 
Q 2806 -91 2034 -91 
Q 1263 -91 848 271 
Q 434 634 434 1313 
Q 434 1759 690 2068 
Q 947 2378 1403 2484 
z
M 1172 3481 
Q 1172 3119 1398 2916 
Q 1625 2713 2034 2713 
Q 2441 2713 2670 2916 
Q 2900 3119 2900 3481 
Q 2900 3844 2670 4047 
Q 2441 4250 2034 4250 
Q 1625 4250 1398 4047 
Q 1172 3844 1172 3481 
z
" transform="scale(0.015625)"/>
       </defs>
       <use xlink:href="#DejaVuSans-31"/>
       <use xlink:href="#DejaVuSans-2e" x="63.623047"/>
       <use xlink:href="#DejaVuSans-38" x="95.410156"/>
      </g>
     </g>
    </g>
    <g id="xtick_5">
     <g id="line2d_5">
      <g>
       <use xlink:href="#mcbc5cab8ac" x="861.531429" y="624.78" style="stroke: #000000; stroke-width: 0.8"/>
      </g>
     </g>
     <g id="text_5">
      <!-- 2.0 -->
      <g transform="translate(853.579866 639.378438)scale(0.1 -0.1)">
       <defs>
        <path id="DejaVuSans-30" d="M 2034 4250 
Q 1547 4250 1301 3770 
Q 1056 3291 1056 2328 
Q 1056 1369 1301 889 
Q 1547 409 2034 409 
Q 2525 409 2770 889 
Q 3016 1369 3016 2328 
Q 3016 3291 2770 3770 
Q 2525 4250 2034 4250 
z
M 2034 4750 
Q 2819 4750 3233 4129 
Q 3647 3509 3647 2328 
Q 3647 1150 3233 529 
Q 2819 -91 2034 -91 
Q 1250 -91 836 529 
Q 422 1150 422 2328 
Q 422 3509 836 4129 
Q 1250 4750 2034 4750 
z
" transform="scale(0.015625)"/>
       </defs>
       <use xlink:href="#DejaVuSans-32"/>
       <use xlink:href="#DejaVuSans-2e" x="63.623047"/>
       <use xlink:href="#DejaVuSans-30" x="95.410156"/>
      </g>
     </g>
    </g>
    <g id="xtick_6">
     <g id="line2d_6">
      <g>
       <use xlink:href="#mcbc5cab8ac" x="1014.582857" y="624.78" style="stroke: #000000; stroke-width: 0.8"/>
      </g>
     </g>
     <g id="text_6">
      <!-- 2.2 -->
      <g transform="translate(1006.631295 639.378438)scale(0.1 -0.1)">
       <use xlink:href="#DejaVuSans-32"/>
       <use xlink:href="#DejaVuSans-2e" x="63.623047"/>
       <use xlink:href="#DejaVuSans-32" x="95.410156"/>
      </g>
     </g>
    </g>
    <g id="xtick_7">
     <g id="line2d_7">
      <g>
       <use xlink:href="#mcbc5cab8ac" x="1167.634286" y="624.78" style="stroke: #000000; stroke-width: 0.8"/>
      </g>
     </g>
     <g id="text_7">
      <!-- 2.4 -->
      <g transform="translate(1159.682723 639.378438)scale(0.1 -0.1)">
       <use xlink:href="#DejaVuSans-32"/>
       <use xlink:href="#DejaVuSans-2e" x="63.623047"/>
       <use xlink:href="#DejaVuSans-34" x="95.410156"/>
      </g>
     </g>
    </g>
    <g id="text_8">
     <!-- $ \psi $ -->
     <g transform="translate(705.18 653.03625)scale(0.1 -0.1)">
      <defs>
       <path id="DejaVuSans-Oblique-3c8" d="M 1591 -78 
Q 891 38 616 341 
Q 278 713 425 1472 
L 819 3500 
L 1400 3500 
L 1009 1494 
Q 900 922 1119 684 
Q 1313 478 1691 434 
L 2284 3500 
L 2856 3500 
L 2263 438 
Q 2681 481 2928 688 
Q 3247 950 3353 1497 
L 3741 3500 
L 4322 3500 
L 3928 1475 
Q 3775 688 3300 344 
Q 2872 34 2163 -75 
L 1919 -1331 
L 1347 -1331 
L 1591 -78 
z
" transform="scale(0.015625)"/>
      </defs>
      <use xlink:href="#DejaVuSans-Oblique-3c8" transform="translate(0 0.3125)"/>
     </g>
    </g>
   </g>
   <g id="matplotlib.axis_2">
    <g id="ytick_1">
     <g id="line2d_8">
      <defs>
       <path id="m8b4656737e" d="M 0 0 
L -3.5 0 
" style="stroke: #000000; stroke-width: 0.8"/>
      </defs>
      <g>
       <use xlink:href="#m8b4656737e" x="172.8" y="579.046951" style="stroke: #000000; stroke-width: 0.8"/>
      </g>
     </g>
     <g id="text_9">
      <!-- 93.2 -->
      <g transform="translate(143.534375 582.84617)scale(0.1 -0.1)">
       <defs>
        <path id="DejaVuSans-39" d="M 703 97 
L 703 672 
Q 941 559 1184 500 
Q 1428 441 1663 441 
Q 2288 441 2617 861 
Q 2947 1281 2994 2138 
Q 2813 1869 2534 1725 
Q 2256 1581 1919 1581 
Q 1219 1581 811 2004 
Q 403 2428 403 3163 
Q 403 3881 828 4315 
Q 1253 4750 1959 4750 
Q 2769 4750 3195 4129 
Q 3622 3509 3622 2328 
Q 3622 1225 3098 567 
Q 2575 -91 1691 -91 
Q 1453 -91 1209 -44 
Q 966 3 703 97 
z
M 1959 2075 
Q 2384 2075 2632 2365 
Q 2881 2656 2881 3163 
Q 2881 3666 2632 3958 
Q 2384 4250 1959 4250 
Q 1534 4250 1286 3958 
Q 1038 3666 1038 3163 
Q 1038 2656 1286 2365 
Q 1534 2075 1959 2075 
z
" transform="scale(0.015625)"/>
        <path id="DejaVuSans-33" d="M 2597 2516 
Q 3050 2419 3304 2112 
Q 3559 1806 3559 1356 
Q 3559 666 3084 287 
Q 2609 -91 1734 -91 
Q 1441 -91 1130 -33 
Q 819 25 488 141 
L 488 750 
Q 750 597 1062 519 
Q 1375 441 1716 441 
Q 2309 441 2620 675 
Q 2931 909 2931 1356 
Q 2931 1769 2642 2001 
Q 2353 2234 1838 2234 
L 1294 2234 
L 1294 2753 
L 1863 2753 
Q 2328 2753 2575 2939 
Q 2822 3125 2822 3475 
Q 2822 3834 2567 4026 
Q 2313 4219 1838 4219 
Q 1578 4219 1281 4162 
Q 984 4106 628 3988 
L 628 4550 
Q 988 4650 1302 4700 
Q 1616 4750 1894 4750 
Q 2613 4750 3031 4423 
Q 3450 4097 3450 3541 
Q 3450 3153 3228 2886 
Q 3006 2619 2597 2516 
z
" transform="scale(0.015625)"/>
       </defs>
       <use xlink:href="#DejaVuSans-39"/>
       <use xlink:href="#DejaVuSans-33" x="63.623047"/>
       <use xlink:href="#DejaVuSans-2e" x="127.246094"/>
       <use xlink:href="#DejaVuSans-32" x="159.033203"/>
      </g>
     </g>
    </g>
    <g id="ytick_2">
     <g id="line2d_9">
      <g>
       <use xlink:href="#m8b4656737e" x="172.8" y="518.68384" style="stroke: #000000; stroke-width: 0.8"/>
      </g>
     </g>
     <g id="text_10">
      <!-- 93.4 -->
      <g transform="translate(143.534375 522.483059)scale(0.1 -0.1)">
       <use xlink:href="#DejaVuSans-39"/>
       <use xlink:href="#DejaVuSans-33" x="63.623047"/>
       <use xlink:href="#DejaVuSans-2e" x="127.246094"/>
       <use xlink:href="#DejaVuSans-34" x="159.033203"/>
      </g>
     </g>
    </g>
    <g id="ytick_3">
     <g id="line2d_10">
      <g>
       <use xlink:href="#m8b4656737e" x="172.8" y="458.320729" style="stroke: #000000; stroke-width: 0.8"/>
      </g>
     </g>
     <g id="text_11">
      <!-- 93.6 -->
      <g transform="translate(143.534375 462.119948)scale(0.1 -0.1)">
       <use xlink:href="#DejaVuSans-39"/>
       <use xlink:href="#DejaVuSans-33" x="63.623047"/>
       <use xlink:href="#DejaVuSans-2e" x="127.246094"/>
       <use xlink:href="#DejaVuSans-36" x="159.033203"/>
      </g>
     </g>
    </g>
    <g id="ytick_4">
     <g id="line2d_11">
      <g>
       <use xlink:href="#m8b4656737e" x="172.8" y="397.957618" style="stroke: #000000; stroke-width: 0.8"/>
      </g>
     </g>
     <g id="text_12">
      <!-- 93.8 -->
      <g transform="translate(143.534375 401.756837)scale(0.1 -0.1)">
       <use xlink:href="#DejaVuSans-39"/>
       <use xlink:href="#DejaVuSans-33" x="63.623047"/>
       <use xlink:href="#DejaVuSans-2e" x="127.246094"/>
       <use xlink:href="#DejaVuSans-38" x="159.033203"/>
      </g>
     </g>
    </g>
    <g id="ytick_5">
     <g id="line2d_12">
      <g>
       <use xlink:href="#m8b4656737e" x="172.8" y="337.594507" style="stroke: #000000; stroke-width: 0.8"/>
      </g>
     </g>
     <g id="text_13">
      <!-- 94.0 -->
      <g transform="translate(143.534375 341.393726)scale(0.1 -0.1)">
       <use xlink:href="#DejaVuSans-39"/>
       <use xlink:href="#DejaVuSans-34" x="63.623047"/>
       <use xlink:href="#DejaVuSans-2e" x="127.246094"/>
       <use xlink:href="#DejaVuSans-30" x="159.033203"/>
      </g>
     </g>
    </g>
    <g id="ytick_6">
     <g id="line2d_13">
      <g>
       <use xlink:href="#m8b4656737e" x="172.8" y="277.231396" style="stroke: #000000; stroke-width: 0.8"/>
      </g>
     </g>
     <g id="text_14">
      <!-- 94.2 -->
      <g transform="translate(143.534375 281.030615)scale(0.1 -0.1)">
       <use xlink:href="#DejaVuSans-39"/>
       <use xlink:href="#DejaVuSans-34" x="63.623047"/>
       <use xlink:href="#DejaVuSans-2e" x="127.246094"/>
       <use xlink:href="#DejaVuSans-32" x="159.033203"/>
      </g>
     </g>
    </g>
    <g id="ytick_7">
     <g id="line2d_14">
      <g>
       <use xlink:href="#m8b4656737e" x="172.8" y="216.868285" style="stroke: #000000; stroke-width: 0.8"/>
      </g>
     </g>
     <g id="text_15">
      <!-- 94.4 -->
      <g transform="translate(143.534375 220.667504)scale(0.1 -0.1)">
       <use xlink:href="#DejaVuSans-39"/>
       <use xlink:href="#DejaVuSans-34" x="63.623047"/>
       <use xlink:href="#DejaVuSans-2e" x="127.246094"/>
       <use xlink:href="#DejaVuSans-34" x="159.033203"/>
      </g>
     </g>
    </g>
    <g id="ytick_8">
     <g id="line2d_15">
      <g>
       <use xlink:href="#m8b4656737e" x="172.8" y="156.505175" style="stroke: #000000; stroke-width: 0.8"/>
      </g>
     </g>
     <g id="text_16">
      <!-- 94.6 -->
      <g transform="translate(143.534375 160.304393)scale(0.1 -0.1)">
       <use xlink:href="#DejaVuSans-39"/>
       <use xlink:href="#DejaVuSans-34" x="63.623047"/>
       <use xlink:href="#DejaVuSans-2e" x="127.246094"/>
       <use xlink:href="#DejaVuSans-36" x="159.033203"/>
      </g>
     </g>
    </g>
    <g id="ytick_9">
     <g id="line2d_16">
      <g>
       <use xlink:href="#m8b4656737e" x="172.8" y="96.142064" style="stroke: #000000; stroke-width: 0.8"/>
      </g>
     </g>
     <g id="text_17">
      <!-- 94.8 -->
      <g transform="translate(143.534375 99.941282)scale(0.1 -0.1)">
       <use xlink:href="#DejaVuSans-39"/>
       <use xlink:href="#DejaVuSans-34" x="63.623047"/>
       <use xlink:href="#DejaVuSans-2e" x="127.246094"/>
       <use xlink:href="#DejaVuSans-38" x="159.033203"/>
      </g>
     </g>
    </g>
    <g id="text_18">
     <!-- $ \eta $ -->
     <g transform="translate(137.434375 357.71)rotate(-90)scale(0.1 -0.1)">
      <defs>
       <path id="DejaVuSans-Oblique-3b7" d="M 3703 2113 
L 3034 -1331 
L 2459 -1331 
L 3125 2094 
Q 3222 2591 3075 2838 
Q 2931 3084 2544 3084 
Q 2078 3084 1750 2788 
Q 1425 2491 1325 1978 
L 941 0 
L 363 0 
L 1044 3500 
L 1622 3500 
L 1516 2956 
Q 1781 3272 2094 3428 
Q 2403 3584 2769 3584 
Q 3372 3584 3609 3213 
Q 3844 2838 3703 2113 
z
" transform="scale(0.015625)"/>
      </defs>
      <use xlink:href="#DejaVuSans-Oblique-3b7"/>
     </g>
    </g>
   </g>
   <g id="line2d_17">
    <path d="M 172.8 160.207635 
L 198.564168 158.094022 
L 220.034309 156.561046 
L 239.357435 155.421429 
L 256.533547 154.642511 
L 271.562645 154.17006 
L 286.591743 153.915436 
L 301.620842 153.898338 
L 314.502926 154.08602 
L 327.38501 154.470537 
L 340.267094 155.059831 
L 353.149178 155.860222 
L 366.031263 156.87636 
L 378.913347 158.111215 
L 391.795431 159.566121 
L 404.677515 161.240851 
L 417.559599 163.13374 
L 430.441683 165.24182 
L 443.323768 167.560968 
L 456.205852 170.086038 
L 469.087936 172.810957 
L 484.117034 176.233319 
L 499.146132 179.90577 
L 514.17523 183.814338 
L 529.204329 187.943666 
L 546.380441 192.91223 
L 563.556553 198.123448 
L 580.732665 203.556572 
L 597.908778 209.200123 
L 615.08489 215.05732 
L 632.261002 221.146753 
L 647.2901 226.687893 
L 662.319198 232.44969 
L 677.348297 238.451429 
L 692.377395 244.708638 
L 707.406493 251.231879 
L 722.435591 258.026137 
L 737.464689 265.090614 
L 752.493788 272.418825 
L 767.522886 279.998916 
L 782.551984 287.814128 
L 799.728096 297.006469 
L 816.904208 306.440919 
L 838.374349 318.509786 
L 864.138517 333.278487 
L 922.107896 366.892531 
L 956.46012 386.635956 
L 988.665331 404.892251 
L 1029.458597 427.731304 
L 1089.57499 461.360996 
L 1115.339158 476.033453 
L 1136.809299 488.498301 
L 1156.132425 499.959136 
L 1173.308537 510.377481 
L 1190.484649 521.043992 
L 1207.660762 531.985426 
L 1222.68986 541.803244 
L 1237.718958 551.862895 
L 1244.16 556.250957 
L 1244.16 556.250957 
" clip-path="url(#pcf15c9d039)" style="fill: none; stroke: #0000ff; stroke-width: 1.5; stroke-linecap: square"/>
   </g>
   <g id="patch_3">
    <path d="M 172.8 624.78 
L 172.8 84.24 
" style="fill: none; stroke: #000000; stroke-width: 0.8; stroke-linejoin: miter; stroke-linecap: square"/>
   </g>
   <g id="patch_4">
    <path d="M 1244.16 624.78 
L 1244.16 84.24 
" style="fill: none; stroke: #000000; stroke-width: 0.8; stroke-linejoin: miter; stroke-linecap: square"/>
   </g>
   <g id="patch_5">
    <path d="M 172.8 624.78 
L 1244.16 624.78 
" style="fill: none; stroke: #000000; stroke-width: 0.8; stroke-linejoin: miter; stroke-linecap: square"/>
   </g>
   <g id="patch_6">
    <path d="M 172.8 84.24 
L 1244.16 84.24 
" style="fill: none; stroke: #000000; stroke-width: 0.8; stroke-linejoin: miter; stroke-linecap: square"/>
   </g>
   <g id="text_19">
    <!-- 94.61 -->
    <g style="fill: #00008b" transform="translate(295.1798 153.875406)scale(0.12 -0.12)">
     <use xlink:href="#DejaVuSans-39"/>
     <use xlink:href="#DejaVuSans-34" x="63.623047"/>
     <use xlink:href="#DejaVuSans-2e" x="127.246094"/>
     <use xlink:href="#DejaVuSans-36" x="159.033203"/>
     <use xlink:href="#DejaVuSans-31" x="222.65625"/>
    </g>
   </g>
   <g id="text_20">
    <!-- $  \phi = 0.8046093912251082\; \; \; \Lambda = 0.508821964390295\; \; \; M = 0.6442669693790511\; \; \; Co = 0.6808855407513105\; \; \;  $ -->
    <g transform="translate(430.83 78.24)scale(0.1 -0.1)">
     <defs>
      <path id="DejaVuSans-Oblique-3d5" d="M 2991 4863 
L 2738 3572 
Q 3363 3572 3684 3094 
Q 4016 2606 3850 1747 
Q 3681 888 3159 400 
Q 2653 -78 2028 -78 
L 1784 -1331 
L 1213 -1331 
L 1456 -78 
Q 834 -78 509 400 
Q 178 888 347 1747 
Q 513 2606 1034 3094 
Q 1544 3572 2166 3572 
L 2419 4863 
L 2991 4863 
z
M 2128 434 
Q 2481 434 2784 756 
Q 3116 1116 3244 1747 
Q 3369 2372 3169 2738 
Q 2991 3059 2638 3059 
L 2128 434 
z
M 1556 434 
L 2066 3059 
Q 1716 3059 1413 2738 
Q 1072 2372 953 1747 
Q 834 1116 1028 756 
Q 1203 434 1556 434 
z
" transform="scale(0.015625)"/>
      <path id="DejaVuSans-3d" d="M 678 2906 
L 4684 2906 
L 4684 2381 
L 678 2381 
L 678 2906 
z
M 678 1631 
L 4684 1631 
L 4684 1100 
L 678 1100 
L 678 1631 
z
" transform="scale(0.015625)"/>
      <path id="DejaVuSans-35" d="M 691 4666 
L 3169 4666 
L 3169 4134 
L 1269 4134 
L 1269 2991 
Q 1406 3038 1543 3061 
Q 1681 3084 1819 3084 
Q 2600 3084 3056 2656 
Q 3513 2228 3513 1497 
Q 3513 744 3044 326 
Q 2575 -91 1722 -91 
Q 1428 -91 1123 -41 
Q 819 9 494 109 
L 494 744 
Q 775 591 1075 516 
Q 1375 441 1709 441 
Q 2250 441 2565 725 
Q 2881 1009 2881 1497 
Q 2881 1984 2565 2268 
Q 2250 2553 1709 2553 
Q 1456 2553 1204 2497 
Q 953 2441 691 2322 
L 691 4666 
z
" transform="scale(0.015625)"/>
      <path id="DejaVuSans-39b" d="M 716 0 
L 50 0 
L 1831 4666 
L 2547 4666 
L 4325 0 
L 3669 0 
L 2188 4044 
L 716 0 
z
" transform="scale(0.015625)"/>
      <path id="DejaVuSans-Oblique-4d" d="M 1081 4666 
L 2028 4666 
L 2572 1522 
L 4378 4666 
L 5350 4666 
L 4441 0 
L 3828 0 
L 4622 4091 
L 2791 897 
L 2175 897 
L 1581 4103 
L 788 0 
L 172 0 
L 1081 4666 
z
" transform="scale(0.015625)"/>
      <path id="DejaVuSans-37" d="M 525 4666 
L 3525 4666 
L 3525 4397 
L 1831 0 
L 1172 0 
L 2766 4134 
L 525 4134 
L 525 4666 
z
" transform="scale(0.015625)"/>
      <path id="DejaVuSans-Oblique-43" d="M 4447 4306 
L 4319 3641 
Q 4019 3944 3683 4091 
Q 3347 4238 2956 4238 
Q 2422 4238 2017 3981 
Q 1613 3725 1319 3200 
Q 1131 2863 1032 2486 
Q 934 2109 934 1728 
Q 934 1091 1264 756 
Q 1594 422 2222 422 
Q 2656 422 3056 561 
Q 3456 700 3834 978 
L 3688 231 
Q 3316 72 2936 -9 
Q 2556 -91 2175 -91 
Q 1278 -91 773 396 
Q 269 884 269 1753 
Q 269 2309 461 2846 
Q 653 3384 1013 3828 
Q 1394 4300 1883 4525 
Q 2372 4750 3022 4750 
Q 3422 4750 3780 4639 
Q 4138 4528 4447 4306 
z
" transform="scale(0.015625)"/>
      <path id="DejaVuSans-Oblique-6f" d="M 1625 -91 
Q 1009 -91 651 289 
Q 294 669 294 1325 
Q 294 1706 417 2101 
Q 541 2497 738 2766 
Q 1047 3184 1428 3384 
Q 1809 3584 2291 3584 
Q 2888 3584 3255 3212 
Q 3622 2841 3622 2241 
Q 3622 1825 3500 1412 
Q 3378 1000 3181 728 
Q 2875 309 2494 109 
Q 2113 -91 1625 -91 
z
M 891 1344 
Q 891 869 1089 633 
Q 1288 397 1691 397 
Q 2269 397 2648 901 
Q 3028 1406 3028 2181 
Q 3028 2634 2825 2865 
Q 2622 3097 2228 3097 
Q 1903 3097 1650 2945 
Q 1397 2794 1197 2484 
Q 1050 2253 970 1956 
Q 891 1659 891 1344 
z
" transform="scale(0.015625)"/>
     </defs>
     <use xlink:href="#DejaVuSans-Oblique-3d5" transform="translate(0 0.015625)"/>
     <use xlink:href="#DejaVuSans-3d" transform="translate(85.449219 0.015625)"/>
     <use xlink:href="#DejaVuSans-30" transform="translate(188.720703 0.015625)"/>
     <use xlink:href="#DejaVuSans-2e" transform="translate(252.34375 0.015625)"/>
     <use xlink:href="#DejaVuSans-38" transform="translate(281.505859 0.015625)"/>
     <use xlink:href="#DejaVuSans-30" transform="translate(345.128906 0.015625)"/>
     <use xlink:href="#DejaVuSans-34" transform="translate(408.751953 0.015625)"/>
     <use xlink:href="#DejaVuSans-36" transform="translate(472.375 0.015625)"/>
     <use xlink:href="#DejaVuSans-30" transform="translate(535.998047 0.015625)"/>
     <use xlink:href="#DejaVuSans-39" transform="translate(599.621094 0.015625)"/>
     <use xlink:href="#DejaVuSans-33" transform="translate(663.244141 0.015625)"/>
     <use xlink:href="#DejaVuSans-39" transform="translate(726.867188 0.015625)"/>
     <use xlink:href="#DejaVuSans-31" transform="translate(790.490234 0.015625)"/>
     <use xlink:href="#DejaVuSans-32" transform="translate(854.113281 0.015625)"/>
     <use xlink:href="#DejaVuSans-32" transform="translate(917.736328 0.015625)"/>
     <use xlink:href="#DejaVuSans-35" transform="translate(981.359375 0.015625)"/>
     <use xlink:href="#DejaVuSans-31" transform="translate(1044.982422 0.015625)"/>
     <use xlink:href="#DejaVuSans-30" transform="translate(1108.605469 0.015625)"/>
     <use xlink:href="#DejaVuSans-38" transform="translate(1172.228516 0.015625)"/>
     <use xlink:href="#DejaVuSans-32" transform="translate(1235.851562 0.015625)"/>
     <use xlink:href="#DejaVuSans-39b" transform="translate(1380.652017 0.015625)"/>
     <use xlink:href="#DejaVuSans-3d" transform="translate(1468.542642 0.015625)"/>
     <use xlink:href="#DejaVuSans-30" transform="translate(1571.814126 0.015625)"/>
     <use xlink:href="#DejaVuSans-2e" transform="translate(1635.437173 0.015625)"/>
     <use xlink:href="#DejaVuSans-35" transform="translate(1667.224282 0.015625)"/>
     <use xlink:href="#DejaVuSans-30" transform="translate(1730.847329 0.015625)"/>
     <use xlink:href="#DejaVuSans-38" transform="translate(1794.470376 0.015625)"/>
     <use xlink:href="#DejaVuSans-38" transform="translate(1858.093423 0.015625)"/>
     <use xlink:href="#DejaVuSans-32" transform="translate(1921.71647 0.015625)"/>
     <use xlink:href="#DejaVuSans-31" transform="translate(1985.339517 0.015625)"/>
     <use xlink:href="#DejaVuSans-39" transform="translate(2048.962563 0.015625)"/>
     <use xlink:href="#DejaVuSans-36" transform="translate(2112.58561 0.015625)"/>
     <use xlink:href="#DejaVuSans-34" transform="translate(2176.208657 0.015625)"/>
     <use xlink:href="#DejaVuSans-33" transform="translate(2239.831704 0.015625)"/>
     <use xlink:href="#DejaVuSans-39" transform="translate(2303.454751 0.015625)"/>
     <use xlink:href="#DejaVuSans-30" transform="translate(2367.077798 0.015625)"/>
     <use xlink:href="#DejaVuSans-32" transform="translate(2430.700845 0.015625)"/>
     <use xlink:href="#DejaVuSans-39" transform="translate(2492.573892 0.015625)"/>
     <use xlink:href="#DejaVuSans-35" transform="translate(2556.196938 0.015625)"/>
     <use xlink:href="#DejaVuSans-Oblique-4d" transform="translate(2700.997393 0.015625)"/>
     <use xlink:href="#DejaVuSans-3d" transform="translate(2806.759111 0.015625)"/>
     <use xlink:href="#DejaVuSans-30" transform="translate(2910.030596 0.015625)"/>
     <use xlink:href="#DejaVuSans-2e" transform="translate(2973.653643 0.015625)"/>
     <use xlink:href="#DejaVuSans-36" transform="translate(3005.440752 0.015625)"/>
     <use xlink:href="#DejaVuSans-34" transform="translate(3069.063799 0.015625)"/>
     <use xlink:href="#DejaVuSans-34" transform="translate(3132.686846 0.015625)"/>
     <use xlink:href="#DejaVuSans-32" transform="translate(3196.309893 0.015625)"/>
     <use xlink:href="#DejaVuSans-36" transform="translate(3259.932939 0.015625)"/>
     <use xlink:href="#DejaVuSans-36" transform="translate(3323.555986 0.015625)"/>
     <use xlink:href="#DejaVuSans-39" transform="translate(3387.179033 0.015625)"/>
     <use xlink:href="#DejaVuSans-36" transform="translate(3450.80208 0.015625)"/>
     <use xlink:href="#DejaVuSans-39" transform="translate(3514.425127 0.015625)"/>
     <use xlink:href="#DejaVuSans-33" transform="translate(3578.048174 0.015625)"/>
     <use xlink:href="#DejaVuSans-37" transform="translate(3641.671221 0.015625)"/>
     <use xlink:href="#DejaVuSans-39" transform="translate(3705.294268 0.015625)"/>
     <use xlink:href="#DejaVuSans-30" transform="translate(3768.917314 0.015625)"/>
     <use xlink:href="#DejaVuSans-35" transform="translate(3832.540361 0.015625)"/>
     <use xlink:href="#DejaVuSans-31" transform="translate(3896.163408 0.015625)"/>
     <use xlink:href="#DejaVuSans-31" transform="translate(3959.786455 0.015625)"/>
     <use xlink:href="#DejaVuSans-Oblique-43" transform="translate(4104.586909 0.015625)"/>
     <use xlink:href="#DejaVuSans-Oblique-6f" transform="translate(4174.411128 0.015625)"/>
     <use xlink:href="#DejaVuSans-3d" transform="translate(4255.07519 0.015625)"/>
     <use xlink:href="#DejaVuSans-30" transform="translate(4358.346675 0.015625)"/>
     <use xlink:href="#DejaVuSans-2e" transform="translate(4421.969722 0.015625)"/>
     <use xlink:href="#DejaVuSans-36" transform="translate(4453.756831 0.015625)"/>
     <use xlink:href="#DejaVuSans-38" transform="translate(4517.379878 0.015625)"/>
     <use xlink:href="#DejaVuSans-30" transform="translate(4581.002925 0.015625)"/>
     <use xlink:href="#DejaVuSans-38" transform="translate(4644.625972 0.015625)"/>
     <use xlink:href="#DejaVuSans-38" transform="translate(4708.249019 0.015625)"/>
     <use xlink:href="#DejaVuSans-35" transform="translate(4771.872065 0.015625)"/>
     <use xlink:href="#DejaVuSans-35" transform="translate(4835.495112 0.015625)"/>
     <use xlink:href="#DejaVuSans-34" transform="translate(4899.118159 0.015625)"/>
     <use xlink:href="#DejaVuSans-30" transform="translate(4962.741206 0.015625)"/>
     <use xlink:href="#DejaVuSans-37" transform="translate(5026.364253 0.015625)"/>
     <use xlink:href="#DejaVuSans-35" transform="translate(5089.9873 0.015625)"/>
     <use xlink:href="#DejaVuSans-31" transform="translate(5153.610347 0.015625)"/>
     <use xlink:href="#DejaVuSans-33" transform="translate(5217.233394 0.015625)"/>
     <use xlink:href="#DejaVuSans-31" transform="translate(5280.85644 0.015625)"/>
     <use xlink:href="#DejaVuSans-30" transform="translate(5344.479487 0.015625)"/>
     <use xlink:href="#DejaVuSans-35" transform="translate(5408.102534 0.015625)"/>
    </g>
   </g>
   <g id="legend_1">
    <g id="patch_7">
     <path d="M 1083.708437 121.59625 
L 1237.16 121.59625 
Q 1239.16 121.59625 1239.16 119.59625 
L 1239.16 91.24 
Q 1239.16 89.24 1237.16 89.24 
L 1083.708437 89.24 
Q 1081.708437 89.24 1081.708437 91.24 
L 1081.708437 119.59625 
Q 1081.708437 121.59625 1083.708437 121.59625 
z
" style="fill: #ffffff; opacity: 0.8; stroke: #cccccc; stroke-linejoin: miter"/>
    </g>
    <g id="line2d_18">
     <path d="M 1085.708437 97.338438 
L 1095.708437 97.338438 
L 1105.708437 97.338438 
" style="fill: none; stroke: #0000ff; stroke-width: 1.5; stroke-linecap: square"/>
    </g>
    <g id="text_21">
     <!-- Mean prediction -->
     <g transform="translate(1113.708437 100.838438)scale(0.1 -0.1)">
      <defs>
       <path id="DejaVuSans-4d" d="M 628 4666 
L 1569 4666 
L 2759 1491 
L 3956 4666 
L 4897 4666 
L 4897 0 
L 4281 0 
L 4281 4097 
L 3078 897 
L 2444 897 
L 1241 4097 
L 1241 0 
L 628 0 
L 628 4666 
z
" transform="scale(0.015625)"/>
       <path id="DejaVuSans-65" d="M 3597 1894 
L 3597 1613 
L 953 1613 
Q 991 1019 1311 708 
Q 1631 397 2203 397 
Q 2534 397 2845 478 
Q 3156 559 3463 722 
L 3463 178 
Q 3153 47 2828 -22 
Q 2503 -91 2169 -91 
Q 1331 -91 842 396 
Q 353 884 353 1716 
Q 353 2575 817 3079 
Q 1281 3584 2069 3584 
Q 2775 3584 3186 3129 
Q 3597 2675 3597 1894 
z
M 3022 2063 
Q 3016 2534 2758 2815 
Q 2500 3097 2075 3097 
Q 1594 3097 1305 2825 
Q 1016 2553 972 2059 
L 3022 2063 
z
" transform="scale(0.015625)"/>
       <path id="DejaVuSans-61" d="M 2194 1759 
Q 1497 1759 1228 1600 
Q 959 1441 959 1056 
Q 959 750 1161 570 
Q 1363 391 1709 391 
Q 2188 391 2477 730 
Q 2766 1069 2766 1631 
L 2766 1759 
L 2194 1759 
z
M 3341 1997 
L 3341 0 
L 2766 0 
L 2766 531 
Q 2569 213 2275 61 
Q 1981 -91 1556 -91 
Q 1019 -91 701 211 
Q 384 513 384 1019 
Q 384 1609 779 1909 
Q 1175 2209 1959 2209 
L 2766 2209 
L 2766 2266 
Q 2766 2663 2505 2880 
Q 2244 3097 1772 3097 
Q 1472 3097 1187 3025 
Q 903 2953 641 2809 
L 641 3341 
Q 956 3463 1253 3523 
Q 1550 3584 1831 3584 
Q 2591 3584 2966 3190 
Q 3341 2797 3341 1997 
z
" transform="scale(0.015625)"/>
       <path id="DejaVuSans-6e" d="M 3513 2113 
L 3513 0 
L 2938 0 
L 2938 2094 
Q 2938 2591 2744 2837 
Q 2550 3084 2163 3084 
Q 1697 3084 1428 2787 
Q 1159 2491 1159 1978 
L 1159 0 
L 581 0 
L 581 3500 
L 1159 3500 
L 1159 2956 
Q 1366 3272 1645 3428 
Q 1925 3584 2291 3584 
Q 2894 3584 3203 3211 
Q 3513 2838 3513 2113 
z
" transform="scale(0.015625)"/>
       <path id="DejaVuSans-20" transform="scale(0.015625)"/>
       <path id="DejaVuSans-70" d="M 1159 525 
L 1159 -1331 
L 581 -1331 
L 581 3500 
L 1159 3500 
L 1159 2969 
Q 1341 3281 1617 3432 
Q 1894 3584 2278 3584 
Q 2916 3584 3314 3078 
Q 3713 2572 3713 1747 
Q 3713 922 3314 415 
Q 2916 -91 2278 -91 
Q 1894 -91 1617 61 
Q 1341 213 1159 525 
z
M 3116 1747 
Q 3116 2381 2855 2742 
Q 2594 3103 2138 3103 
Q 1681 3103 1420 2742 
Q 1159 2381 1159 1747 
Q 1159 1113 1420 752 
Q 1681 391 2138 391 
Q 2594 391 2855 752 
Q 3116 1113 3116 1747 
z
" transform="scale(0.015625)"/>
       <path id="DejaVuSans-72" d="M 2631 2963 
Q 2534 3019 2420 3045 
Q 2306 3072 2169 3072 
Q 1681 3072 1420 2755 
Q 1159 2438 1159 1844 
L 1159 0 
L 581 0 
L 581 3500 
L 1159 3500 
L 1159 2956 
Q 1341 3275 1631 3429 
Q 1922 3584 2338 3584 
Q 2397 3584 2469 3576 
Q 2541 3569 2628 3553 
L 2631 2963 
z
" transform="scale(0.015625)"/>
       <path id="DejaVuSans-64" d="M 2906 2969 
L 2906 4863 
L 3481 4863 
L 3481 0 
L 2906 0 
L 2906 525 
Q 2725 213 2448 61 
Q 2172 -91 1784 -91 
Q 1150 -91 751 415 
Q 353 922 353 1747 
Q 353 2572 751 3078 
Q 1150 3584 1784 3584 
Q 2172 3584 2448 3432 
Q 2725 3281 2906 2969 
z
M 947 1747 
Q 947 1113 1208 752 
Q 1469 391 1925 391 
Q 2381 391 2643 752 
Q 2906 1113 2906 1747 
Q 2906 2381 2643 2742 
Q 2381 3103 1925 3103 
Q 1469 3103 1208 2742 
Q 947 2381 947 1747 
z
" transform="scale(0.015625)"/>
       <path id="DejaVuSans-69" d="M 603 3500 
L 1178 3500 
L 1178 0 
L 603 0 
L 603 3500 
z
M 603 4863 
L 1178 4863 
L 1178 4134 
L 603 4134 
L 603 4863 
z
" transform="scale(0.015625)"/>
       <path id="DejaVuSans-63" d="M 3122 3366 
L 3122 2828 
Q 2878 2963 2633 3030 
Q 2388 3097 2138 3097 
Q 1578 3097 1268 2742 
Q 959 2388 959 1747 
Q 959 1106 1268 751 
Q 1578 397 2138 397 
Q 2388 397 2633 464 
Q 2878 531 3122 666 
L 3122 134 
Q 2881 22 2623 -34 
Q 2366 -91 2075 -91 
Q 1284 -91 818 406 
Q 353 903 353 1747 
Q 353 2603 823 3093 
Q 1294 3584 2113 3584 
Q 2378 3584 2631 3529 
Q 2884 3475 3122 3366 
z
" transform="scale(0.015625)"/>
       <path id="DejaVuSans-74" d="M 1172 4494 
L 1172 3500 
L 2356 3500 
L 2356 3053 
L 1172 3053 
L 1172 1153 
Q 1172 725 1289 603 
Q 1406 481 1766 481 
L 2356 481 
L 2356 0 
L 1766 0 
Q 1100 0 847 248 
Q 594 497 594 1153 
L 594 3053 
L 172 3053 
L 172 3500 
L 594 3500 
L 594 4494 
L 1172 4494 
z
" transform="scale(0.015625)"/>
       <path id="DejaVuSans-6f" d="M 1959 3097 
Q 1497 3097 1228 2736 
Q 959 2375 959 1747 
Q 959 1119 1226 758 
Q 1494 397 1959 397 
Q 2419 397 2687 759 
Q 2956 1122 2956 1747 
Q 2956 2369 2687 2733 
Q 2419 3097 1959 3097 
z
M 1959 3584 
Q 2709 3584 3137 3096 
Q 3566 2609 3566 1747 
Q 3566 888 3137 398 
Q 2709 -91 1959 -91 
Q 1206 -91 779 398 
Q 353 888 353 1747 
Q 353 2609 779 3096 
Q 1206 3584 1959 3584 
z
" transform="scale(0.015625)"/>
      </defs>
      <use xlink:href="#DejaVuSans-4d"/>
      <use xlink:href="#DejaVuSans-65" x="86.279297"/>
      <use xlink:href="#DejaVuSans-61" x="147.802734"/>
      <use xlink:href="#DejaVuSans-6e" x="209.082031"/>
      <use xlink:href="#DejaVuSans-20" x="272.460938"/>
      <use xlink:href="#DejaVuSans-70" x="304.248047"/>
      <use xlink:href="#DejaVuSans-72" x="367.724609"/>
      <use xlink:href="#DejaVuSans-65" x="406.587891"/>
      <use xlink:href="#DejaVuSans-64" x="468.111328"/>
      <use xlink:href="#DejaVuSans-69" x="531.587891"/>
      <use xlink:href="#DejaVuSans-63" x="559.371094"/>
      <use xlink:href="#DejaVuSans-74" x="614.351562"/>
      <use xlink:href="#DejaVuSans-69" x="653.560547"/>
      <use xlink:href="#DejaVuSans-6f" x="681.34375"/>
      <use xlink:href="#DejaVuSans-6e" x="742.525391"/>
     </g>
    </g>
    <g id="patch_8">
     <path d="M 1085.708437 115.516563 
L 1105.708437 115.516563 
L 1105.708437 108.516563 
L 1085.708437 108.516563 
z
" style="fill: #ffa500; fill-opacity: 0.3; stroke: #ffa500; stroke-opacity: 0.3; stroke-linejoin: miter"/>
    </g>
    <g id="text_22">
     <!-- 95% confidence interval -->
     <g transform="translate(1113.708437 115.516563)scale(0.1 -0.1)">
      <defs>
       <path id="DejaVuSans-25" d="M 4653 2053 
Q 4381 2053 4226 1822 
Q 4072 1591 4072 1178 
Q 4072 772 4226 539 
Q 4381 306 4653 306 
Q 4919 306 5073 539 
Q 5228 772 5228 1178 
Q 5228 1588 5073 1820 
Q 4919 2053 4653 2053 
z
M 4653 2450 
Q 5147 2450 5437 2106 
Q 5728 1763 5728 1178 
Q 5728 594 5436 251 
Q 5144 -91 4653 -91 
Q 4153 -91 3862 251 
Q 3572 594 3572 1178 
Q 3572 1766 3864 2108 
Q 4156 2450 4653 2450 
z
M 1428 4353 
Q 1159 4353 1004 4120 
Q 850 3888 850 3481 
Q 850 3069 1003 2837 
Q 1156 2606 1428 2606 
Q 1700 2606 1854 2837 
Q 2009 3069 2009 3481 
Q 2009 3884 1853 4118 
Q 1697 4353 1428 4353 
z
M 4250 4750 
L 4750 4750 
L 1831 -91 
L 1331 -91 
L 4250 4750 
z
M 1428 4750 
Q 1922 4750 2215 4408 
Q 2509 4066 2509 3481 
Q 2509 2891 2217 2550 
Q 1925 2209 1428 2209 
Q 931 2209 642 2551 
Q 353 2894 353 3481 
Q 353 4063 643 4406 
Q 934 4750 1428 4750 
z
" transform="scale(0.015625)"/>
       <path id="DejaVuSans-66" d="M 2375 4863 
L 2375 4384 
L 1825 4384 
Q 1516 4384 1395 4259 
Q 1275 4134 1275 3809 
L 1275 3500 
L 2222 3500 
L 2222 3053 
L 1275 3053 
L 1275 0 
L 697 0 
L 697 3053 
L 147 3053 
L 147 3500 
L 697 3500 
L 697 3744 
Q 697 4328 969 4595 
Q 1241 4863 1831 4863 
L 2375 4863 
z
" transform="scale(0.015625)"/>
       <path id="DejaVuSans-76" d="M 191 3500 
L 800 3500 
L 1894 563 
L 2988 3500 
L 3597 3500 
L 2284 0 
L 1503 0 
L 191 3500 
z
" transform="scale(0.015625)"/>
       <path id="DejaVuSans-6c" d="M 603 4863 
L 1178 4863 
L 1178 0 
L 603 0 
L 603 4863 
z
" transform="scale(0.015625)"/>
      </defs>
      <use xlink:href="#DejaVuSans-39"/>
      <use xlink:href="#DejaVuSans-35" x="63.623047"/>
      <use xlink:href="#DejaVuSans-25" x="127.246094"/>
      <use xlink:href="#DejaVuSans-20" x="222.265625"/>
      <use xlink:href="#DejaVuSans-63" x="254.052734"/>
      <use xlink:href="#DejaVuSans-6f" x="309.033203"/>
      <use xlink:href="#DejaVuSans-6e" x="370.214844"/>
      <use xlink:href="#DejaVuSans-66" x="433.59375"/>
      <use xlink:href="#DejaVuSans-69" x="468.798828"/>
      <use xlink:href="#DejaVuSans-64" x="496.582031"/>
      <use xlink:href="#DejaVuSans-65" x="560.058594"/>
      <use xlink:href="#DejaVuSans-6e" x="621.582031"/>
      <use xlink:href="#DejaVuSans-63" x="684.960938"/>
      <use xlink:href="#DejaVuSans-65" x="739.941406"/>
      <use xlink:href="#DejaVuSans-20" x="801.464844"/>
      <use xlink:href="#DejaVuSans-69" x="833.251953"/>
      <use xlink:href="#DejaVuSans-6e" x="861.035156"/>
      <use xlink:href="#DejaVuSans-74" x="924.414062"/>
      <use xlink:href="#DejaVuSans-65" x="963.623047"/>
      <use xlink:href="#DejaVuSans-72" x="1025.146484"/>
      <use xlink:href="#DejaVuSans-76" x="1066.259766"/>
      <use xlink:href="#DejaVuSans-61" x="1125.439453"/>
      <use xlink:href="#DejaVuSans-6c" x="1186.71875"/>
     </g>
    </g>
   </g>
  </g>
  <g id="text_23">
   <!-- Data-driven turbine design -->
   <g transform="translate(610.410937 23.158125)scale(0.12 -0.12)">
    <defs>
     <path id="DejaVuSans-44" d="M 1259 4147 
L 1259 519 
L 2022 519 
Q 2988 519 3436 956 
Q 3884 1394 3884 2338 
Q 3884 3275 3436 3711 
Q 2988 4147 2022 4147 
L 1259 4147 
z
M 628 4666 
L 1925 4666 
Q 3281 4666 3915 4102 
Q 4550 3538 4550 2338 
Q 4550 1131 3912 565 
Q 3275 0 1925 0 
L 628 0 
L 628 4666 
z
" transform="scale(0.015625)"/>
     <path id="DejaVuSans-2d" d="M 313 2009 
L 1997 2009 
L 1997 1497 
L 313 1497 
L 313 2009 
z
" transform="scale(0.015625)"/>
     <path id="DejaVuSans-75" d="M 544 1381 
L 544 3500 
L 1119 3500 
L 1119 1403 
Q 1119 906 1312 657 
Q 1506 409 1894 409 
Q 2359 409 2629 706 
Q 2900 1003 2900 1516 
L 2900 3500 
L 3475 3500 
L 3475 0 
L 2900 0 
L 2900 538 
Q 2691 219 2414 64 
Q 2138 -91 1772 -91 
Q 1169 -91 856 284 
Q 544 659 544 1381 
z
M 1991 3584 
L 1991 3584 
z
" transform="scale(0.015625)"/>
     <path id="DejaVuSans-62" d="M 3116 1747 
Q 3116 2381 2855 2742 
Q 2594 3103 2138 3103 
Q 1681 3103 1420 2742 
Q 1159 2381 1159 1747 
Q 1159 1113 1420 752 
Q 1681 391 2138 391 
Q 2594 391 2855 752 
Q 3116 1113 3116 1747 
z
M 1159 2969 
Q 1341 3281 1617 3432 
Q 1894 3584 2278 3584 
Q 2916 3584 3314 3078 
Q 3713 2572 3713 1747 
Q 3713 922 3314 415 
Q 2916 -91 2278 -91 
Q 1894 -91 1617 61 
Q 1341 213 1159 525 
L 1159 0 
L 581 0 
L 581 4863 
L 1159 4863 
L 1159 2969 
z
" transform="scale(0.015625)"/>
     <path id="DejaVuSans-73" d="M 2834 3397 
L 2834 2853 
Q 2591 2978 2328 3040 
Q 2066 3103 1784 3103 
Q 1356 3103 1142 2972 
Q 928 2841 928 2578 
Q 928 2378 1081 2264 
Q 1234 2150 1697 2047 
L 1894 2003 
Q 2506 1872 2764 1633 
Q 3022 1394 3022 966 
Q 3022 478 2636 193 
Q 2250 -91 1575 -91 
Q 1294 -91 989 -36 
Q 684 19 347 128 
L 347 722 
Q 666 556 975 473 
Q 1284 391 1588 391 
Q 1994 391 2212 530 
Q 2431 669 2431 922 
Q 2431 1156 2273 1281 
Q 2116 1406 1581 1522 
L 1381 1569 
Q 847 1681 609 1914 
Q 372 2147 372 2553 
Q 372 3047 722 3315 
Q 1072 3584 1716 3584 
Q 2034 3584 2315 3537 
Q 2597 3491 2834 3397 
z
" transform="scale(0.015625)"/>
     <path id="DejaVuSans-67" d="M 2906 1791 
Q 2906 2416 2648 2759 
Q 2391 3103 1925 3103 
Q 1463 3103 1205 2759 
Q 947 2416 947 1791 
Q 947 1169 1205 825 
Q 1463 481 1925 481 
Q 2391 481 2648 825 
Q 2906 1169 2906 1791 
z
M 3481 434 
Q 3481 -459 3084 -895 
Q 2688 -1331 1869 -1331 
Q 1566 -1331 1297 -1286 
Q 1028 -1241 775 -1147 
L 775 -588 
Q 1028 -725 1275 -790 
Q 1522 -856 1778 -856 
Q 2344 -856 2625 -561 
Q 2906 -266 2906 331 
L 2906 616 
Q 2728 306 2450 153 
Q 2172 0 1784 0 
Q 1141 0 747 490 
Q 353 981 353 1791 
Q 353 2603 747 3093 
Q 1141 3584 1784 3584 
Q 2172 3584 2450 3431 
Q 2728 3278 2906 2969 
L 2906 3500 
L 3481 3500 
L 3481 434 
z
" transform="scale(0.015625)"/>
    </defs>
    <use xlink:href="#DejaVuSans-44"/>
    <use xlink:href="#DejaVuSans-61" x="77.001953"/>
    <use xlink:href="#DejaVuSans-74" x="138.28125"/>
    <use xlink:href="#DejaVuSans-61" x="177.490234"/>
    <use xlink:href="#DejaVuSans-2d" x="238.769531"/>
    <use xlink:href="#DejaVuSans-64" x="274.853516"/>
    <use xlink:href="#DejaVuSans-72" x="338.330078"/>
    <use xlink:href="#DejaVuSans-69" x="379.443359"/>
    <use xlink:href="#DejaVuSans-76" x="407.226562"/>
    <use xlink:href="#DejaVuSans-65" x="466.40625"/>
    <use xlink:href="#DejaVuSans-6e" x="527.929688"/>
    <use xlink:href="#DejaVuSans-20" x="591.308594"/>
    <use xlink:href="#DejaVuSans-74" x="623.095703"/>
    <use xlink:href="#DejaVuSans-75" x="662.304688"/>
    <use xlink:href="#DejaVuSans-72" x="725.683594"/>
    <use xlink:href="#DejaVuSans-62" x="766.796875"/>
    <use xlink:href="#DejaVuSans-69" x="830.273438"/>
    <use xlink:href="#DejaVuSans-6e" x="858.056641"/>
    <use xlink:href="#DejaVuSans-65" x="921.435547"/>
    <use xlink:href="#DejaVuSans-20" x="982.958984"/>
    <use xlink:href="#DejaVuSans-64" x="1014.746094"/>
    <use xlink:href="#DejaVuSans-65" x="1078.222656"/>
    <use xlink:href="#DejaVuSans-73" x="1139.746094"/>
    <use xlink:href="#DejaVuSans-69" x="1191.845703"/>
    <use xlink:href="#DejaVuSans-67" x="1219.628906"/>
    <use xlink:href="#DejaVuSans-6e" x="1283.105469"/>
   </g>
  </g>
 </g>
 <defs>
  <clipPath id="pcf15c9d039">
   <rect x="172.8" y="84.24" width="1071.36" height="540.54"/>
  </clipPath>
 </defs>
</svg>
