<?xml version="1.0" encoding="utf-8" standalone="no"?>
<!DOCTYPE svg PUBLIC "-//W3C//DTD SVG 1.1//EN"
  "http://www.w3.org/Graphics/SVG/1.1/DTD/svg11.dtd">
<svg xmlns:xlink="http://www.w3.org/1999/xlink" width="1382.4pt" height="702pt" viewBox="0 0 1382.4 702" xmlns="http://www.w3.org/2000/svg" version="1.1">
 <metadata>
  <rdf:RDF xmlns:dc="http://purl.org/dc/elements/1.1/" xmlns:cc="http://creativecommons.org/ns#" xmlns:rdf="http://www.w3.org/1999/02/22-rdf-syntax-ns#">
   <cc:Work>
    <dc:type rdf:resource="http://purl.org/dc/dcmitype/StillImage"/>
    <dc:date>2022-10-24T17:01:50.034266</dc:date>
    <dc:format>image/svg+xml</dc:format>
    <dc:creator>
     <cc:Agent>
      <dc:title>Matplotlib v3.5.3, https://matplotlib.org/</dc:title>
     </cc:Agent>
    </dc:creator>
   </cc:Work>
  </rdf:RDF>
 </metadata>
 <defs>
  <style type="text/css">*{stroke-linejoin: round; stroke-linecap: butt}</style>
 </defs>
 <g id="figure_1">
  <g id="patch_1">
   <path d="M 0 702 
L 1382.4 702 
L 1382.4 0 
L 0 0 
z
" style="fill: #ffffff"/>
  </g>
  <g id="axes_1">
   <g id="patch_2">
    <path d="M 172.8 624.78 
L 1244.16 624.78 
L 1244.16 84.24 
L 172.8 84.24 
z
" style="fill: #ffffff"/>
   </g>
   <g id="PolyCollection_1">
    <defs>
     <path id="m3432f52393" d="M 172.8 -283.812019 
L 172.8 -101.79 
L 174.947014 -105.373632 
L 177.094028 -108.946002 
L 179.241042 -112.506937 
L 181.388056 -116.056263 
L 183.53507 -119.5938 
L 185.682084 -123.119367 
L 187.829098 -126.632777 
L 189.976112 -130.133842 
L 192.123126 -133.622371 
L 194.27014 -137.098168 
L 196.417154 -140.561035 
L 198.564168 -144.010772 
L 200.711182 -147.447174 
L 202.858196 -150.870038 
L 205.00521 -154.279153 
L 207.152224 -157.67431 
L 209.299238 -161.055297 
L 211.446253 -164.421899 
L 213.593267 -167.773902 
L 215.740281 -171.111088 
L 217.887295 -174.433242 
L 220.034309 -177.740145 
L 222.181323 -181.03158 
L 224.328337 -184.307328 
L 226.475351 -187.567175 
L 228.622365 -190.810903 
L 230.769379 -194.038299 
L 232.916393 -197.249151 
L 235.063407 -200.443249 
L 237.210421 -203.620387 
L 239.357435 -206.780363 
L 241.504449 -209.922977 
L 243.651463 -213.048036 
L 245.798477 -216.15535 
L 247.945491 -219.244739 
L 250.092505 -222.316024 
L 252.239519 -225.369038 
L 254.386533 -228.403619 
L 256.533547 -231.419614 
L 258.680561 -234.416881 
L 260.827575 -237.395284 
L 262.974589 -240.3547 
L 265.121603 -243.295017 
L 267.268617 -246.216134 
L 269.415631 -249.117961 
L 271.562645 -252.000423 
L 273.709659 -254.863456 
L 275.856673 -257.707012 
L 278.003687 -260.531054 
L 280.150701 -263.335564 
L 282.297715 -266.120536 
L 284.444729 -268.88598 
L 286.591743 -271.631921 
L 288.738758 -274.358402 
L 290.885772 -277.065482 
L 293.032786 -279.753233 
L 295.1798 -282.421747 
L 297.326814 -285.071132 
L 299.473828 -287.701509 
L 301.620842 -290.31302 
L 303.767856 -292.90582 
L 305.91487 -295.48008 
L 308.061884 -298.035987 
L 310.208898 -300.573743 
L 312.355912 -303.093565 
L 314.502926 -305.595684 
L 316.64994 -308.080344 
L 318.796954 -310.547802 
L 320.943968 -312.998327 
L 323.090982 -315.432202 
L 325.237996 -317.849718 
L 327.38501 -320.251176 
L 329.532024 -322.636889 
L 331.679038 -325.007174 
L 333.826052 -327.362359 
L 335.973066 -329.702776 
L 338.12008 -332.028764 
L 340.267094 -334.340666 
L 342.414108 -336.638828 
L 344.561122 -338.923599 
L 346.708136 -341.195329 
L 348.85515 -343.454369 
L 351.002164 -345.70107 
L 353.149178 -347.935781 
L 355.296192 -350.158849 
L 357.443206 -352.370618 
L 359.59022 -354.571428 
L 361.737234 -356.761614 
L 363.884248 -358.941506 
L 366.031263 -361.111426 
L 368.178277 -363.27169 
L 370.325291 -365.422607 
L 372.472305 -367.564476 
L 374.619319 -369.697587 
L 376.766333 -371.822221 
L 378.913347 -373.938647 
L 381.060361 -376.047126 
L 383.207375 -378.147905 
L 385.354389 -380.24122 
L 387.501403 -382.327297 
L 389.648417 -384.406346 
L 391.795431 -386.478567 
L 393.942445 -388.544144 
L 396.089459 -390.603252 
L 398.236473 -392.656048 
L 400.383487 -394.702676 
L 402.530501 -396.743269 
L 404.677515 -398.777942 
L 406.824529 -400.806798 
L 408.971543 -402.829925 
L 411.118557 -404.847396 
L 413.265571 -406.85927 
L 415.412585 -408.865591 
L 417.559599 -410.866389 
L 419.706613 -412.861678 
L 421.853627 -414.851458 
L 424.000641 -416.835716 
L 426.147655 -418.814422 
L 428.294669 -420.787532 
L 430.441683 -422.754988 
L 432.588697 -424.716717 
L 434.735711 -426.672631 
L 436.882725 -428.62263 
L 439.029739 -430.566598 
L 441.176754 -432.504403 
L 443.323768 -434.435902 
L 445.470782 -436.360937 
L 447.617796 -438.279336 
L 449.76481 -440.190912 
L 451.911824 -442.095466 
L 454.058838 -443.992785 
L 456.205852 -445.882642 
L 458.352866 -447.764797 
L 460.49988 -449.638997 
L 462.646894 -451.504976 
L 464.793908 -453.362454 
L 466.940922 -455.211139 
L 469.087936 -457.050727 
L 471.23495 -458.8809 
L 473.381964 -460.70133 
L 475.528978 -462.511673 
L 477.675992 -464.311578 
L 479.823006 -466.100677 
L 481.97002 -467.878594 
L 484.117034 -469.64494 
L 486.264048 -471.399315 
L 488.411062 -473.141307 
L 490.558076 -474.870495 
L 492.70509 -476.586447 
L 494.852104 -478.288717 
L 496.999118 -479.976855 
L 499.146132 -481.650395 
L 501.293146 -483.308866 
L 503.44016 -484.951786 
L 505.587174 -486.578663 
L 507.734188 -488.188999 
L 509.881202 -489.782285 
L 512.028216 -491.358007 
L 514.17523 -492.915642 
L 516.322244 -494.454662 
L 518.469259 -495.974532 
L 520.616273 -497.474713 
L 522.763287 -498.95466 
L 524.910301 -500.413828 
L 527.057315 -501.851665 
L 529.204329 -503.267621 
L 531.351343 -504.661145 
L 533.498357 -506.031689 
L 535.645371 -507.378706 
L 537.792385 -508.701655 
L 539.939399 -510 
L 542.086413 -511.273218 
L 544.233427 -512.520794 
L 546.380441 -513.742227 
L 548.527455 -514.937033 
L 550.674469 -516.10475 
L 552.821483 -517.244936 
L 554.968497 -518.357175 
L 557.115511 -519.441082 
L 559.262525 -520.496304 
L 561.409539 -521.522527 
L 563.556553 -522.519474 
L 565.703567 -523.486913 
L 567.850581 -524.42466 
L 569.997595 -525.33258 
L 572.144609 -526.210593 
L 574.291623 -527.05867 
L 576.438637 -527.876845 
L 578.585651 -528.665206 
L 580.732665 -529.423903 
L 582.879679 -530.153144 
L 585.026693 -530.853197 
L 587.173707 -531.524389 
L 589.320721 -532.1671 
L 591.467735 -532.781766 
L 593.614749 -533.368873 
L 595.761764 -533.928956 
L 597.908778 -534.46259 
L 600.055792 -534.970391 
L 602.202806 -535.453011 
L 604.34982 -535.911129 
L 606.496834 -536.345451 
L 608.643848 -536.756704 
L 610.790862 -537.14563 
L 612.937876 -537.51298 
L 615.08489 -537.859515 
L 617.231904 -538.185996 
L 619.378918 -538.493184 
L 621.525932 -538.781833 
L 623.672946 -539.052689 
L 625.81996 -539.306487 
L 627.966974 -539.543945 
L 630.113988 -539.765767 
L 632.261002 -539.972635 
L 634.408016 -540.165212 
L 636.55503 -540.344135 
L 638.702044 -540.510021 
L 640.849058 -540.663459 
L 642.996072 -540.805014 
L 645.143086 -540.935223 
L 647.2901 -541.054597 
L 649.437114 -541.16362 
L 651.584128 -541.26275 
L 653.731142 -541.352417 
L 655.878156 -541.433025 
L 658.02517 -541.504952 
L 660.172184 -541.568549 
L 662.319198 -541.624146 
L 664.466212 -541.672043 
L 666.613226 -541.71252 
L 668.76024 -541.745834 
L 670.907255 -541.772218 
L 673.054269 -541.791883 
L 675.201283 -541.805022 
L 677.348297 -541.811805 
L 679.495311 -541.812383 
L 681.642325 -541.806888 
L 683.789339 -541.795433 
L 685.936353 -541.778115 
L 688.083367 -541.755012 
L 690.230381 -541.726183 
L 692.377395 -541.691673 
L 694.524409 -541.65151 
L 696.671423 -541.605702 
L 698.818437 -541.554246 
L 700.965451 -541.497117 
L 703.112465 -541.434278 
L 705.259479 -541.365672 
L 707.406493 -541.291228 
L 709.553507 -541.210856 
L 711.700521 -541.124449 
L 713.847535 -541.031883 
L 715.994549 -540.933017 
L 718.141563 -540.82769 
L 720.288577 -540.715723 
L 722.435591 -540.59692 
L 724.582605 -540.471063 
L 726.729619 -540.337918 
L 728.876633 -540.197227 
L 731.023647 -540.048716 
L 733.170661 -539.89209 
L 735.317675 -539.727034 
L 737.464689 -539.553213 
L 739.611703 -539.370273 
L 741.758717 -539.177839 
L 743.905731 -538.97552 
L 746.052745 -538.762905 
L 748.19976 -538.539565 
L 750.346774 -538.305057 
L 752.493788 -538.058921 
L 754.640802 -537.800683 
L 756.787816 -537.529856 
L 758.93483 -537.245946 
L 761.081844 -536.948446 
L 763.228858 -536.636846 
L 765.375872 -536.310629 
L 767.522886 -535.96928 
L 769.6699 -535.612284 
L 771.816914 -535.239131 
L 773.963928 -534.84932 
L 776.110942 -534.442359 
L 778.257956 -534.017775 
L 780.40497 -533.57511 
L 782.551984 -533.113933 
L 784.698998 -532.633837 
L 786.846012 -532.134446 
L 788.993026 -531.615421 
L 791.14004 -531.076461 
L 793.287054 -530.517309 
L 795.434068 -529.937752 
L 797.581082 -529.337632 
L 799.728096 -528.716844 
L 801.87511 -528.075338 
L 804.022124 -527.413128 
L 806.169138 -526.730287 
L 808.316152 -526.026953 
L 810.463166 -525.303329 
L 812.61018 -524.559682 
L 814.757194 -523.796342 
L 816.904208 -523.013701 
L 819.051222 -522.212209 
L 821.198236 -521.392372 
L 823.345251 -520.554744 
L 825.492265 -519.699926 
L 827.639279 -518.828557 
L 829.786293 -517.941307 
L 831.933307 -517.038875 
L 834.080321 -516.121977 
L 836.227335 -515.191344 
L 838.374349 -514.247715 
L 840.521363 -513.29183 
L 842.668377 -512.324426 
L 844.815391 -511.346233 
L 846.962405 -510.357972 
L 849.109419 -509.360346 
L 851.256433 -508.354043 
L 853.403447 -507.339733 
L 855.550461 -506.318063 
L 857.697475 -505.289661 
L 859.844489 -504.255129 
L 861.991503 -503.215049 
L 864.138517 -502.169978 
L 866.285531 -501.12045 
L 868.432545 -500.066975 
L 870.579559 -499.010042 
L 872.726573 -497.950116 
L 874.873587 -496.88764 
L 877.020601 -495.823037 
L 879.167615 -494.756708 
L 881.314629 -493.689035 
L 883.461643 -492.620379 
L 885.608657 -491.551083 
L 887.755671 -490.481472 
L 889.902685 -489.411852 
L 892.049699 -488.342511 
L 894.196713 -487.273722 
L 896.343727 -486.20574 
L 898.490741 -485.138803 
L 900.637756 -484.073134 
L 902.78477 -483.008939 
L 904.931784 -481.94641 
L 907.078798 -480.885721 
L 909.225812 -479.827032 
L 911.372826 -478.770487 
L 913.51984 -477.716213 
L 915.666854 -476.664323 
L 917.813868 -475.614912 
L 919.960882 -474.568061 
L 922.107896 -473.523833 
L 924.25491 -472.482274 
L 926.401924 -471.443414 
L 928.548938 -470.407266 
L 930.695952 -469.373824 
L 932.842966 -468.343064 
L 934.98998 -467.314945 
L 937.136994 -466.289406 
L 939.284008 -465.266366 
L 941.431022 -464.245726 
L 943.578036 -463.227366 
L 945.72505 -462.211144 
L 947.872064 -461.196901 
L 950.019078 -460.184452 
L 952.166092 -459.173594 
L 954.313106 -458.164099 
L 956.46012 -457.155719 
L 958.607134 -456.148182 
L 960.754148 -455.141193 
L 962.901162 -454.134435 
L 965.048176 -453.127567 
L 967.19519 -452.120226 
L 969.342204 -451.112025 
L 971.489218 -450.102554 
L 973.636232 -449.09138 
L 975.783246 -448.07805 
L 977.930261 -447.062087 
L 980.077275 -446.042993 
L 982.224289 -445.020252 
L 984.371303 -443.993326 
L 986.518317 -442.961661 
L 988.665331 -441.924685 
L 990.812345 -440.881812 
L 992.959359 -439.832441 
L 995.106373 -438.775961 
L 997.253387 -437.711752 
L 999.400401 -436.639185 
L 1001.547415 -435.557631 
L 1003.694429 -434.466456 
L 1005.841443 -433.36503 
L 1007.988457 -432.252728 
L 1010.135471 -431.128936 
L 1012.282485 -429.99305 
L 1014.429499 -428.844484 
L 1016.576513 -427.682675 
L 1018.723527 -426.507084 
L 1020.870541 -425.3172 
L 1023.017555 -424.112551 
L 1025.164569 -422.892699 
L 1027.311583 -421.65725 
L 1029.458597 -420.40586 
L 1031.605611 -419.138231 
L 1033.752625 -417.854124 
L 1035.899639 -416.553353 
L 1038.046653 -415.235794 
L 1040.193667 -413.901386 
L 1042.340681 -412.550127 
L 1044.487695 -411.182081 
L 1046.634709 -409.797374 
L 1048.781723 -408.396192 
L 1050.928737 -406.978782 
L 1053.075752 -405.545443 
L 1055.222766 -404.09653 
L 1057.36978 -402.632442 
L 1059.516794 -401.153621 
L 1061.663808 -399.660546 
L 1063.810822 -398.153726 
L 1065.957836 -396.633692 
L 1068.10485 -395.100997 
L 1070.251864 -393.556203 
L 1072.398878 -391.999879 
L 1074.545892 -390.432594 
L 1076.692906 -388.854914 
L 1078.83992 -387.267393 
L 1080.986934 -385.670575 
L 1083.133948 -384.064983 
L 1085.280962 -382.451122 
L 1087.427976 -380.82947 
L 1089.57499 -379.200483 
L 1091.722004 -377.564586 
L 1093.869018 -375.922175 
L 1096.016032 -374.273616 
L 1098.163046 -372.619242 
L 1100.31006 -370.959355 
L 1102.457074 -369.294224 
L 1104.604088 -367.624085 
L 1106.751102 -365.949142 
L 1108.898116 -364.269567 
L 1111.04513 -362.5855 
L 1113.192144 -360.89705 
L 1115.339158 -359.204297 
L 1117.486172 -357.507291 
L 1119.633186 -355.806055 
L 1121.7802 -354.100585 
L 1123.927214 -352.39085 
L 1126.074228 -350.676796 
L 1128.221242 -348.958346 
L 1130.368257 -347.2354 
L 1132.515271 -345.507838 
L 1134.662285 -343.775523 
L 1136.809299 -342.038298 
L 1138.956313 -340.295991 
L 1141.103327 -338.548415 
L 1143.250341 -336.79537 
L 1145.397355 -335.036644 
L 1147.544369 -333.272014 
L 1149.691383 -331.501248 
L 1151.838397 -329.724106 
L 1153.985411 -327.940343 
L 1156.132425 -326.149707 
L 1158.279439 -324.351941 
L 1160.426453 -322.546786 
L 1162.573467 -320.733981 
L 1164.720481 -318.913265 
L 1166.867495 -317.084374 
L 1169.014509 -315.247048 
L 1171.161523 -313.401027 
L 1173.308537 -311.546053 
L 1175.455551 -309.681873 
L 1177.602565 -307.808237 
L 1179.749579 -305.924898 
L 1181.896593 -304.031616 
L 1184.043607 -302.128155 
L 1186.190621 -300.214286 
L 1188.337635 -298.289786 
L 1190.484649 -296.354438 
L 1192.631663 -294.408032 
L 1194.778677 -292.450366 
L 1196.925691 -290.481246 
L 1199.072705 -288.500482 
L 1201.219719 -286.507896 
L 1203.366733 -284.503315 
L 1205.513747 -282.486574 
L 1207.660762 -280.457518 
L 1209.807776 -278.415998 
L 1211.95479 -276.361874 
L 1214.101804 -274.295013 
L 1216.248818 -272.21529 
L 1218.395832 -270.122589 
L 1220.542846 -268.016801 
L 1222.68986 -265.897825 
L 1224.836874 -263.765567 
L 1226.983888 -261.619942 
L 1229.130902 -259.46087 
L 1231.277916 -257.288282 
L 1233.42493 -255.102113 
L 1235.571944 -252.902306 
L 1237.718958 -250.688812 
L 1239.865972 -248.461588 
L 1242.012986 -246.220597 
L 1244.16 -243.96581 
L 1244.16 -412.037396 
L 1244.16 -412.037396 
L 1242.012986 -412.977122 
L 1239.865972 -413.924801 
L 1237.718958 -414.880194 
L 1235.571944 -415.843054 
L 1233.42493 -416.813122 
L 1231.277916 -417.790132 
L 1229.130902 -418.773809 
L 1226.983888 -419.763868 
L 1224.836874 -420.760018 
L 1222.68986 -421.761956 
L 1220.542846 -422.769372 
L 1218.395832 -423.78195 
L 1216.248818 -424.799363 
L 1214.101804 -425.821276 
L 1211.95479 -426.84735 
L 1209.807776 -427.877234 
L 1207.660762 -428.910575 
L 1205.513747 -429.947008 
L 1203.366733 -430.986167 
L 1201.219719 -432.027677 
L 1199.072705 -433.071158 
L 1196.925691 -434.116228 
L 1194.778677 -435.162497 
L 1192.631663 -436.209573 
L 1190.484649 -437.257061 
L 1188.337635 -438.304564 
L 1186.190621 -439.351683 
L 1184.043607 -440.398017 
L 1181.896593 -441.443165 
L 1179.749579 -442.486728 
L 1177.602565 -443.528306 
L 1175.455551 -444.567504 
L 1173.308537 -445.603926 
L 1171.161523 -446.637185 
L 1169.014509 -447.666895 
L 1166.867495 -448.692677 
L 1164.720481 -449.714159 
L 1162.573467 -450.730978 
L 1160.426453 -451.742779 
L 1158.279439 -452.749216 
L 1156.132425 -453.749955 
L 1153.985411 -454.744675 
L 1151.838397 -455.733067 
L 1149.691383 -456.714838 
L 1147.544369 -457.689707 
L 1145.397355 -458.657413 
L 1143.250341 -459.617712 
L 1141.103327 -460.570378 
L 1138.956313 -461.515205 
L 1136.809299 -462.452007 
L 1134.662285 -463.380623 
L 1132.515271 -464.300912 
L 1130.368257 -465.212758 
L 1128.221242 -466.116071 
L 1126.074228 -467.010785 
L 1123.927214 -467.896864 
L 1121.7802 -468.774295 
L 1119.633186 -469.6431 
L 1117.486172 -470.503325 
L 1115.339158 -471.355049 
L 1113.192144 -472.198381 
L 1111.04513 -473.033463 
L 1108.898116 -473.860467 
L 1106.751102 -474.6796 
L 1104.604088 -475.4911 
L 1102.457074 -476.295239 
L 1100.31006 -477.092323 
L 1098.163046 -477.88269 
L 1096.016032 -478.666713 
L 1093.869018 -479.444796 
L 1091.722004 -480.217376 
L 1089.57499 -480.984921 
L 1087.427976 -481.74793 
L 1085.280962 -482.506931 
L 1083.133948 -483.262478 
L 1080.986934 -484.015151 
L 1078.83992 -484.765553 
L 1076.692906 -485.514307 
L 1074.545892 -486.26205 
L 1072.398878 -487.009435 
L 1070.251864 -487.757122 
L 1068.10485 -488.505776 
L 1065.957836 -489.25606 
L 1063.810822 -490.008632 
L 1061.663808 -490.764137 
L 1059.516794 -491.523203 
L 1057.36978 -492.286436 
L 1055.222766 -493.054409 
L 1053.075752 -493.827663 
L 1050.928737 -494.606697 
L 1048.781723 -495.391965 
L 1046.634709 -496.183869 
L 1044.487695 -496.982758 
L 1042.340681 -497.788924 
L 1040.193667 -498.602596 
L 1038.046653 -499.423945 
L 1035.899639 -500.253077 
L 1033.752625 -501.090037 
L 1031.605611 -501.934807 
L 1029.458597 -502.787309 
L 1027.311583 -503.647408 
L 1025.164569 -504.514911 
L 1023.017555 -505.389574 
L 1020.870541 -506.271103 
L 1018.723527 -507.159161 
L 1016.576513 -508.053365 
L 1014.429499 -508.953299 
L 1012.282485 -509.858512 
L 1010.135471 -510.768521 
L 1007.988457 -511.682822 
L 1005.841443 -512.600888 
L 1003.694429 -513.522173 
L 1001.547415 -514.446121 
L 999.400401 -515.372162 
L 997.253387 -516.29972 
L 995.106373 -517.228217 
L 992.959359 -518.157073 
L 990.812345 -519.085708 
L 988.665331 -520.013548 
L 986.518317 -520.940024 
L 984.371303 -521.864578 
L 982.224289 -522.786657 
L 980.077275 -523.705725 
L 977.930261 -524.621254 
L 975.783246 -525.532734 
L 973.636232 -526.439667 
L 971.489218 -527.341573 
L 969.342204 -528.237988 
L 967.19519 -529.128465 
L 965.048176 -530.012573 
L 962.901162 -530.889901 
L 960.754148 -531.760055 
L 958.607134 -532.622659 
L 956.46012 -533.477354 
L 954.313106 -534.323802 
L 952.166092 -535.161679 
L 950.019078 -535.990681 
L 947.872064 -536.81052 
L 945.72505 -537.620926 
L 943.578036 -538.421645 
L 941.431022 -539.212439 
L 939.284008 -539.993087 
L 937.136994 -540.763383 
L 934.98998 -541.523134 
L 932.842966 -542.272165 
L 930.695952 -543.010312 
L 928.548938 -543.737427 
L 926.401924 -544.453375 
L 924.25491 -545.158031 
L 922.107896 -545.851287 
L 919.960882 -546.533044 
L 917.813868 -547.203214 
L 915.666854 -547.861724 
L 913.51984 -548.508508 
L 911.372826 -549.143514 
L 909.225812 -549.766699 
L 907.078798 -550.378031 
L 904.931784 -550.977488 
L 902.78477 -551.565058 
L 900.637756 -552.140741 
L 898.490741 -552.704544 
L 896.343727 -553.256488 
L 894.196713 -553.796602 
L 892.049699 -554.324926 
L 889.902685 -554.841513 
L 887.755671 -555.346425 
L 885.608657 -555.839737 
L 883.461643 -556.321538 
L 881.314629 -556.791926 
L 879.167615 -557.251016 
L 877.020601 -557.698936 
L 874.873587 -558.135829 
L 872.726573 -558.561855 
L 870.579559 -558.97719 
L 868.432545 -559.382027 
L 866.285531 -559.77658 
L 864.138517 -560.16108 
L 861.991503 -560.535781 
L 859.844489 -560.900958 
L 857.697475 -561.256908 
L 855.550461 -561.603952 
L 853.403447 -561.942435 
L 851.256433 -562.272729 
L 849.109419 -562.595228 
L 846.962405 -562.910354 
L 844.815391 -563.218553 
L 842.668377 -563.520297 
L 840.521363 -563.816083 
L 838.374349 -564.106431 
L 836.227335 -564.391882 
L 834.080321 -564.672997 
L 831.933307 -564.950355 
L 829.786293 -565.224547 
L 827.639279 -565.496177 
L 825.492265 -565.765854 
L 823.345251 -566.034188 
L 821.198236 -566.301789 
L 819.051222 -566.569257 
L 816.904208 -566.837181 
L 814.757194 -567.10613 
L 812.61018 -567.376654 
L 810.463166 -567.649274 
L 808.316152 -567.92448 
L 806.169138 -568.202728 
L 804.022124 -568.484437 
L 801.87511 -568.769985 
L 799.728096 -569.059707 
L 797.581082 -569.353897 
L 795.434068 -569.652802 
L 793.287054 -569.956627 
L 791.14004 -570.265532 
L 788.993026 -570.579634 
L 786.846012 -570.899005 
L 784.698998 -571.223681 
L 782.551984 -571.553654 
L 780.40497 -571.888883 
L 778.257956 -572.22929 
L 776.110942 -572.574764 
L 773.963928 -572.925167 
L 771.816914 -573.28033 
L 769.6699 -573.640063 
L 767.522886 -574.004152 
L 765.375872 -574.372363 
L 763.228858 -574.744447 
L 761.081844 -575.120139 
L 758.93483 -575.499161 
L 756.787816 -575.881229 
L 754.640802 -576.266046 
L 752.493788 -576.653312 
L 750.346774 -577.042723 
L 748.19976 -577.43397 
L 746.052745 -577.826745 
L 743.905731 -578.220736 
L 741.758717 -578.615635 
L 739.611703 -579.011135 
L 737.464689 -579.406928 
L 735.317675 -579.802713 
L 733.170661 -580.198189 
L 731.023647 -580.593057 
L 728.876633 -580.987025 
L 726.729619 -581.3798 
L 724.582605 -581.771093 
L 722.435591 -582.16062 
L 720.288577 -582.548095 
L 718.141563 -582.933238 
L 715.994549 -583.315767 
L 713.847535 -583.695404 
L 711.700521 -584.071868 
L 709.553507 -584.444882 
L 707.406493 -584.814163 
L 705.259479 -585.179433 
L 703.112465 -585.540407 
L 700.965451 -585.896802 
L 698.818437 -586.24833 
L 696.671423 -586.594701 
L 694.524409 -586.935624 
L 692.377395 -587.2708 
L 690.230381 -587.599933 
L 688.083367 -587.922718 
L 685.936353 -588.238852 
L 683.789339 -588.548025 
L 681.642325 -588.849927 
L 679.495311 -589.144245 
L 677.348297 -589.430664 
L 675.201283 -589.70887 
L 673.054269 -589.978547 
L 670.907255 -590.239381 
L 668.76024 -590.491059 
L 666.613226 -590.733272 
L 664.466212 -590.965713 
L 662.319198 -591.188081 
L 660.172184 -591.400083 
L 658.02517 -591.601432 
L 655.878156 -591.791851 
L 653.731142 -591.971071 
L 651.584128 -592.138839 
L 649.437114 -592.294912 
L 647.2901 -592.439061 
L 645.143086 -592.571074 
L 642.996072 -592.690756 
L 640.849058 -592.797929 
L 638.702044 -592.892432 
L 636.55503 -592.974126 
L 634.408016 -593.042891 
L 632.261002 -593.098626 
L 630.113988 -593.141253 
L 627.966974 -593.170713 
L 625.81996 -593.186968 
L 623.672946 -593.19 
L 621.525932 -593.179809 
L 619.378918 -593.156414 
L 617.231904 -593.119852 
L 615.08489 -593.070172 
L 612.937876 -593.007441 
L 610.790862 -592.931733 
L 608.643848 -592.843134 
L 606.496834 -592.741735 
L 604.34982 -592.627632 
L 602.202806 -592.50092 
L 600.055792 -592.361694 
L 597.908778 -592.210043 
L 595.761764 -592.046049 
L 593.614749 -591.86978 
L 591.467735 -591.681294 
L 589.320721 -591.48063 
L 587.173707 -591.267808 
L 585.026693 -591.042829 
L 582.879679 -590.805669 
L 580.732665 -590.556282 
L 578.585651 -590.294595 
L 576.438637 -590.020513 
L 574.291623 -589.733911 
L 572.144609 -589.434644 
L 569.997595 -589.122539 
L 567.850581 -588.797403 
L 565.703567 -588.459021 
L 563.556553 -588.107158 
L 561.409539 -587.741563 
L 559.262525 -587.361969 
L 557.115511 -586.968097 
L 554.968497 -586.559658 
L 552.821483 -586.136355 
L 550.674469 -585.697886 
L 548.527455 -585.243945 
L 546.380441 -584.774226 
L 544.233427 -584.288422 
L 542.086413 -583.786231 
L 539.939399 -583.267353 
L 537.792385 -582.731497 
L 535.645371 -582.178374 
L 533.498357 -581.607708 
L 531.351343 -581.019228 
L 529.204329 -580.412675 
L 527.057315 -579.787799 
L 524.910301 -579.144362 
L 522.763287 -578.482134 
L 520.616273 -577.800899 
L 518.469259 -577.10045 
L 516.322244 -576.380593 
L 514.17523 -575.641144 
L 512.028216 -574.881931 
L 509.881202 -574.10279 
L 507.734188 -573.303571 
L 505.587174 -572.484132 
L 503.44016 -571.644342 
L 501.293146 -570.78408 
L 499.146132 -569.903233 
L 496.999118 -569.001699 
L 494.852104 -568.079383 
L 492.70509 -567.136198 
L 490.558076 -566.172068 
L 488.411062 -565.186923 
L 486.264048 -564.180699 
L 484.117034 -563.153342 
L 481.97002 -562.104803 
L 479.823006 -561.035041 
L 477.675992 -559.944021 
L 475.528978 -558.831714 
L 473.381964 -557.698098 
L 471.23495 -556.543157 
L 469.087936 -555.36688 
L 466.940922 -554.169261 
L 464.793908 -552.950303 
L 462.646894 -551.710011 
L 460.49988 -550.448397 
L 458.352866 -549.16548 
L 456.205852 -547.861282 
L 454.058838 -546.535832 
L 451.911824 -545.189166 
L 449.76481 -543.821323 
L 447.617796 -542.432349 
L 445.470782 -541.022296 
L 443.323768 -539.591223 
L 441.176754 -538.139194 
L 439.029739 -536.66628 
L 436.882725 -535.172558 
L 434.735711 -533.658111 
L 432.588697 -532.123032 
L 430.441683 -530.567418 
L 428.294669 -528.991375 
L 426.147655 -527.395016 
L 424.000641 -525.778461 
L 421.853627 -524.141841 
L 419.706613 -522.485293 
L 417.559599 -520.808962 
L 415.412585 -519.113004 
L 413.265571 -517.397582 
L 411.118557 -515.66287 
L 408.971543 -513.909052 
L 406.824529 -512.136319 
L 404.677515 -510.344875 
L 402.530501 -508.534934 
L 400.383487 -506.706717 
L 398.236473 -504.860461 
L 396.089459 -502.99641 
L 393.942445 -501.11482 
L 391.795431 -499.21596 
L 389.648417 -497.300107 
L 387.501403 -495.367552 
L 385.354389 -493.418596 
L 383.207375 -491.453552 
L 381.060361 -489.472746 
L 378.913347 -487.476512 
L 376.766333 -485.465199 
L 374.619319 -483.439165 
L 372.472305 -481.398781 
L 370.325291 -479.344427 
L 368.178277 -477.276495 
L 366.031263 -475.195387 
L 363.884248 -473.101517 
L 361.737234 -470.995307 
L 359.59022 -468.877188 
L 357.443206 -466.747603 
L 355.296192 -464.607001 
L 353.149178 -462.45584 
L 351.002164 -460.294585 
L 348.85515 -458.12371 
L 346.708136 -455.943692 
L 344.561122 -453.755016 
L 342.414108 -451.558171 
L 340.267094 -449.35365 
L 338.12008 -447.14195 
L 335.973066 -444.92357 
L 333.826052 -442.69901 
L 331.679038 -440.468773 
L 329.532024 -438.233359 
L 327.38501 -435.993268 
L 325.237996 -433.748999 
L 323.090982 -431.501048 
L 320.943968 -429.249907 
L 318.796954 -426.996061 
L 316.64994 -424.739995 
L 314.502926 -422.482182 
L 312.355912 -420.223092 
L 310.208898 -417.963184 
L 308.061884 -415.702911 
L 305.91487 -413.442713 
L 303.767856 -411.183024 
L 301.620842 -408.924265 
L 299.473828 -406.666844 
L 297.326814 -404.411161 
L 295.1798 -402.157601 
L 293.032786 -399.906536 
L 290.885772 -397.658326 
L 288.738758 -395.413316 
L 286.591743 -393.17184 
L 284.444729 -390.934215 
L 282.297715 -388.700745 
L 280.150701 -386.471721 
L 278.003687 -384.247419 
L 275.856673 -382.0281 
L 273.709659 -379.814012 
L 271.562645 -377.605389 
L 269.415631 -375.402452 
L 267.268617 -373.205406 
L 265.121603 -371.014447 
L 262.974589 -368.829755 
L 260.827575 -366.651498 
L 258.680561 -364.479832 
L 256.533547 -362.314903 
L 254.386533 -360.156843 
L 252.239519 -358.005775 
L 250.092505 -355.861811 
L 247.945491 -353.725054 
L 245.798477 -351.595597 
L 243.651463 -349.473523 
L 241.504449 -347.358909 
L 239.357435 -345.251821 
L 237.210421 -343.152322 
L 235.063407 -341.060464 
L 232.916393 -338.976294 
L 230.769379 -336.899854 
L 228.622365 -334.83118 
L 226.475351 -332.770301 
L 224.328337 -330.717245 
L 222.181323 -328.672033 
L 220.034309 -326.634683 
L 217.887295 -324.60521 
L 215.740281 -322.583626 
L 213.593267 -320.569939 
L 211.446253 -318.564157 
L 209.299238 -316.566283 
L 207.152224 -314.576321 
L 205.00521 -312.594272 
L 202.858196 -310.620136 
L 200.711182 -308.653913 
L 198.564168 -306.6956 
L 196.417154 -304.745196 
L 194.27014 -302.802697 
L 192.123126 -300.868102 
L 189.976112 -298.941408 
L 187.829098 -297.022611 
L 185.682084 -295.11171 
L 183.53507 -293.208702 
L 181.388056 -291.313585 
L 179.241042 -289.426359 
L 177.094028 -287.547022 
L 174.947014 -285.675575 
L 172.8 -283.812019 
z
" style="stroke: #ffa500; stroke-opacity: 0.3"/>
    </defs>
    <g clip-path="url(#pdd31637588)">
     <use xlink:href="#m3432f52393" x="0" y="702" style="fill: #ffa500; fill-opacity: 0.3; stroke: #ffa500; stroke-opacity: 0.3"/>
    </g>
   </g>
   <g id="matplotlib.axis_1">
    <g id="xtick_1">
     <g id="line2d_1">
      <defs>
       <path id="m7336c0ec52" d="M 0 0 
L 0 3.5 
" style="stroke: #000000; stroke-width: 0.8"/>
      </defs>
      <g>
       <use xlink:href="#m7336c0ec52" x="172.8" y="624.78" style="stroke: #000000; stroke-width: 0.8"/>
      </g>
     </g>
     <g id="text_1">
      <!-- 0.4 -->
      <g transform="translate(164.848437 639.378438)scale(0.1 -0.1)">
       <defs>
        <path id="DejaVuSans-30" d="M 2034 4250 
Q 1547 4250 1301 3770 
Q 1056 3291 1056 2328 
Q 1056 1369 1301 889 
Q 1547 409 2034 409 
Q 2525 409 2770 889 
Q 3016 1369 3016 2328 
Q 3016 3291 2770 3770 
Q 2525 4250 2034 4250 
z
M 2034 4750 
Q 2819 4750 3233 4129 
Q 3647 3509 3647 2328 
Q 3647 1150 3233 529 
Q 2819 -91 2034 -91 
Q 1250 -91 836 529 
Q 422 1150 422 2328 
Q 422 3509 836 4129 
Q 1250 4750 2034 4750 
z
" transform="scale(0.015625)"/>
        <path id="DejaVuSans-2e" d="M 684 794 
L 1344 794 
L 1344 0 
L 684 0 
L 684 794 
z
" transform="scale(0.015625)"/>
        <path id="DejaVuSans-34" d="M 2419 4116 
L 825 1625 
L 2419 1625 
L 2419 4116 
z
M 2253 4666 
L 3047 4666 
L 3047 1625 
L 3713 1625 
L 3713 1100 
L 3047 1100 
L 3047 0 
L 2419 0 
L 2419 1100 
L 313 1100 
L 313 1709 
L 2253 4666 
z
" transform="scale(0.015625)"/>
       </defs>
       <use xlink:href="#DejaVuSans-30"/>
       <use xlink:href="#DejaVuSans-2e" x="63.623047"/>
       <use xlink:href="#DejaVuSans-34" x="95.410156"/>
      </g>
     </g>
    </g>
    <g id="xtick_2">
     <g id="line2d_2">
      <g>
       <use xlink:href="#m7336c0ec52" x="306.72" y="624.78" style="stroke: #000000; stroke-width: 0.8"/>
      </g>
     </g>
     <g id="text_2">
      <!-- 0.5 -->
      <g transform="translate(298.768437 639.378438)scale(0.1 -0.1)">
       <defs>
        <path id="DejaVuSans-35" d="M 691 4666 
L 3169 4666 
L 3169 4134 
L 1269 4134 
L 1269 2991 
Q 1406 3038 1543 3061 
Q 1681 3084 1819 3084 
Q 2600 3084 3056 2656 
Q 3513 2228 3513 1497 
Q 3513 744 3044 326 
Q 2575 -91 1722 -91 
Q 1428 -91 1123 -41 
Q 819 9 494 109 
L 494 744 
Q 775 591 1075 516 
Q 1375 441 1709 441 
Q 2250 441 2565 725 
Q 2881 1009 2881 1497 
Q 2881 1984 2565 2268 
Q 2250 2553 1709 2553 
Q 1456 2553 1204 2497 
Q 953 2441 691 2322 
L 691 4666 
z
" transform="scale(0.015625)"/>
       </defs>
       <use xlink:href="#DejaVuSans-30"/>
       <use xlink:href="#DejaVuSans-2e" x="63.623047"/>
       <use xlink:href="#DejaVuSans-35" x="95.410156"/>
      </g>
     </g>
    </g>
    <g id="xtick_3">
     <g id="line2d_3">
      <g>
       <use xlink:href="#m7336c0ec52" x="440.64" y="624.78" style="stroke: #000000; stroke-width: 0.8"/>
      </g>
     </g>
     <g id="text_3">
      <!-- 0.6 -->
      <g transform="translate(432.688437 639.378438)scale(0.1 -0.1)">
       <defs>
        <path id="DejaVuSans-36" d="M 2113 2584 
Q 1688 2584 1439 2293 
Q 1191 2003 1191 1497 
Q 1191 994 1439 701 
Q 1688 409 2113 409 
Q 2538 409 2786 701 
Q 3034 994 3034 1497 
Q 3034 2003 2786 2293 
Q 2538 2584 2113 2584 
z
M 3366 4563 
L 3366 3988 
Q 3128 4100 2886 4159 
Q 2644 4219 2406 4219 
Q 1781 4219 1451 3797 
Q 1122 3375 1075 2522 
Q 1259 2794 1537 2939 
Q 1816 3084 2150 3084 
Q 2853 3084 3261 2657 
Q 3669 2231 3669 1497 
Q 3669 778 3244 343 
Q 2819 -91 2113 -91 
Q 1303 -91 875 529 
Q 447 1150 447 2328 
Q 447 3434 972 4092 
Q 1497 4750 2381 4750 
Q 2619 4750 2861 4703 
Q 3103 4656 3366 4563 
z
" transform="scale(0.015625)"/>
       </defs>
       <use xlink:href="#DejaVuSans-30"/>
       <use xlink:href="#DejaVuSans-2e" x="63.623047"/>
       <use xlink:href="#DejaVuSans-36" x="95.410156"/>
      </g>
     </g>
    </g>
    <g id="xtick_4">
     <g id="line2d_4">
      <g>
       <use xlink:href="#m7336c0ec52" x="574.56" y="624.78" style="stroke: #000000; stroke-width: 0.8"/>
      </g>
     </g>
     <g id="text_4">
      <!-- 0.7 -->
      <g transform="translate(566.608437 639.378438)scale(0.1 -0.1)">
       <defs>
        <path id="DejaVuSans-37" d="M 525 4666 
L 3525 4666 
L 3525 4397 
L 1831 0 
L 1172 0 
L 2766 4134 
L 525 4134 
L 525 4666 
z
" transform="scale(0.015625)"/>
       </defs>
       <use xlink:href="#DejaVuSans-30"/>
       <use xlink:href="#DejaVuSans-2e" x="63.623047"/>
       <use xlink:href="#DejaVuSans-37" x="95.410156"/>
      </g>
     </g>
    </g>
    <g id="xtick_5">
     <g id="line2d_5">
      <g>
       <use xlink:href="#m7336c0ec52" x="708.48" y="624.78" style="stroke: #000000; stroke-width: 0.8"/>
      </g>
     </g>
     <g id="text_5">
      <!-- 0.8 -->
      <g transform="translate(700.528437 639.378438)scale(0.1 -0.1)">
       <defs>
        <path id="DejaVuSans-38" d="M 2034 2216 
Q 1584 2216 1326 1975 
Q 1069 1734 1069 1313 
Q 1069 891 1326 650 
Q 1584 409 2034 409 
Q 2484 409 2743 651 
Q 3003 894 3003 1313 
Q 3003 1734 2745 1975 
Q 2488 2216 2034 2216 
z
M 1403 2484 
Q 997 2584 770 2862 
Q 544 3141 544 3541 
Q 544 4100 942 4425 
Q 1341 4750 2034 4750 
Q 2731 4750 3128 4425 
Q 3525 4100 3525 3541 
Q 3525 3141 3298 2862 
Q 3072 2584 2669 2484 
Q 3125 2378 3379 2068 
Q 3634 1759 3634 1313 
Q 3634 634 3220 271 
Q 2806 -91 2034 -91 
Q 1263 -91 848 271 
Q 434 634 434 1313 
Q 434 1759 690 2068 
Q 947 2378 1403 2484 
z
M 1172 3481 
Q 1172 3119 1398 2916 
Q 1625 2713 2034 2713 
Q 2441 2713 2670 2916 
Q 2900 3119 2900 3481 
Q 2900 3844 2670 4047 
Q 2441 4250 2034 4250 
Q 1625 4250 1398 4047 
Q 1172 3844 1172 3481 
z
" transform="scale(0.015625)"/>
       </defs>
       <use xlink:href="#DejaVuSans-30"/>
       <use xlink:href="#DejaVuSans-2e" x="63.623047"/>
       <use xlink:href="#DejaVuSans-38" x="95.410156"/>
      </g>
     </g>
    </g>
    <g id="xtick_6">
     <g id="line2d_6">
      <g>
       <use xlink:href="#m7336c0ec52" x="842.4" y="624.78" style="stroke: #000000; stroke-width: 0.8"/>
      </g>
     </g>
     <g id="text_6">
      <!-- 0.9 -->
      <g transform="translate(834.448437 639.378438)scale(0.1 -0.1)">
       <defs>
        <path id="DejaVuSans-39" d="M 703 97 
L 703 672 
Q 941 559 1184 500 
Q 1428 441 1663 441 
Q 2288 441 2617 861 
Q 2947 1281 2994 2138 
Q 2813 1869 2534 1725 
Q 2256 1581 1919 1581 
Q 1219 1581 811 2004 
Q 403 2428 403 3163 
Q 403 3881 828 4315 
Q 1253 4750 1959 4750 
Q 2769 4750 3195 4129 
Q 3622 3509 3622 2328 
Q 3622 1225 3098 567 
Q 2575 -91 1691 -91 
Q 1453 -91 1209 -44 
Q 966 3 703 97 
z
M 1959 2075 
Q 2384 2075 2632 2365 
Q 2881 2656 2881 3163 
Q 2881 3666 2632 3958 
Q 2384 4250 1959 4250 
Q 1534 4250 1286 3958 
Q 1038 3666 1038 3163 
Q 1038 2656 1286 2365 
Q 1534 2075 1959 2075 
z
" transform="scale(0.015625)"/>
       </defs>
       <use xlink:href="#DejaVuSans-30"/>
       <use xlink:href="#DejaVuSans-2e" x="63.623047"/>
       <use xlink:href="#DejaVuSans-39" x="95.410156"/>
      </g>
     </g>
    </g>
    <g id="xtick_7">
     <g id="line2d_7">
      <g>
       <use xlink:href="#m7336c0ec52" x="976.32" y="624.78" style="stroke: #000000; stroke-width: 0.8"/>
      </g>
     </g>
     <g id="text_7">
      <!-- 1.0 -->
      <g transform="translate(968.368437 639.378438)scale(0.1 -0.1)">
       <defs>
        <path id="DejaVuSans-31" d="M 794 531 
L 1825 531 
L 1825 4091 
L 703 3866 
L 703 4441 
L 1819 4666 
L 2450 4666 
L 2450 531 
L 3481 531 
L 3481 0 
L 794 0 
L 794 531 
z
" transform="scale(0.015625)"/>
       </defs>
       <use xlink:href="#DejaVuSans-31"/>
       <use xlink:href="#DejaVuSans-2e" x="63.623047"/>
       <use xlink:href="#DejaVuSans-30" x="95.410156"/>
      </g>
     </g>
    </g>
    <g id="xtick_8">
     <g id="line2d_8">
      <g>
       <use xlink:href="#m7336c0ec52" x="1110.24" y="624.78" style="stroke: #000000; stroke-width: 0.8"/>
      </g>
     </g>
     <g id="text_8">
      <!-- 1.1 -->
      <g transform="translate(1102.288437 639.378438)scale(0.1 -0.1)">
       <use xlink:href="#DejaVuSans-31"/>
       <use xlink:href="#DejaVuSans-2e" x="63.623047"/>
       <use xlink:href="#DejaVuSans-31" x="95.410156"/>
      </g>
     </g>
    </g>
    <g id="xtick_9">
     <g id="line2d_9">
      <g>
       <use xlink:href="#m7336c0ec52" x="1244.16" y="624.78" style="stroke: #000000; stroke-width: 0.8"/>
      </g>
     </g>
     <g id="text_9">
      <!-- 1.2 -->
      <g transform="translate(1236.208437 639.378438)scale(0.1 -0.1)">
       <defs>
        <path id="DejaVuSans-32" d="M 1228 531 
L 3431 531 
L 3431 0 
L 469 0 
L 469 531 
Q 828 903 1448 1529 
Q 2069 2156 2228 2338 
Q 2531 2678 2651 2914 
Q 2772 3150 2772 3378 
Q 2772 3750 2511 3984 
Q 2250 4219 1831 4219 
Q 1534 4219 1204 4116 
Q 875 4013 500 3803 
L 500 4441 
Q 881 4594 1212 4672 
Q 1544 4750 1819 4750 
Q 2544 4750 2975 4387 
Q 3406 4025 3406 3419 
Q 3406 3131 3298 2873 
Q 3191 2616 2906 2266 
Q 2828 2175 2409 1742 
Q 1991 1309 1228 531 
z
" transform="scale(0.015625)"/>
       </defs>
       <use xlink:href="#DejaVuSans-31"/>
       <use xlink:href="#DejaVuSans-2e" x="63.623047"/>
       <use xlink:href="#DejaVuSans-32" x="95.410156"/>
      </g>
     </g>
    </g>
    <g id="text_10">
     <!-- $ \phi $ -->
     <g transform="translate(705.18 653.058125)scale(0.1 -0.1)">
      <defs>
       <path id="DejaVuSans-Oblique-3d5" d="M 2991 4863 
L 2738 3572 
Q 3363 3572 3684 3094 
Q 4016 2606 3850 1747 
Q 3681 888 3159 400 
Q 2653 -78 2028 -78 
L 1784 -1331 
L 1213 -1331 
L 1456 -78 
Q 834 -78 509 400 
Q 178 888 347 1747 
Q 513 2606 1034 3094 
Q 1544 3572 2166 3572 
L 2419 4863 
L 2991 4863 
z
M 2128 434 
Q 2481 434 2784 756 
Q 3116 1116 3244 1747 
Q 3369 2372 3169 2738 
Q 2991 3059 2638 3059 
L 2128 434 
z
M 1556 434 
L 2066 3059 
Q 1716 3059 1413 2738 
Q 1072 2372 953 1747 
Q 834 1116 1028 756 
Q 1203 434 1556 434 
z
" transform="scale(0.015625)"/>
      </defs>
      <use xlink:href="#DejaVuSans-Oblique-3d5" transform="translate(0 0.015625)"/>
     </g>
    </g>
   </g>
   <g id="matplotlib.axis_2">
    <g id="ytick_1">
     <g id="line2d_10">
      <defs>
       <path id="m4c37b43057" d="M 0 0 
L -3.5 0 
" style="stroke: #000000; stroke-width: 0.8"/>
      </defs>
      <g>
       <use xlink:href="#m4c37b43057" x="172.8" y="576.607016" style="stroke: #000000; stroke-width: 0.8"/>
      </g>
     </g>
     <g id="text_11">
      <!-- 92.75 -->
      <g transform="translate(137.171875 580.406235)scale(0.1 -0.1)">
       <use xlink:href="#DejaVuSans-39"/>
       <use xlink:href="#DejaVuSans-32" x="63.623047"/>
       <use xlink:href="#DejaVuSans-2e" x="127.246094"/>
       <use xlink:href="#DejaVuSans-37" x="159.033203"/>
       <use xlink:href="#DejaVuSans-35" x="222.65625"/>
      </g>
     </g>
    </g>
    <g id="ytick_2">
     <g id="line2d_11">
      <g>
       <use xlink:href="#m4c37b43057" x="172.8" y="501.854866" style="stroke: #000000; stroke-width: 0.8"/>
      </g>
     </g>
     <g id="text_12">
      <!-- 93.00 -->
      <g transform="translate(137.171875 505.654085)scale(0.1 -0.1)">
       <defs>
        <path id="DejaVuSans-33" d="M 2597 2516 
Q 3050 2419 3304 2112 
Q 3559 1806 3559 1356 
Q 3559 666 3084 287 
Q 2609 -91 1734 -91 
Q 1441 -91 1130 -33 
Q 819 25 488 141 
L 488 750 
Q 750 597 1062 519 
Q 1375 441 1716 441 
Q 2309 441 2620 675 
Q 2931 909 2931 1356 
Q 2931 1769 2642 2001 
Q 2353 2234 1838 2234 
L 1294 2234 
L 1294 2753 
L 1863 2753 
Q 2328 2753 2575 2939 
Q 2822 3125 2822 3475 
Q 2822 3834 2567 4026 
Q 2313 4219 1838 4219 
Q 1578 4219 1281 4162 
Q 984 4106 628 3988 
L 628 4550 
Q 988 4650 1302 4700 
Q 1616 4750 1894 4750 
Q 2613 4750 3031 4423 
Q 3450 4097 3450 3541 
Q 3450 3153 3228 2886 
Q 3006 2619 2597 2516 
z
" transform="scale(0.015625)"/>
       </defs>
       <use xlink:href="#DejaVuSans-39"/>
       <use xlink:href="#DejaVuSans-33" x="63.623047"/>
       <use xlink:href="#DejaVuSans-2e" x="127.246094"/>
       <use xlink:href="#DejaVuSans-30" x="159.033203"/>
       <use xlink:href="#DejaVuSans-30" x="222.65625"/>
      </g>
     </g>
    </g>
    <g id="ytick_3">
     <g id="line2d_12">
      <g>
       <use xlink:href="#m4c37b43057" x="172.8" y="427.102716" style="stroke: #000000; stroke-width: 0.8"/>
      </g>
     </g>
     <g id="text_13">
      <!-- 93.25 -->
      <g transform="translate(137.171875 430.901935)scale(0.1 -0.1)">
       <use xlink:href="#DejaVuSans-39"/>
       <use xlink:href="#DejaVuSans-33" x="63.623047"/>
       <use xlink:href="#DejaVuSans-2e" x="127.246094"/>
       <use xlink:href="#DejaVuSans-32" x="159.033203"/>
       <use xlink:href="#DejaVuSans-35" x="222.65625"/>
      </g>
     </g>
    </g>
    <g id="ytick_4">
     <g id="line2d_13">
      <g>
       <use xlink:href="#m4c37b43057" x="172.8" y="352.350566" style="stroke: #000000; stroke-width: 0.8"/>
      </g>
     </g>
     <g id="text_14">
      <!-- 93.50 -->
      <g transform="translate(137.171875 356.149785)scale(0.1 -0.1)">
       <use xlink:href="#DejaVuSans-39"/>
       <use xlink:href="#DejaVuSans-33" x="63.623047"/>
       <use xlink:href="#DejaVuSans-2e" x="127.246094"/>
       <use xlink:href="#DejaVuSans-35" x="159.033203"/>
       <use xlink:href="#DejaVuSans-30" x="222.65625"/>
      </g>
     </g>
    </g>
    <g id="ytick_5">
     <g id="line2d_14">
      <g>
       <use xlink:href="#m4c37b43057" x="172.8" y="277.598416" style="stroke: #000000; stroke-width: 0.8"/>
      </g>
     </g>
     <g id="text_15">
      <!-- 93.75 -->
      <g transform="translate(137.171875 281.397634)scale(0.1 -0.1)">
       <use xlink:href="#DejaVuSans-39"/>
       <use xlink:href="#DejaVuSans-33" x="63.623047"/>
       <use xlink:href="#DejaVuSans-2e" x="127.246094"/>
       <use xlink:href="#DejaVuSans-37" x="159.033203"/>
       <use xlink:href="#DejaVuSans-35" x="222.65625"/>
      </g>
     </g>
    </g>
    <g id="ytick_6">
     <g id="line2d_15">
      <g>
       <use xlink:href="#m4c37b43057" x="172.8" y="202.846266" style="stroke: #000000; stroke-width: 0.8"/>
      </g>
     </g>
     <g id="text_16">
      <!-- 94.00 -->
      <g transform="translate(137.171875 206.645484)scale(0.1 -0.1)">
       <use xlink:href="#DejaVuSans-39"/>
       <use xlink:href="#DejaVuSans-34" x="63.623047"/>
       <use xlink:href="#DejaVuSans-2e" x="127.246094"/>
       <use xlink:href="#DejaVuSans-30" x="159.033203"/>
       <use xlink:href="#DejaVuSans-30" x="222.65625"/>
      </g>
     </g>
    </g>
    <g id="ytick_7">
     <g id="line2d_16">
      <g>
       <use xlink:href="#m4c37b43057" x="172.8" y="128.094116" style="stroke: #000000; stroke-width: 0.8"/>
      </g>
     </g>
     <g id="text_17">
      <!-- 94.25 -->
      <g transform="translate(137.171875 131.893334)scale(0.1 -0.1)">
       <use xlink:href="#DejaVuSans-39"/>
       <use xlink:href="#DejaVuSans-34" x="63.623047"/>
       <use xlink:href="#DejaVuSans-2e" x="127.246094"/>
       <use xlink:href="#DejaVuSans-32" x="159.033203"/>
       <use xlink:href="#DejaVuSans-35" x="222.65625"/>
      </g>
     </g>
    </g>
    <g id="text_18">
     <!-- $ \eta $ -->
     <g transform="translate(131.071875 357.71)rotate(-90)scale(0.1 -0.1)">
      <defs>
       <path id="DejaVuSans-Oblique-3b7" d="M 3703 2113 
L 3034 -1331 
L 2459 -1331 
L 3125 2094 
Q 3222 2591 3075 2838 
Q 2931 3084 2544 3084 
Q 2078 3084 1750 2788 
Q 1425 2491 1325 1978 
L 941 0 
L 363 0 
L 1044 3500 
L 1622 3500 
L 1516 2956 
Q 1781 3272 2094 3428 
Q 2403 3584 2769 3584 
Q 3372 3584 3609 3213 
Q 3844 2838 3703 2113 
z
" transform="scale(0.015625)"/>
      </defs>
      <use xlink:href="#DejaVuSans-Oblique-3b7"/>
     </g>
    </g>
   </g>
   <g id="line2d_17">
    <path d="M 172.8 509.19899 
L 200.711182 473.949457 
L 224.328337 444.487713 
L 243.651463 420.739221 
L 260.827575 399.976609 
L 275.856673 382.132444 
L 290.885772 364.638096 
L 303.767856 349.955578 
L 316.64994 335.589831 
L 329.532024 321.564876 
L 342.414108 307.901501 
L 355.296192 294.617075 
L 366.031263 283.846593 
L 376.766333 273.35629 
L 387.501403 263.152576 
L 398.236473 253.241746 
L 408.971543 243.630511 
L 419.706613 234.326515 
L 430.441683 225.338797 
L 441.176754 216.678201 
L 451.911824 208.357684 
L 460.49988 201.956303 
L 469.087936 195.791197 
L 477.675992 189.872201 
L 486.264048 184.209993 
L 494.852104 178.81595 
L 503.44016 173.701936 
L 512.028216 168.880031 
L 520.616273 164.362194 
L 529.204329 160.159852 
L 535.645371 157.22146 
L 542.086413 154.470276 
L 548.527455 151.909511 
L 554.968497 149.541584 
L 561.409539 147.367955 
L 567.850581 145.388968 
L 574.291623 143.603709 
L 580.732665 142.009908 
L 587.173707 140.603902 
L 593.614749 139.380673 
L 600.055792 138.333957 
L 608.643848 137.200081 
L 617.231904 136.347076 
L 625.81996 135.753272 
L 634.408016 135.395949 
L 642.996072 135.252115 
L 651.584128 135.299205 
L 662.319198 135.593887 
L 673.054269 136.114785 
L 685.936353 136.991516 
L 698.818437 138.098712 
L 713.847535 139.636356 
L 728.876633 141.407874 
L 743.905731 143.401872 
L 758.93483 145.627446 
L 771.816914 147.740269 
L 784.698998 150.071241 
L 797.581082 152.654236 
L 808.316152 155.024284 
L 819.051222 157.609267 
L 829.786293 160.417073 
L 840.521363 163.446043 
L 851.256433 166.686614 
L 864.138517 170.834471 
L 877.020601 175.239014 
L 889.902685 179.873318 
L 904.931784 185.538051 
L 919.960882 191.449448 
L 934.98998 197.580961 
L 952.166092 204.832364 
L 969.342204 212.324993 
L 986.518317 220.049157 
L 1003.694429 228.005685 
L 1020.870541 236.205848 
L 1038.046653 244.67013 
L 1053.075752 252.313447 
L 1068.10485 260.196613 
L 1083.133948 268.336269 
L 1098.163046 276.749034 
L 1113.192144 285.452285 
L 1126.074228 293.156209 
L 1138.956313 301.094402 
L 1151.838397 309.271413 
L 1164.720481 317.686288 
L 1179.749579 327.794187 
L 1194.778677 338.193568 
L 1209.807776 348.853384 
L 1226.983888 361.308095 
L 1244.16 373.998397 
L 1244.16 373.998397 
" clip-path="url(#pdd31637588)" style="fill: none; stroke: #0000ff; stroke-width: 1.5; stroke-linecap: square"/>
   </g>
   <g id="patch_3">
    <path d="M 172.8 624.78 
L 172.8 84.24 
" style="fill: none; stroke: #000000; stroke-width: 0.8; stroke-linejoin: miter; stroke-linecap: square"/>
   </g>
   <g id="patch_4">
    <path d="M 1244.16 624.78 
L 1244.16 84.24 
" style="fill: none; stroke: #000000; stroke-width: 0.8; stroke-linejoin: miter; stroke-linecap: square"/>
   </g>
   <g id="patch_5">
    <path d="M 172.8 624.78 
L 1244.16 624.78 
" style="fill: none; stroke: #000000; stroke-width: 0.8; stroke-linejoin: miter; stroke-linecap: square"/>
   </g>
   <g id="patch_6">
    <path d="M 172.8 84.24 
L 1244.16 84.24 
" style="fill: none; stroke: #000000; stroke-width: 0.8; stroke-linejoin: miter; stroke-linecap: square"/>
   </g>
   <g id="text_19">
    <!-- 94.23 -->
    <g style="fill: #00008b" transform="translate(645.143086 135.246852)scale(0.12 -0.12)">
     <use xlink:href="#DejaVuSans-39"/>
     <use xlink:href="#DejaVuSans-34" x="63.623047"/>
     <use xlink:href="#DejaVuSans-2e" x="127.246094"/>
     <use xlink:href="#DejaVuSans-32" x="159.033203"/>
     <use xlink:href="#DejaVuSans-33" x="222.65625"/>
    </g>
   </g>
   <g id="text_20">
    <!-- $  \psi = 1.8613543254429492\; \; \; \Lambda = 0.508821964390295\; \; \; M = 0.6442669693790511\; \; \; Co = 0.6808855407513105\; \; \;  $ -->
    <g transform="translate(430.98 78.24)scale(0.1 -0.1)">
     <defs>
      <path id="DejaVuSans-Oblique-3c8" d="M 1591 -78 
Q 891 38 616 341 
Q 278 713 425 1472 
L 819 3500 
L 1400 3500 
L 1009 1494 
Q 900 922 1119 684 
Q 1313 478 1691 434 
L 2284 3500 
L 2856 3500 
L 2263 438 
Q 2681 481 2928 688 
Q 3247 950 3353 1497 
L 3741 3500 
L 4322 3500 
L 3928 1475 
Q 3775 688 3300 344 
Q 2872 34 2163 -75 
L 1919 -1331 
L 1347 -1331 
L 1591 -78 
z
" transform="scale(0.015625)"/>
      <path id="DejaVuSans-3d" d="M 678 2906 
L 4684 2906 
L 4684 2381 
L 678 2381 
L 678 2906 
z
M 678 1631 
L 4684 1631 
L 4684 1100 
L 678 1100 
L 678 1631 
z
" transform="scale(0.015625)"/>
      <path id="DejaVuSans-39b" d="M 716 0 
L 50 0 
L 1831 4666 
L 2547 4666 
L 4325 0 
L 3669 0 
L 2188 4044 
L 716 0 
z
" transform="scale(0.015625)"/>
      <path id="DejaVuSans-Oblique-4d" d="M 1081 4666 
L 2028 4666 
L 2572 1522 
L 4378 4666 
L 5350 4666 
L 4441 0 
L 3828 0 
L 4622 4091 
L 2791 897 
L 2175 897 
L 1581 4103 
L 788 0 
L 172 0 
L 1081 4666 
z
" transform="scale(0.015625)"/>
      <path id="DejaVuSans-Oblique-43" d="M 4447 4306 
L 4319 3641 
Q 4019 3944 3683 4091 
Q 3347 4238 2956 4238 
Q 2422 4238 2017 3981 
Q 1613 3725 1319 3200 
Q 1131 2863 1032 2486 
Q 934 2109 934 1728 
Q 934 1091 1264 756 
Q 1594 422 2222 422 
Q 2656 422 3056 561 
Q 3456 700 3834 978 
L 3688 231 
Q 3316 72 2936 -9 
Q 2556 -91 2175 -91 
Q 1278 -91 773 396 
Q 269 884 269 1753 
Q 269 2309 461 2846 
Q 653 3384 1013 3828 
Q 1394 4300 1883 4525 
Q 2372 4750 3022 4750 
Q 3422 4750 3780 4639 
Q 4138 4528 4447 4306 
z
" transform="scale(0.015625)"/>
      <path id="DejaVuSans-Oblique-6f" d="M 1625 -91 
Q 1009 -91 651 289 
Q 294 669 294 1325 
Q 294 1706 417 2101 
Q 541 2497 738 2766 
Q 1047 3184 1428 3384 
Q 1809 3584 2291 3584 
Q 2888 3584 3255 3212 
Q 3622 2841 3622 2241 
Q 3622 1825 3500 1412 
Q 3378 1000 3181 728 
Q 2875 309 2494 109 
Q 2113 -91 1625 -91 
z
M 891 1344 
Q 891 869 1089 633 
Q 1288 397 1691 397 
Q 2269 397 2648 901 
Q 3028 1406 3028 2181 
Q 3028 2634 2825 2865 
Q 2622 3097 2228 3097 
Q 1903 3097 1650 2945 
Q 1397 2794 1197 2484 
Q 1050 2253 970 1956 
Q 891 1659 891 1344 
z
" transform="scale(0.015625)"/>
     </defs>
     <use xlink:href="#DejaVuSans-Oblique-3c8" transform="translate(0 0.78125)"/>
     <use xlink:href="#DejaVuSans-3d" transform="translate(85.449219 0.78125)"/>
     <use xlink:href="#DejaVuSans-31" transform="translate(188.720703 0.78125)"/>
     <use xlink:href="#DejaVuSans-2e" transform="translate(252.34375 0.78125)"/>
     <use xlink:href="#DejaVuSans-38" transform="translate(281.505859 0.78125)"/>
     <use xlink:href="#DejaVuSans-36" transform="translate(345.128906 0.78125)"/>
     <use xlink:href="#DejaVuSans-31" transform="translate(408.751953 0.78125)"/>
     <use xlink:href="#DejaVuSans-33" transform="translate(472.375 0.78125)"/>
     <use xlink:href="#DejaVuSans-35" transform="translate(535.998047 0.78125)"/>
     <use xlink:href="#DejaVuSans-34" transform="translate(599.621094 0.78125)"/>
     <use xlink:href="#DejaVuSans-33" transform="translate(663.244141 0.78125)"/>
     <use xlink:href="#DejaVuSans-32" transform="translate(726.867188 0.78125)"/>
     <use xlink:href="#DejaVuSans-35" transform="translate(790.490234 0.78125)"/>
     <use xlink:href="#DejaVuSans-34" transform="translate(854.113281 0.78125)"/>
     <use xlink:href="#DejaVuSans-34" transform="translate(917.736328 0.78125)"/>
     <use xlink:href="#DejaVuSans-32" transform="translate(981.359375 0.78125)"/>
     <use xlink:href="#DejaVuSans-39" transform="translate(1043.232422 0.78125)"/>
     <use xlink:href="#DejaVuSans-34" transform="translate(1106.855469 0.78125)"/>
     <use xlink:href="#DejaVuSans-39" transform="translate(1170.478516 0.78125)"/>
     <use xlink:href="#DejaVuSans-32" transform="translate(1232.351562 0.78125)"/>
     <use xlink:href="#DejaVuSans-39b" transform="translate(1377.152017 0.78125)"/>
     <use xlink:href="#DejaVuSans-3d" transform="translate(1465.042642 0.78125)"/>
     <use xlink:href="#DejaVuSans-30" transform="translate(1568.314126 0.78125)"/>
     <use xlink:href="#DejaVuSans-2e" transform="translate(1631.937173 0.78125)"/>
     <use xlink:href="#DejaVuSans-35" transform="translate(1663.724282 0.78125)"/>
     <use xlink:href="#DejaVuSans-30" transform="translate(1727.347329 0.78125)"/>
     <use xlink:href="#DejaVuSans-38" transform="translate(1790.970376 0.78125)"/>
     <use xlink:href="#DejaVuSans-38" transform="translate(1854.593423 0.78125)"/>
     <use xlink:href="#DejaVuSans-32" transform="translate(1918.21647 0.78125)"/>
     <use xlink:href="#DejaVuSans-31" transform="translate(1981.839517 0.78125)"/>
     <use xlink:href="#DejaVuSans-39" transform="translate(2045.462563 0.78125)"/>
     <use xlink:href="#DejaVuSans-36" transform="translate(2109.08561 0.78125)"/>
     <use xlink:href="#DejaVuSans-34" transform="translate(2172.708657 0.78125)"/>
     <use xlink:href="#DejaVuSans-33" transform="translate(2236.331704 0.78125)"/>
     <use xlink:href="#DejaVuSans-39" transform="translate(2299.954751 0.78125)"/>
     <use xlink:href="#DejaVuSans-30" transform="translate(2363.577798 0.78125)"/>
     <use xlink:href="#DejaVuSans-32" transform="translate(2427.200845 0.78125)"/>
     <use xlink:href="#DejaVuSans-39" transform="translate(2489.073892 0.78125)"/>
     <use xlink:href="#DejaVuSans-35" transform="translate(2552.696938 0.78125)"/>
     <use xlink:href="#DejaVuSans-Oblique-4d" transform="translate(2697.497393 0.78125)"/>
     <use xlink:href="#DejaVuSans-3d" transform="translate(2803.259111 0.78125)"/>
     <use xlink:href="#DejaVuSans-30" transform="translate(2906.530596 0.78125)"/>
     <use xlink:href="#DejaVuSans-2e" transform="translate(2970.153643 0.78125)"/>
     <use xlink:href="#DejaVuSans-36" transform="translate(3001.940752 0.78125)"/>
     <use xlink:href="#DejaVuSans-34" transform="translate(3065.563799 0.78125)"/>
     <use xlink:href="#DejaVuSans-34" transform="translate(3129.186846 0.78125)"/>
     <use xlink:href="#DejaVuSans-32" transform="translate(3192.809893 0.78125)"/>
     <use xlink:href="#DejaVuSans-36" transform="translate(3256.432939 0.78125)"/>
     <use xlink:href="#DejaVuSans-36" transform="translate(3320.055986 0.78125)"/>
     <use xlink:href="#DejaVuSans-39" transform="translate(3383.679033 0.78125)"/>
     <use xlink:href="#DejaVuSans-36" transform="translate(3447.30208 0.78125)"/>
     <use xlink:href="#DejaVuSans-39" transform="translate(3510.925127 0.78125)"/>
     <use xlink:href="#DejaVuSans-33" transform="translate(3574.548174 0.78125)"/>
     <use xlink:href="#DejaVuSans-37" transform="translate(3638.171221 0.78125)"/>
     <use xlink:href="#DejaVuSans-39" transform="translate(3701.794268 0.78125)"/>
     <use xlink:href="#DejaVuSans-30" transform="translate(3765.417314 0.78125)"/>
     <use xlink:href="#DejaVuSans-35" transform="translate(3829.040361 0.78125)"/>
     <use xlink:href="#DejaVuSans-31" transform="translate(3892.663408 0.78125)"/>
     <use xlink:href="#DejaVuSans-31" transform="translate(3956.286455 0.78125)"/>
     <use xlink:href="#DejaVuSans-Oblique-43" transform="translate(4101.086909 0.78125)"/>
     <use xlink:href="#DejaVuSans-Oblique-6f" transform="translate(4170.911128 0.78125)"/>
     <use xlink:href="#DejaVuSans-3d" transform="translate(4251.57519 0.78125)"/>
     <use xlink:href="#DejaVuSans-30" transform="translate(4354.846675 0.78125)"/>
     <use xlink:href="#DejaVuSans-2e" transform="translate(4418.469722 0.78125)"/>
     <use xlink:href="#DejaVuSans-36" transform="translate(4450.256831 0.78125)"/>
     <use xlink:href="#DejaVuSans-38" transform="translate(4513.879878 0.78125)"/>
     <use xlink:href="#DejaVuSans-30" transform="translate(4577.502925 0.78125)"/>
     <use xlink:href="#DejaVuSans-38" transform="translate(4641.125972 0.78125)"/>
     <use xlink:href="#DejaVuSans-38" transform="translate(4704.749019 0.78125)"/>
     <use xlink:href="#DejaVuSans-35" transform="translate(4768.372065 0.78125)"/>
     <use xlink:href="#DejaVuSans-35" transform="translate(4831.995112 0.78125)"/>
     <use xlink:href="#DejaVuSans-34" transform="translate(4895.618159 0.78125)"/>
     <use xlink:href="#DejaVuSans-30" transform="translate(4959.241206 0.78125)"/>
     <use xlink:href="#DejaVuSans-37" transform="translate(5022.864253 0.78125)"/>
     <use xlink:href="#DejaVuSans-35" transform="translate(5086.4873 0.78125)"/>
     <use xlink:href="#DejaVuSans-31" transform="translate(5150.110347 0.78125)"/>
     <use xlink:href="#DejaVuSans-33" transform="translate(5213.733394 0.78125)"/>
     <use xlink:href="#DejaVuSans-31" transform="translate(5277.35644 0.78125)"/>
     <use xlink:href="#DejaVuSans-30" transform="translate(5340.979487 0.78125)"/>
     <use xlink:href="#DejaVuSans-35" transform="translate(5404.602534 0.78125)"/>
    </g>
   </g>
   <g id="legend_1">
    <g id="patch_7">
     <path d="M 1083.708437 121.59625 
L 1237.16 121.59625 
Q 1239.16 121.59625 1239.16 119.59625 
L 1239.16 91.24 
Q 1239.16 89.24 1237.16 89.24 
L 1083.708437 89.24 
Q 1081.708437 89.24 1081.708437 91.24 
L 1081.708437 119.59625 
Q 1081.708437 121.59625 1083.708437 121.59625 
z
" style="fill: #ffffff; opacity: 0.8; stroke: #cccccc; stroke-linejoin: miter"/>
    </g>
    <g id="line2d_18">
     <path d="M 1085.708437 97.338438 
L 1095.708437 97.338438 
L 1105.708437 97.338438 
" style="fill: none; stroke: #0000ff; stroke-width: 1.5; stroke-linecap: square"/>
    </g>
    <g id="text_21">
     <!-- Mean prediction -->
     <g transform="translate(1113.708437 100.838438)scale(0.1 -0.1)">
      <defs>
       <path id="DejaVuSans-4d" d="M 628 4666 
L 1569 4666 
L 2759 1491 
L 3956 4666 
L 4897 4666 
L 4897 0 
L 4281 0 
L 4281 4097 
L 3078 897 
L 2444 897 
L 1241 4097 
L 1241 0 
L 628 0 
L 628 4666 
z
" transform="scale(0.015625)"/>
       <path id="DejaVuSans-65" d="M 3597 1894 
L 3597 1613 
L 953 1613 
Q 991 1019 1311 708 
Q 1631 397 2203 397 
Q 2534 397 2845 478 
Q 3156 559 3463 722 
L 3463 178 
Q 3153 47 2828 -22 
Q 2503 -91 2169 -91 
Q 1331 -91 842 396 
Q 353 884 353 1716 
Q 353 2575 817 3079 
Q 1281 3584 2069 3584 
Q 2775 3584 3186 3129 
Q 3597 2675 3597 1894 
z
M 3022 2063 
Q 3016 2534 2758 2815 
Q 2500 3097 2075 3097 
Q 1594 3097 1305 2825 
Q 1016 2553 972 2059 
L 3022 2063 
z
" transform="scale(0.015625)"/>
       <path id="DejaVuSans-61" d="M 2194 1759 
Q 1497 1759 1228 1600 
Q 959 1441 959 1056 
Q 959 750 1161 570 
Q 1363 391 1709 391 
Q 2188 391 2477 730 
Q 2766 1069 2766 1631 
L 2766 1759 
L 2194 1759 
z
M 3341 1997 
L 3341 0 
L 2766 0 
L 2766 531 
Q 2569 213 2275 61 
Q 1981 -91 1556 -91 
Q 1019 -91 701 211 
Q 384 513 384 1019 
Q 384 1609 779 1909 
Q 1175 2209 1959 2209 
L 2766 2209 
L 2766 2266 
Q 2766 2663 2505 2880 
Q 2244 3097 1772 3097 
Q 1472 3097 1187 3025 
Q 903 2953 641 2809 
L 641 3341 
Q 956 3463 1253 3523 
Q 1550 3584 1831 3584 
Q 2591 3584 2966 3190 
Q 3341 2797 3341 1997 
z
" transform="scale(0.015625)"/>
       <path id="DejaVuSans-6e" d="M 3513 2113 
L 3513 0 
L 2938 0 
L 2938 2094 
Q 2938 2591 2744 2837 
Q 2550 3084 2163 3084 
Q 1697 3084 1428 2787 
Q 1159 2491 1159 1978 
L 1159 0 
L 581 0 
L 581 3500 
L 1159 3500 
L 1159 2956 
Q 1366 3272 1645 3428 
Q 1925 3584 2291 3584 
Q 2894 3584 3203 3211 
Q 3513 2838 3513 2113 
z
" transform="scale(0.015625)"/>
       <path id="DejaVuSans-20" transform="scale(0.015625)"/>
       <path id="DejaVuSans-70" d="M 1159 525 
L 1159 -1331 
L 581 -1331 
L 581 3500 
L 1159 3500 
L 1159 2969 
Q 1341 3281 1617 3432 
Q 1894 3584 2278 3584 
Q 2916 3584 3314 3078 
Q 3713 2572 3713 1747 
Q 3713 922 3314 415 
Q 2916 -91 2278 -91 
Q 1894 -91 1617 61 
Q 1341 213 1159 525 
z
M 3116 1747 
Q 3116 2381 2855 2742 
Q 2594 3103 2138 3103 
Q 1681 3103 1420 2742 
Q 1159 2381 1159 1747 
Q 1159 1113 1420 752 
Q 1681 391 2138 391 
Q 2594 391 2855 752 
Q 3116 1113 3116 1747 
z
" transform="scale(0.015625)"/>
       <path id="DejaVuSans-72" d="M 2631 2963 
Q 2534 3019 2420 3045 
Q 2306 3072 2169 3072 
Q 1681 3072 1420 2755 
Q 1159 2438 1159 1844 
L 1159 0 
L 581 0 
L 581 3500 
L 1159 3500 
L 1159 2956 
Q 1341 3275 1631 3429 
Q 1922 3584 2338 3584 
Q 2397 3584 2469 3576 
Q 2541 3569 2628 3553 
L 2631 2963 
z
" transform="scale(0.015625)"/>
       <path id="DejaVuSans-64" d="M 2906 2969 
L 2906 4863 
L 3481 4863 
L 3481 0 
L 2906 0 
L 2906 525 
Q 2725 213 2448 61 
Q 2172 -91 1784 -91 
Q 1150 -91 751 415 
Q 353 922 353 1747 
Q 353 2572 751 3078 
Q 1150 3584 1784 3584 
Q 2172 3584 2448 3432 
Q 2725 3281 2906 2969 
z
M 947 1747 
Q 947 1113 1208 752 
Q 1469 391 1925 391 
Q 2381 391 2643 752 
Q 2906 1113 2906 1747 
Q 2906 2381 2643 2742 
Q 2381 3103 1925 3103 
Q 1469 3103 1208 2742 
Q 947 2381 947 1747 
z
" transform="scale(0.015625)"/>
       <path id="DejaVuSans-69" d="M 603 3500 
L 1178 3500 
L 1178 0 
L 603 0 
L 603 3500 
z
M 603 4863 
L 1178 4863 
L 1178 4134 
L 603 4134 
L 603 4863 
z
" transform="scale(0.015625)"/>
       <path id="DejaVuSans-63" d="M 3122 3366 
L 3122 2828 
Q 2878 2963 2633 3030 
Q 2388 3097 2138 3097 
Q 1578 3097 1268 2742 
Q 959 2388 959 1747 
Q 959 1106 1268 751 
Q 1578 397 2138 397 
Q 2388 397 2633 464 
Q 2878 531 3122 666 
L 3122 134 
Q 2881 22 2623 -34 
Q 2366 -91 2075 -91 
Q 1284 -91 818 406 
Q 353 903 353 1747 
Q 353 2603 823 3093 
Q 1294 3584 2113 3584 
Q 2378 3584 2631 3529 
Q 2884 3475 3122 3366 
z
" transform="scale(0.015625)"/>
       <path id="DejaVuSans-74" d="M 1172 4494 
L 1172 3500 
L 2356 3500 
L 2356 3053 
L 1172 3053 
L 1172 1153 
Q 1172 725 1289 603 
Q 1406 481 1766 481 
L 2356 481 
L 2356 0 
L 1766 0 
Q 1100 0 847 248 
Q 594 497 594 1153 
L 594 3053 
L 172 3053 
L 172 3500 
L 594 3500 
L 594 4494 
L 1172 4494 
z
" transform="scale(0.015625)"/>
       <path id="DejaVuSans-6f" d="M 1959 3097 
Q 1497 3097 1228 2736 
Q 959 2375 959 1747 
Q 959 1119 1226 758 
Q 1494 397 1959 397 
Q 2419 397 2687 759 
Q 2956 1122 2956 1747 
Q 2956 2369 2687 2733 
Q 2419 3097 1959 3097 
z
M 1959 3584 
Q 2709 3584 3137 3096 
Q 3566 2609 3566 1747 
Q 3566 888 3137 398 
Q 2709 -91 1959 -91 
Q 1206 -91 779 398 
Q 353 888 353 1747 
Q 353 2609 779 3096 
Q 1206 3584 1959 3584 
z
" transform="scale(0.015625)"/>
      </defs>
      <use xlink:href="#DejaVuSans-4d"/>
      <use xlink:href="#DejaVuSans-65" x="86.279297"/>
      <use xlink:href="#DejaVuSans-61" x="147.802734"/>
      <use xlink:href="#DejaVuSans-6e" x="209.082031"/>
      <use xlink:href="#DejaVuSans-20" x="272.460938"/>
      <use xlink:href="#DejaVuSans-70" x="304.248047"/>
      <use xlink:href="#DejaVuSans-72" x="367.724609"/>
      <use xlink:href="#DejaVuSans-65" x="406.587891"/>
      <use xlink:href="#DejaVuSans-64" x="468.111328"/>
      <use xlink:href="#DejaVuSans-69" x="531.587891"/>
      <use xlink:href="#DejaVuSans-63" x="559.371094"/>
      <use xlink:href="#DejaVuSans-74" x="614.351562"/>
      <use xlink:href="#DejaVuSans-69" x="653.560547"/>
      <use xlink:href="#DejaVuSans-6f" x="681.34375"/>
      <use xlink:href="#DejaVuSans-6e" x="742.525391"/>
     </g>
    </g>
    <g id="patch_8">
     <path d="M 1085.708437 115.516563 
L 1105.708437 115.516563 
L 1105.708437 108.516563 
L 1085.708437 108.516563 
z
" style="fill: #ffa500; fill-opacity: 0.3; stroke: #ffa500; stroke-opacity: 0.3; stroke-linejoin: miter"/>
    </g>
    <g id="text_22">
     <!-- 95% confidence interval -->
     <g transform="translate(1113.708437 115.516563)scale(0.1 -0.1)">
      <defs>
       <path id="DejaVuSans-25" d="M 4653 2053 
Q 4381 2053 4226 1822 
Q 4072 1591 4072 1178 
Q 4072 772 4226 539 
Q 4381 306 4653 306 
Q 4919 306 5073 539 
Q 5228 772 5228 1178 
Q 5228 1588 5073 1820 
Q 4919 2053 4653 2053 
z
M 4653 2450 
Q 5147 2450 5437 2106 
Q 5728 1763 5728 1178 
Q 5728 594 5436 251 
Q 5144 -91 4653 -91 
Q 4153 -91 3862 251 
Q 3572 594 3572 1178 
Q 3572 1766 3864 2108 
Q 4156 2450 4653 2450 
z
M 1428 4353 
Q 1159 4353 1004 4120 
Q 850 3888 850 3481 
Q 850 3069 1003 2837 
Q 1156 2606 1428 2606 
Q 1700 2606 1854 2837 
Q 2009 3069 2009 3481 
Q 2009 3884 1853 4118 
Q 1697 4353 1428 4353 
z
M 4250 4750 
L 4750 4750 
L 1831 -91 
L 1331 -91 
L 4250 4750 
z
M 1428 4750 
Q 1922 4750 2215 4408 
Q 2509 4066 2509 3481 
Q 2509 2891 2217 2550 
Q 1925 2209 1428 2209 
Q 931 2209 642 2551 
Q 353 2894 353 3481 
Q 353 4063 643 4406 
Q 934 4750 1428 4750 
z
" transform="scale(0.015625)"/>
       <path id="DejaVuSans-66" d="M 2375 4863 
L 2375 4384 
L 1825 4384 
Q 1516 4384 1395 4259 
Q 1275 4134 1275 3809 
L 1275 3500 
L 2222 3500 
L 2222 3053 
L 1275 3053 
L 1275 0 
L 697 0 
L 697 3053 
L 147 3053 
L 147 3500 
L 697 3500 
L 697 3744 
Q 697 4328 969 4595 
Q 1241 4863 1831 4863 
L 2375 4863 
z
" transform="scale(0.015625)"/>
       <path id="DejaVuSans-76" d="M 191 3500 
L 800 3500 
L 1894 563 
L 2988 3500 
L 3597 3500 
L 2284 0 
L 1503 0 
L 191 3500 
z
" transform="scale(0.015625)"/>
       <path id="DejaVuSans-6c" d="M 603 4863 
L 1178 4863 
L 1178 0 
L 603 0 
L 603 4863 
z
" transform="scale(0.015625)"/>
      </defs>
      <use xlink:href="#DejaVuSans-39"/>
      <use xlink:href="#DejaVuSans-35" x="63.623047"/>
      <use xlink:href="#DejaVuSans-25" x="127.246094"/>
      <use xlink:href="#DejaVuSans-20" x="222.265625"/>
      <use xlink:href="#DejaVuSans-63" x="254.052734"/>
      <use xlink:href="#DejaVuSans-6f" x="309.033203"/>
      <use xlink:href="#DejaVuSans-6e" x="370.214844"/>
      <use xlink:href="#DejaVuSans-66" x="433.59375"/>
      <use xlink:href="#DejaVuSans-69" x="468.798828"/>
      <use xlink:href="#DejaVuSans-64" x="496.582031"/>
      <use xlink:href="#DejaVuSans-65" x="560.058594"/>
      <use xlink:href="#DejaVuSans-6e" x="621.582031"/>
      <use xlink:href="#DejaVuSans-63" x="684.960938"/>
      <use xlink:href="#DejaVuSans-65" x="739.941406"/>
      <use xlink:href="#DejaVuSans-20" x="801.464844"/>
      <use xlink:href="#DejaVuSans-69" x="833.251953"/>
      <use xlink:href="#DejaVuSans-6e" x="861.035156"/>
      <use xlink:href="#DejaVuSans-74" x="924.414062"/>
      <use xlink:href="#DejaVuSans-65" x="963.623047"/>
      <use xlink:href="#DejaVuSans-72" x="1025.146484"/>
      <use xlink:href="#DejaVuSans-76" x="1066.259766"/>
      <use xlink:href="#DejaVuSans-61" x="1125.439453"/>
      <use xlink:href="#DejaVuSans-6c" x="1186.71875"/>
     </g>
    </g>
   </g>
  </g>
  <g id="text_23">
   <!-- Data-driven turbine design -->
   <g transform="translate(610.410937 23.158125)scale(0.12 -0.12)">
    <defs>
     <path id="DejaVuSans-44" d="M 1259 4147 
L 1259 519 
L 2022 519 
Q 2988 519 3436 956 
Q 3884 1394 3884 2338 
Q 3884 3275 3436 3711 
Q 2988 4147 2022 4147 
L 1259 4147 
z
M 628 4666 
L 1925 4666 
Q 3281 4666 3915 4102 
Q 4550 3538 4550 2338 
Q 4550 1131 3912 565 
Q 3275 0 1925 0 
L 628 0 
L 628 4666 
z
" transform="scale(0.015625)"/>
     <path id="DejaVuSans-2d" d="M 313 2009 
L 1997 2009 
L 1997 1497 
L 313 1497 
L 313 2009 
z
" transform="scale(0.015625)"/>
     <path id="DejaVuSans-75" d="M 544 1381 
L 544 3500 
L 1119 3500 
L 1119 1403 
Q 1119 906 1312 657 
Q 1506 409 1894 409 
Q 2359 409 2629 706 
Q 2900 1003 2900 1516 
L 2900 3500 
L 3475 3500 
L 3475 0 
L 2900 0 
L 2900 538 
Q 2691 219 2414 64 
Q 2138 -91 1772 -91 
Q 1169 -91 856 284 
Q 544 659 544 1381 
z
M 1991 3584 
L 1991 3584 
z
" transform="scale(0.015625)"/>
     <path id="DejaVuSans-62" d="M 3116 1747 
Q 3116 2381 2855 2742 
Q 2594 3103 2138 3103 
Q 1681 3103 1420 2742 
Q 1159 2381 1159 1747 
Q 1159 1113 1420 752 
Q 1681 391 2138 391 
Q 2594 391 2855 752 
Q 3116 1113 3116 1747 
z
M 1159 2969 
Q 1341 3281 1617 3432 
Q 1894 3584 2278 3584 
Q 2916 3584 3314 3078 
Q 3713 2572 3713 1747 
Q 3713 922 3314 415 
Q 2916 -91 2278 -91 
Q 1894 -91 1617 61 
Q 1341 213 1159 525 
L 1159 0 
L 581 0 
L 581 4863 
L 1159 4863 
L 1159 2969 
z
" transform="scale(0.015625)"/>
     <path id="DejaVuSans-73" d="M 2834 3397 
L 2834 2853 
Q 2591 2978 2328 3040 
Q 2066 3103 1784 3103 
Q 1356 3103 1142 2972 
Q 928 2841 928 2578 
Q 928 2378 1081 2264 
Q 1234 2150 1697 2047 
L 1894 2003 
Q 2506 1872 2764 1633 
Q 3022 1394 3022 966 
Q 3022 478 2636 193 
Q 2250 -91 1575 -91 
Q 1294 -91 989 -36 
Q 684 19 347 128 
L 347 722 
Q 666 556 975 473 
Q 1284 391 1588 391 
Q 1994 391 2212 530 
Q 2431 669 2431 922 
Q 2431 1156 2273 1281 
Q 2116 1406 1581 1522 
L 1381 1569 
Q 847 1681 609 1914 
Q 372 2147 372 2553 
Q 372 3047 722 3315 
Q 1072 3584 1716 3584 
Q 2034 3584 2315 3537 
Q 2597 3491 2834 3397 
z
" transform="scale(0.015625)"/>
     <path id="DejaVuSans-67" d="M 2906 1791 
Q 2906 2416 2648 2759 
Q 2391 3103 1925 3103 
Q 1463 3103 1205 2759 
Q 947 2416 947 1791 
Q 947 1169 1205 825 
Q 1463 481 1925 481 
Q 2391 481 2648 825 
Q 2906 1169 2906 1791 
z
M 3481 434 
Q 3481 -459 3084 -895 
Q 2688 -1331 1869 -1331 
Q 1566 -1331 1297 -1286 
Q 1028 -1241 775 -1147 
L 775 -588 
Q 1028 -725 1275 -790 
Q 1522 -856 1778 -856 
Q 2344 -856 2625 -561 
Q 2906 -266 2906 331 
L 2906 616 
Q 2728 306 2450 153 
Q 2172 0 1784 0 
Q 1141 0 747 490 
Q 353 981 353 1791 
Q 353 2603 747 3093 
Q 1141 3584 1784 3584 
Q 2172 3584 2450 3431 
Q 2728 3278 2906 2969 
L 2906 3500 
L 3481 3500 
L 3481 434 
z
" transform="scale(0.015625)"/>
    </defs>
    <use xlink:href="#DejaVuSans-44"/>
    <use xlink:href="#DejaVuSans-61" x="77.001953"/>
    <use xlink:href="#DejaVuSans-74" x="138.28125"/>
    <use xlink:href="#DejaVuSans-61" x="177.490234"/>
    <use xlink:href="#DejaVuSans-2d" x="238.769531"/>
    <use xlink:href="#DejaVuSans-64" x="274.853516"/>
    <use xlink:href="#DejaVuSans-72" x="338.330078"/>
    <use xlink:href="#DejaVuSans-69" x="379.443359"/>
    <use xlink:href="#DejaVuSans-76" x="407.226562"/>
    <use xlink:href="#DejaVuSans-65" x="466.40625"/>
    <use xlink:href="#DejaVuSans-6e" x="527.929688"/>
    <use xlink:href="#DejaVuSans-20" x="591.308594"/>
    <use xlink:href="#DejaVuSans-74" x="623.095703"/>
    <use xlink:href="#DejaVuSans-75" x="662.304688"/>
    <use xlink:href="#DejaVuSans-72" x="725.683594"/>
    <use xlink:href="#DejaVuSans-62" x="766.796875"/>
    <use xlink:href="#DejaVuSans-69" x="830.273438"/>
    <use xlink:href="#DejaVuSans-6e" x="858.056641"/>
    <use xlink:href="#DejaVuSans-65" x="921.435547"/>
    <use xlink:href="#DejaVuSans-20" x="982.958984"/>
    <use xlink:href="#DejaVuSans-64" x="1014.746094"/>
    <use xlink:href="#DejaVuSans-65" x="1078.222656"/>
    <use xlink:href="#DejaVuSans-73" x="1139.746094"/>
    <use xlink:href="#DejaVuSans-69" x="1191.845703"/>
    <use xlink:href="#DejaVuSans-67" x="1219.628906"/>
    <use xlink:href="#DejaVuSans-6e" x="1283.105469"/>
   </g>
  </g>
 </g>
 <defs>
  <clipPath id="pdd31637588">
   <rect x="172.8" y="84.24" width="1071.36" height="540.54"/>
  </clipPath>
 </defs>
</svg>
