<?xml version="1.0" encoding="utf-8" standalone="no"?>
<!DOCTYPE svg PUBLIC "-//W3C//DTD SVG 1.1//EN"
  "http://www.w3.org/Graphics/SVG/1.1/DTD/svg11.dtd">
<svg xmlns:xlink="http://www.w3.org/1999/xlink" width="1080pt" height="645.12pt" viewBox="0 0 1080 645.12" xmlns="http://www.w3.org/2000/svg" version="1.1">
 <metadata>
  <rdf:RDF xmlns:dc="http://purl.org/dc/elements/1.1/" xmlns:cc="http://creativecommons.org/ns#" xmlns:rdf="http://www.w3.org/1999/02/22-rdf-syntax-ns#">
   <cc:Work>
    <dc:type rdf:resource="http://purl.org/dc/dcmitype/StillImage"/>
    <dc:date>2022-10-26T14:59:19.846906</dc:date>
    <dc:format>image/svg+xml</dc:format>
    <dc:creator>
     <cc:Agent>
      <dc:title>Matplotlib v3.5.3, https://matplotlib.org/</dc:title>
     </cc:Agent>
    </dc:creator>
   </cc:Work>
  </rdf:RDF>
 </metadata>
 <defs>
  <style type="text/css">*{stroke-linejoin: round; stroke-linecap: butt}</style>
 </defs>
 <g id="figure_1">
  <g id="patch_1">
   <path d="M 0 645.12 
L 1080 645.12 
L 1080 0 
L 0 0 
z
" style="fill: #ffffff"/>
  </g>
  <g id="axes_1">
   <g id="patch_2">
    <path d="M 143.0625 561.418667 
L 669.017812 561.418667 
L 669.017812 91.84 
L 143.0625 91.84 
z
" style="fill: #ffffff"/>
   </g>
   <g id="PathCollection_1">
    <defs>
     <path id="mb6bba993a1" d="M -3 3 
L 3 -3 
M -3 -3 
L 3 3 
" style="stroke: #ff0000; stroke-width: 1.5"/>
    </defs>
    <g clip-path="url(#p2355b926b4)">
     <use xlink:href="#mb6bba993a1" x="643.843409" y="200.102919" style="fill: #ff0000; stroke: #ff0000; stroke-width: 1.5"/>
     <use xlink:href="#mb6bba993a1" x="336.4701" y="417.394043" style="fill: #ff0000; stroke: #ff0000; stroke-width: 1.5"/>
     <use xlink:href="#mb6bba993a1" x="362.765121" y="401.996229" style="fill: #ff0000; stroke: #ff0000; stroke-width: 1.5"/>
     <use xlink:href="#mb6bba993a1" x="410.230218" y="366.611509" style="fill: #ff0000; stroke: #ff0000; stroke-width: 1.5"/>
     <use xlink:href="#mb6bba993a1" x="498.796227" y="269.044985" style="fill: #ff0000; stroke: #ff0000; stroke-width: 1.5"/>
     <use xlink:href="#mb6bba993a1" x="341.572319" y="559.280946" style="fill: #ff0000; stroke: #ff0000; stroke-width: 1.5"/>
     <use xlink:href="#mb6bba993a1" x="236.827144" y="-1" style="fill: #ff0000; stroke: #ff0000; stroke-width: 1.5"/>
     <use xlink:href="#mb6bba993a1" x="240.814645" y="-1" style="fill: #ff0000; stroke: #ff0000; stroke-width: 1.5"/>
     <use xlink:href="#mb6bba993a1" x="285.908516" y="181.906196" style="fill: #ff0000; stroke: #ff0000; stroke-width: 1.5"/>
     <use xlink:href="#mb6bba993a1" x="559.493894" y="254.802046" style="fill: #ff0000; stroke: #ff0000; stroke-width: 1.5"/>
     <use xlink:href="#mb6bba993a1" x="476.386308" y="404.108681" style="fill: #ff0000; stroke: #ff0000; stroke-width: 1.5"/>
     <use xlink:href="#mb6bba993a1" x="168.932881" y="482.692839" style="fill: #ff0000; stroke: #ff0000; stroke-width: 1.5"/>
     <use xlink:href="#mb6bba993a1" x="351.021207" y="200.918475" style="fill: #ff0000; stroke: #ff0000; stroke-width: 1.5"/>
     <use xlink:href="#mb6bba993a1" x="573.235848" y="286.587957" style="fill: #ff0000; stroke: #ff0000; stroke-width: 1.5"/>
     <use xlink:href="#mb6bba993a1" x="633.914484" y="201.69821" style="fill: #ff0000; stroke: #ff0000; stroke-width: 1.5"/>
     <use xlink:href="#mb6bba993a1" x="148.338173" y="168.593104" style="fill: #ff0000; stroke: #ff0000; stroke-width: 1.5"/>
     <use xlink:href="#mb6bba993a1" x="521.098339" y="232.975641" style="fill: #ff0000; stroke: #ff0000; stroke-width: 1.5"/>
     <use xlink:href="#mb6bba993a1" x="171.317978" y="100.096092" style="fill: #ff0000; stroke: #ff0000; stroke-width: 1.5"/>
     <use xlink:href="#mb6bba993a1" x="230.691515" y="83.559595" style="fill: #ff0000; stroke: #ff0000; stroke-width: 1.5"/>
     <use xlink:href="#mb6bba993a1" x="293.275878" y="213.039357" style="fill: #ff0000; stroke: #ff0000; stroke-width: 1.5"/>
     <use xlink:href="#mb6bba993a1" x="412.447279" y="447.213707" style="fill: #ff0000; stroke: #ff0000; stroke-width: 1.5"/>
     <use xlink:href="#mb6bba993a1" x="172.047009" y="52.183453" style="fill: #ff0000; stroke: #ff0000; stroke-width: 1.5"/>
     <use xlink:href="#mb6bba993a1" x="207.452086" y="-1" style="fill: #ff0000; stroke: #ff0000; stroke-width: 1.5"/>
     <use xlink:href="#mb6bba993a1" x="280.311455" y="-1" style="fill: #ff0000; stroke: #ff0000; stroke-width: 1.5"/>
     <use xlink:href="#mb6bba993a1" x="252.514979" y="75.970402" style="fill: #ff0000; stroke: #ff0000; stroke-width: 1.5"/>
     <use xlink:href="#mb6bba993a1" x="331.539506" y="461.825498" style="fill: #ff0000; stroke: #ff0000; stroke-width: 1.5"/>
     <use xlink:href="#mb6bba993a1" x="490.82376" y="298.845869" style="fill: #ff0000; stroke: #ff0000; stroke-width: 1.5"/>
     <use xlink:href="#mb6bba993a1" x="317.452032" y="-1" style="fill: #ff0000; stroke: #ff0000; stroke-width: 1.5"/>
     <use xlink:href="#mb6bba993a1" x="201.051959" y="-1" style="fill: #ff0000; stroke: #ff0000; stroke-width: 1.5"/>
     <use xlink:href="#mb6bba993a1" x="253.890738" y="561.870004" style="fill: #ff0000; stroke: #ff0000; stroke-width: 1.5"/>
     <use xlink:href="#mb6bba993a1" x="400.705326" y="-1" style="fill: #ff0000; stroke: #ff0000; stroke-width: 1.5"/>
     <use xlink:href="#mb6bba993a1" x="406.375809" y="-1" style="fill: #ff0000; stroke: #ff0000; stroke-width: 1.5"/>
     <use xlink:href="#mb6bba993a1" x="317.602318" y="448.785843" style="fill: #ff0000; stroke: #ff0000; stroke-width: 1.5"/>
     <use xlink:href="#mb6bba993a1" x="490.768534" y="346.312777" style="fill: #ff0000; stroke: #ff0000; stroke-width: 1.5"/>
     <use xlink:href="#mb6bba993a1" x="612.757132" y="257.612874" style="fill: #ff0000; stroke: #ff0000; stroke-width: 1.5"/>
     <use xlink:href="#mb6bba993a1" x="389.783936" y="434.306597" style="fill: #ff0000; stroke: #ff0000; stroke-width: 1.5"/>
     <use xlink:href="#mb6bba993a1" x="242.608683" y="40.078933" style="fill: #ff0000; stroke: #ff0000; stroke-width: 1.5"/>
     <use xlink:href="#mb6bba993a1" x="435.636925" y="383.367" style="fill: #ff0000; stroke: #ff0000; stroke-width: 1.5"/>
     <use xlink:href="#mb6bba993a1" x="589.892226" y="151.722444" style="fill: #ff0000; stroke: #ff0000; stroke-width: 1.5"/>
     <use xlink:href="#mb6bba993a1" x="348.208713" y="496.108698" style="fill: #ff0000; stroke: #ff0000; stroke-width: 1.5"/>
     <use xlink:href="#mb6bba993a1" x="648.196582" y="207.709672" style="fill: #ff0000; stroke: #ff0000; stroke-width: 1.5"/>
     <use xlink:href="#mb6bba993a1" x="410.029292" y="76.351237" style="fill: #ff0000; stroke: #ff0000; stroke-width: 1.5"/>
     <use xlink:href="#mb6bba993a1" x="241.340118" y="487.375411" style="fill: #ff0000; stroke: #ff0000; stroke-width: 1.5"/>
     <use xlink:href="#mb6bba993a1" x="253.036194" y="-1" style="fill: #ff0000; stroke: #ff0000; stroke-width: 1.5"/>
     <use xlink:href="#mb6bba993a1" x="234.114555" y="-1" style="fill: #ff0000; stroke: #ff0000; stroke-width: 1.5"/>
     <use xlink:href="#mb6bba993a1" x="207.70496" y="408.669307" style="fill: #ff0000; stroke: #ff0000; stroke-width: 1.5"/>
     <use xlink:href="#mb6bba993a1" x="388.537953" y="438.624098" style="fill: #ff0000; stroke: #ff0000; stroke-width: 1.5"/>
     <use xlink:href="#mb6bba993a1" x="589.099309" y="268.673766" style="fill: #ff0000; stroke: #ff0000; stroke-width: 1.5"/>
     <use xlink:href="#mb6bba993a1" x="471.980643" y="42.309207" style="fill: #ff0000; stroke: #ff0000; stroke-width: 1.5"/>
     <use xlink:href="#mb6bba993a1" x="370.842347" y="450.064677" style="fill: #ff0000; stroke: #ff0000; stroke-width: 1.5"/>
     <use xlink:href="#mb6bba993a1" x="356.38181" y="502.534343" style="fill: #ff0000; stroke: #ff0000; stroke-width: 1.5"/>
     <use xlink:href="#mb6bba993a1" x="367.787387" y="335.234283" style="fill: #ff0000; stroke: #ff0000; stroke-width: 1.5"/>
     <use xlink:href="#mb6bba993a1" x="459.447174" y="375.840971" style="fill: #ff0000; stroke: #ff0000; stroke-width: 1.5"/>
     <use xlink:href="#mb6bba993a1" x="256.75207" y="516.594464" style="fill: #ff0000; stroke: #ff0000; stroke-width: 1.5"/>
     <use xlink:href="#mb6bba993a1" x="310.635728" y="-1" style="fill: #ff0000; stroke: #ff0000; stroke-width: 1.5"/>
     <use xlink:href="#mb6bba993a1" x="299.179997" y="-1" style="fill: #ff0000; stroke: #ff0000; stroke-width: 1.5"/>
     <use xlink:href="#mb6bba993a1" x="189.733153" y="364.59769" style="fill: #ff0000; stroke: #ff0000; stroke-width: 1.5"/>
     <use xlink:href="#mb6bba993a1" x="452.756982" y="360.417802" style="fill: #ff0000; stroke: #ff0000; stroke-width: 1.5"/>
     <use xlink:href="#mb6bba993a1" x="513.849406" y="281.265207" style="fill: #ff0000; stroke: #ff0000; stroke-width: 1.5"/>
     <use xlink:href="#mb6bba993a1" x="305.031592" y="368.035078" style="fill: #ff0000; stroke: #ff0000; stroke-width: 1.5"/>
     <use xlink:href="#mb6bba993a1" x="207.384933" y="369.534473" style="fill: #ff0000; stroke: #ff0000; stroke-width: 1.5"/>
     <use xlink:href="#mb6bba993a1" x="539.765714" y="296.300229" style="fill: #ff0000; stroke: #ff0000; stroke-width: 1.5"/>
     <use xlink:href="#mb6bba993a1" x="648.318009" y="182.468575" style="fill: #ff0000; stroke: #ff0000; stroke-width: 1.5"/>
     <use xlink:href="#mb6bba993a1" x="492.928776" y="-1" style="fill: #ff0000; stroke: #ff0000; stroke-width: 1.5"/>
     <use xlink:href="#mb6bba993a1" x="477.540815" y="-1" style="fill: #ff0000; stroke: #ff0000; stroke-width: 1.5"/>
     <use xlink:href="#mb6bba993a1" x="598.535644" y="183.454858" style="fill: #ff0000; stroke: #ff0000; stroke-width: 1.5"/>
     <use xlink:href="#mb6bba993a1" x="512.78349" y="147.953998" style="fill: #ff0000; stroke: #ff0000; stroke-width: 1.5"/>
     <use xlink:href="#mb6bba993a1" x="254.690585" y="414.241775" style="fill: #ff0000; stroke: #ff0000; stroke-width: 1.5"/>
     <use xlink:href="#mb6bba993a1" x="441.569187" y="325.913922" style="fill: #ff0000; stroke: #ff0000; stroke-width: 1.5"/>
     <use xlink:href="#mb6bba993a1" x="527.74782" y="237.327964" style="fill: #ff0000; stroke: #ff0000; stroke-width: 1.5"/>
     <use xlink:href="#mb6bba993a1" x="186.133627" y="483.678546" style="fill: #ff0000; stroke: #ff0000; stroke-width: 1.5"/>
     <use xlink:href="#mb6bba993a1" x="428.728353" y="398.927625" style="fill: #ff0000; stroke: #ff0000; stroke-width: 1.5"/>
     <use xlink:href="#mb6bba993a1" x="550.18433" y="230.327594" style="fill: #ff0000; stroke: #ff0000; stroke-width: 1.5"/>
     <use xlink:href="#mb6bba993a1" x="293.25176" y="274.458938" style="fill: #ff0000; stroke: #ff0000; stroke-width: 1.5"/>
     <use xlink:href="#mb6bba993a1" x="430.22378" y="215.571812" style="fill: #ff0000; stroke: #ff0000; stroke-width: 1.5"/>
     <use xlink:href="#mb6bba993a1" x="218.630601" y="182.406999" style="fill: #ff0000; stroke: #ff0000; stroke-width: 1.5"/>
     <use xlink:href="#mb6bba993a1" x="258.54855" y="108.67927" style="fill: #ff0000; stroke: #ff0000; stroke-width: 1.5"/>
     <use xlink:href="#mb6bba993a1" x="641.622925" y="150.529456" style="fill: #ff0000; stroke: #ff0000; stroke-width: 1.5"/>
     <use xlink:href="#mb6bba993a1" x="408.927213" y="414.631363" style="fill: #ff0000; stroke: #ff0000; stroke-width: 1.5"/>
     <use xlink:href="#mb6bba993a1" x="222.061214" y="3.230864" style="fill: #ff0000; stroke: #ff0000; stroke-width: 1.5"/>
     <use xlink:href="#mb6bba993a1" x="172.831595" y="234.349863" style="fill: #ff0000; stroke: #ff0000; stroke-width: 1.5"/>
     <use xlink:href="#mb6bba993a1" x="586.423961" y="224.028182" style="fill: #ff0000; stroke: #ff0000; stroke-width: 1.5"/>
     <use xlink:href="#mb6bba993a1" x="581.417209" y="-1" style="fill: #ff0000; stroke: #ff0000; stroke-width: 1.5"/>
     <use xlink:href="#mb6bba993a1" x="464.936117" y="-1" style="fill: #ff0000; stroke: #ff0000; stroke-width: 1.5"/>
     <use xlink:href="#mb6bba993a1" x="379.941778" y="266.687667" style="fill: #ff0000; stroke: #ff0000; stroke-width: 1.5"/>
     <use xlink:href="#mb6bba993a1" x="410.738246" y="201.39628" style="fill: #ff0000; stroke: #ff0000; stroke-width: 1.5"/>
     <use xlink:href="#mb6bba993a1" x="425.163341" y="-1" style="fill: #ff0000; stroke: #ff0000; stroke-width: 1.5"/>
     <use xlink:href="#mb6bba993a1" x="545.349476" y="-1" style="fill: #ff0000; stroke: #ff0000; stroke-width: 1.5"/>
     <use xlink:href="#mb6bba993a1" x="625.263245" y="232.738833" style="fill: #ff0000; stroke: #ff0000; stroke-width: 1.5"/>
     <use xlink:href="#mb6bba993a1" x="539.798299" y="-1" style="fill: #ff0000; stroke: #ff0000; stroke-width: 1.5"/>
     <use xlink:href="#mb6bba993a1" x="513.574948" y="-1" style="fill: #ff0000; stroke: #ff0000; stroke-width: 1.5"/>
     <use xlink:href="#mb6bba993a1" x="540.766502" y="276.258343" style="fill: #ff0000; stroke: #ff0000; stroke-width: 1.5"/>
     <use xlink:href="#mb6bba993a1" x="286.993272" y="285.690524" style="fill: #ff0000; stroke: #ff0000; stroke-width: 1.5"/>
     <use xlink:href="#mb6bba993a1" x="566.828627" y="243.574851" style="fill: #ff0000; stroke: #ff0000; stroke-width: 1.5"/>
     <use xlink:href="#mb6bba993a1" x="324.847078" y="27.787904" style="fill: #ff0000; stroke: #ff0000; stroke-width: 1.5"/>
     <use xlink:href="#mb6bba993a1" x="337.976589" y="-1" style="fill: #ff0000; stroke: #ff0000; stroke-width: 1.5"/>
     <use xlink:href="#mb6bba993a1" x="412.546849" y="-1" style="fill: #ff0000; stroke: #ff0000; stroke-width: 1.5"/>
     <use xlink:href="#mb6bba993a1" x="346.775118" y="205.58817" style="fill: #ff0000; stroke: #ff0000; stroke-width: 1.5"/>
     <use xlink:href="#mb6bba993a1" x="373.638978" y="309.409375" style="fill: #ff0000; stroke: #ff0000; stroke-width: 1.5"/>
     <use xlink:href="#mb6bba993a1" x="562.281237" y="-1" style="fill: #ff0000; stroke: #ff0000; stroke-width: 1.5"/>
     <use xlink:href="#mb6bba993a1" x="568.782223" y="-1" style="fill: #ff0000; stroke: #ff0000; stroke-width: 1.5"/>
     <use xlink:href="#mb6bba993a1" x="359.874367" y="483.204897" style="fill: #ff0000; stroke: #ff0000; stroke-width: 1.5"/>
     <use xlink:href="#mb6bba993a1" x="155.605969" y="551.218264" style="fill: #ff0000; stroke: #ff0000; stroke-width: 1.5"/>
     <use xlink:href="#mb6bba993a1" x="190.590171" y="306.261704" style="fill: #ff0000; stroke: #ff0000; stroke-width: 1.5"/>
     <use xlink:href="#mb6bba993a1" x="229.341797" y="282.537331" style="fill: #ff0000; stroke: #ff0000; stroke-width: 1.5"/>
     <use xlink:href="#mb6bba993a1" x="517.884957" y="326.649805" style="fill: #ff0000; stroke: #ff0000; stroke-width: 1.5"/>
     <use xlink:href="#mb6bba993a1" x="440.521762" y="425.420705" style="fill: #ff0000; stroke: #ff0000; stroke-width: 1.5"/>
     <use xlink:href="#mb6bba993a1" x="551.927888" y="304.762567" style="fill: #ff0000; stroke: #ff0000; stroke-width: 1.5"/>
     <use xlink:href="#mb6bba993a1" x="496.131694" y="-1" style="fill: #ff0000; stroke: #ff0000; stroke-width: 1.5"/>
     <use xlink:href="#mb6bba993a1" x="314.570298" y="-1" style="fill: #ff0000; stroke: #ff0000; stroke-width: 1.5"/>
     <use xlink:href="#mb6bba993a1" x="294.915889" y="109.387298" style="fill: #ff0000; stroke: #ff0000; stroke-width: 1.5"/>
     <use xlink:href="#mb6bba993a1" x="465.593607" y="182.977513" style="fill: #ff0000; stroke: #ff0000; stroke-width: 1.5"/>
     <use xlink:href="#mb6bba993a1" x="341.446062" y="368.288033" style="fill: #ff0000; stroke: #ff0000; stroke-width: 1.5"/>
     <use xlink:href="#mb6bba993a1" x="309.720997" y="504.194654" style="fill: #ff0000; stroke: #ff0000; stroke-width: 1.5"/>
     <use xlink:href="#mb6bba993a1" x="255.013438" y="428.773852" style="fill: #ff0000; stroke: #ff0000; stroke-width: 1.5"/>
     <use xlink:href="#mb6bba993a1" x="288.499652" y="-1" style="fill: #ff0000; stroke: #ff0000; stroke-width: 1.5"/>
     <use xlink:href="#mb6bba993a1" x="293.211907" y="-1" style="fill: #ff0000; stroke: #ff0000; stroke-width: 1.5"/>
     <use xlink:href="#mb6bba993a1" x="276.215283" y="488.808643" style="fill: #ff0000; stroke: #ff0000; stroke-width: 1.5"/>
     <use xlink:href="#mb6bba993a1" x="442.999917" y="414.885859" style="fill: #ff0000; stroke: #ff0000; stroke-width: 1.5"/>
    </g>
   </g>
   <g id="PolyCollection_1">
    <defs>
     <path id="m45130426f8" d="M 143.0625 -262.419219 
L 143.0625 -467.47614 
L 144.116519 -465.0132 
L 145.170537 -462.562692 
L 146.224556 -460.124682 
L 147.278575 -457.699236 
L 148.332593 -455.286417 
L 149.386612 -452.886288 
L 150.440631 -450.498914 
L 151.494649 -448.124354 
L 152.548668 -445.76267 
L 153.602687 -443.413923 
L 154.656705 -441.07817 
L 155.710724 -438.75547 
L 156.764743 -436.44588 
L 157.818761 -434.149456 
L 158.87278 -431.866254 
L 159.926799 -429.596328 
L 160.980817 -427.339731 
L 162.034836 -425.096515 
L 163.088855 -422.866733 
L 164.142873 -420.650433 
L 165.196892 -418.447664 
L 166.250911 -416.258476 
L 167.304929 -414.082913 
L 168.358948 -411.921021 
L 169.412967 -409.772844 
L 170.466985 -407.638423 
L 171.521004 -405.5178 
L 172.575023 -403.411012 
L 173.629041 -401.318097 
L 174.68306 -399.23909 
L 175.737079 -397.174022 
L 176.791097 -395.122925 
L 177.845116 -393.085826 
L 178.899135 -391.062749 
L 179.953153 -389.053718 
L 181.007172 -387.058752 
L 182.061191 -385.077866 
L 183.115209 -383.111073 
L 184.169228 -381.158382 
L 185.223246 -379.219798 
L 186.277265 -377.295322 
L 187.331284 -375.38495 
L 188.385302 -373.488675 
L 189.439321 -371.606484 
L 190.49334 -369.73836 
L 191.547358 -367.88428 
L 192.601377 -366.044217 
L 193.655396 -364.218138 
L 194.709414 -362.406004 
L 195.763433 -360.607771 
L 196.817452 -358.82339 
L 197.87147 -357.052804 
L 198.925489 -355.295953 
L 199.979508 -353.552768 
L 201.033526 -351.823176 
L 202.087545 -350.107099 
L 203.141564 -348.40445 
L 204.195582 -346.71514 
L 205.249601 -345.039072 
L 206.30362 -343.376144 
L 207.357638 -341.726249 
L 208.411657 -340.089274 
L 209.465676 -338.465101 
L 210.519694 -336.853608 
L 211.573713 -335.254668 
L 212.627732 -333.668149 
L 213.68175 -332.093916 
L 214.735769 -330.531829 
L 215.789788 -328.981745 
L 216.843806 -327.443518 
L 217.897825 -325.916997 
L 218.951844 -324.40203 
L 220.005862 -322.898461 
L 221.059881 -321.406133 
L 222.1139 -319.924885 
L 223.167918 -318.454555 
L 224.221937 -316.994979 
L 225.275956 -315.54599 
L 226.329974 -314.107421 
L 227.383993 -312.679104 
L 228.438012 -311.260867 
L 229.49203 -309.852539 
L 230.546049 -308.453948 
L 231.600068 -307.064919 
L 232.654086 -305.685277 
L 233.708105 -304.314848 
L 234.762124 -302.953454 
L 235.816142 -301.600918 
L 236.870161 -300.257061 
L 237.92418 -298.921706 
L 238.978198 -297.594672 
L 240.032217 -296.27578 
L 241.086236 -294.96485 
L 242.140254 -293.661702 
L 243.194273 -292.366154 
L 244.248292 -291.078028 
L 245.30231 -289.797142 
L 246.356329 -288.523318 
L 247.410348 -287.256377 
L 248.464366 -285.996141 
L 249.518385 -284.742435 
L 250.572404 -283.495084 
L 251.626422 -282.253917 
L 252.680441 -281.018763 
L 253.73446 -279.789456 
L 254.788478 -278.565833 
L 255.842497 -277.347736 
L 256.896516 -276.135009 
L 257.950534 -274.927504 
L 259.004553 -273.725077 
L 260.058572 -272.527589 
L 261.11259 -271.334912 
L 262.166609 -270.146921 
L 263.220628 -268.963501 
L 264.274646 -267.784548 
L 265.328665 -266.609963 
L 266.382683 -265.439662 
L 267.436702 -264.273568 
L 268.490721 -263.111617 
L 269.544739 -261.953759 
L 270.598758 -260.799954 
L 271.652777 -259.650177 
L 272.706795 -258.504418 
L 273.760814 -257.362681 
L 274.814833 -256.224987 
L 275.868851 -255.091371 
L 276.92287 -253.961886 
L 277.976889 -252.836604 
L 279.030907 -251.715612 
L 280.084926 -250.59902 
L 281.138945 -249.486952 
L 282.192963 -248.379557 
L 283.246982 -247.277 
L 284.301001 -246.179468 
L 285.355019 -245.08717 
L 286.409038 -244.000336 
L 287.463057 -242.919216 
L 288.517075 -241.844083 
L 289.571094 -240.775234 
L 290.625113 -239.712985 
L 291.679131 -238.657676 
L 292.73315 -237.609669 
L 293.787169 -236.569348 
L 294.841187 -235.537119 
L 295.895206 -234.51341 
L 296.949225 -233.498669 
L 298.003243 -232.493366 
L 299.057262 -231.497992 
L 300.111281 -230.513055 
L 301.165299 -229.539083 
L 302.219318 -228.576621 
L 303.273337 -227.62623 
L 304.327355 -226.688486 
L 305.381374 -225.76398 
L 306.435393 -224.853311 
L 307.489411 -223.957092 
L 308.54343 -223.07594 
L 309.597449 -222.21048 
L 310.651467 -221.361339 
L 311.705486 -220.529146 
L 312.759505 -219.714525 
L 313.813523 -218.918098 
L 314.867542 -218.140477 
L 315.921561 -217.382262 
L 316.975579 -216.644041 
L 318.029598 -215.926383 
L 319.083617 -215.229834 
L 320.137635 -214.55492 
L 321.191654 -213.902134 
L 322.245673 -213.271941 
L 323.299691 -212.664773 
L 324.35371 -212.081021 
L 325.407729 -211.52104 
L 326.461747 -210.98514 
L 327.515766 -210.473589 
L 328.569785 -209.986607 
L 329.623803 -209.524366 
L 330.677822 -209.08699 
L 331.731841 -208.674553 
L 332.785859 -208.287079 
L 333.839878 -207.924545 
L 334.893897 -207.586875 
L 335.947915 -207.273949 
L 337.001934 -206.985599 
L 338.055953 -206.721612 
L 339.109971 -206.481737 
L 340.16399 -206.26568 
L 341.218009 -206.073114 
L 342.272027 -205.903677 
L 343.326046 -205.75698 
L 344.380065 -205.632607 
L 345.434083 -205.530122 
L 346.488102 -205.449068 
L 347.54212 -205.388979 
L 348.596139 -205.349375 
L 349.650158 -205.329771 
L 350.704176 -205.32968 
L 351.758195 -205.348615 
L 352.812214 -205.386093 
L 353.866232 -205.441641 
L 354.920251 -205.514791 
L 355.97427 -205.605093 
L 357.028288 -205.712109 
L 358.082307 -205.835416 
L 359.136326 -205.974614 
L 360.190344 -206.129318 
L 361.244363 -206.299166 
L 362.298382 -206.483815 
L 363.3524 -206.682947 
L 364.406419 -206.896259 
L 365.460438 -207.123472 
L 366.514456 -207.364326 
L 367.568475 -207.618578 
L 368.622494 -207.886002 
L 369.676512 -208.166385 
L 370.730531 -208.459529 
L 371.78455 -208.765243 
L 372.838568 -209.083345 
L 373.892587 -209.413657 
L 374.946606 -209.755999 
L 376.000624 -210.110195 
L 377.054643 -210.476058 
L 378.108662 -210.853396 
L 379.16268 -211.242005 
L 380.216699 -211.641665 
L 381.270718 -212.05214 
L 382.324736 -212.473173 
L 383.378755 -212.904486 
L 384.432774 -213.345774 
L 385.486792 -213.796709 
L 386.540811 -214.256932 
L 387.59483 -214.72606 
L 388.648848 -215.203678 
L 389.702867 -215.689345 
L 390.756886 -216.182591 
L 391.810904 -216.68292 
L 392.864923 -217.189813 
L 393.918942 -217.702727 
L 394.97296 -218.221099 
L 396.026979 -218.74435 
L 397.080998 -219.271888 
L 398.135016 -219.80311 
L 399.189035 -220.337409 
L 400.243054 -220.874174 
L 401.297072 -221.4128 
L 402.351091 -221.952687 
L 403.40511 -222.493247 
L 404.459128 -223.03391 
L 405.513147 -223.574124 
L 406.567166 -224.113364 
L 407.621184 -224.651135 
L 408.675203 -225.186974 
L 409.729222 -225.720456 
L 410.78324 -226.251198 
L 411.837259 -226.778863 
L 412.891278 -227.303159 
L 413.945296 -227.823848 
L 414.999315 -228.340747 
L 416.053334 -228.853729 
L 417.107352 -229.362725 
L 418.161371 -229.867731 
L 419.21539 -230.368804 
L 420.269408 -230.866068 
L 421.323427 -231.359711 
L 422.377446 -231.849993 
L 423.431464 -232.33724 
L 424.485483 -232.821849 
L 425.539502 -233.304285 
L 426.59352 -233.785086 
L 427.647539 -234.264858 
L 428.701557 -234.744279 
L 429.755576 -235.224093 
L 430.809595 -235.705117 
L 431.863613 -236.188231 
L 432.917632 -236.674383 
L 433.971651 -237.164585 
L 435.025669 -237.659909 
L 436.079688 -238.161489 
L 437.133707 -238.670512 
L 438.187725 -239.188221 
L 439.241744 -239.715905 
L 440.295763 -240.2549 
L 441.349781 -240.80658 
L 442.4038 -241.372353 
L 443.457819 -241.953653 
L 444.511837 -242.551935 
L 445.565856 -243.168664 
L 446.619875 -243.805311 
L 447.673893 -244.463336 
L 448.727912 -245.144184 
L 449.781931 -245.849269 
L 450.835949 -246.579963 
L 451.889968 -247.337585 
L 452.943987 -248.123386 
L 453.998005 -248.938535 
L 455.052024 -249.784107 
L 456.106043 -250.661069 
L 457.160061 -251.570269 
L 458.21408 -252.512423 
L 459.268099 -253.488108 
L 460.322117 -254.497749 
L 461.376136 -255.541619 
L 462.430155 -256.61983 
L 463.484173 -257.732336 
L 464.538192 -258.878928 
L 465.592211 -260.059241 
L 466.646229 -261.272761 
L 467.700248 -262.518827 
L 468.754267 -263.796643 
L 469.808285 -265.105288 
L 470.862304 -266.443726 
L 471.916323 -267.81082 
L 472.970341 -269.205344 
L 474.02436 -270.625995 
L 475.078379 -272.071403 
L 476.132397 -273.54015 
L 477.186416 -275.030773 
L 478.240435 -276.54178 
L 479.294453 -278.071661 
L 480.348472 -279.618891 
L 481.402491 -281.181946 
L 482.456509 -282.759306 
L 483.510528 -284.349461 
L 484.564547 -285.950922 
L 485.618565 -287.56222 
L 486.672584 -289.181917 
L 487.726603 -290.808604 
L 488.780621 -292.44091 
L 489.83464 -294.077502 
L 490.888659 -295.71709 
L 491.942677 -297.358425 
L 492.996696 -299.000307 
L 494.050715 -300.641584 
L 495.104733 -302.281154 
L 496.158752 -303.917967 
L 497.212771 -305.551024 
L 498.266789 -307.179383 
L 499.320808 -308.802157 
L 500.374827 -310.418515 
L 501.428845 -312.027684 
L 502.482864 -313.628952 
L 503.536883 -315.221664 
L 504.590901 -316.805229 
L 505.64492 -318.379116 
L 506.698939 -319.94286 
L 507.752957 -321.496057 
L 508.806976 -323.038369 
L 509.860994 -324.569525 
L 510.915013 -326.089319 
L 511.969032 -327.597613 
L 513.02305 -329.094337 
L 514.077069 -330.579491 
L 515.131088 -332.053139 
L 516.185106 -333.515418 
L 517.239125 -334.966532 
L 518.293144 -336.40675 
L 519.347162 -337.836413 
L 520.401181 -339.255921 
L 521.4552 -340.665741 
L 522.509218 -342.066401 
L 523.563237 -343.458484 
L 524.617256 -344.842628 
L 525.671274 -346.21952 
L 526.725293 -347.589892 
L 527.779312 -348.954512 
L 528.83333 -350.31418 
L 529.887349 -351.669719 
L 530.941368 -353.021968 
L 531.995386 -354.37177 
L 533.049405 -355.719967 
L 534.103424 -357.067389 
L 535.157442 -358.414839 
L 536.211461 -359.76309 
L 537.26548 -361.112872 
L 538.319498 -362.464862 
L 539.373517 -363.819673 
L 540.427536 -365.177853 
L 541.481554 -366.539869 
L 542.535573 -367.906108 
L 543.589592 -369.276868 
L 544.64361 -370.652357 
L 545.697629 -372.032689 
L 546.751648 -373.417887 
L 547.805666 -374.807881 
L 548.859685 -376.20251 
L 549.913704 -377.601531 
L 550.967722 -379.004615 
L 552.021741 -380.41136 
L 553.07576 -381.821293 
L 554.129778 -383.233879 
L 555.183797 -384.648527 
L 556.237816 -386.064595 
L 557.291834 -387.481402 
L 558.345853 -388.89823 
L 559.399872 -390.314334 
L 560.45389 -391.728945 
L 561.507909 -393.141281 
L 562.561928 -394.550545 
L 563.615946 -395.955936 
L 564.669965 -397.35665 
L 565.723984 -398.751883 
L 566.778002 -400.140839 
L 567.832021 -401.522726 
L 568.88604 -402.896761 
L 569.940058 -404.262174 
L 570.994077 -405.618205 
L 572.048096 -406.964109 
L 573.102114 -408.299153 
L 574.156133 -409.62262 
L 575.210152 -410.933807 
L 576.26417 -412.232025 
L 577.318189 -413.5166 
L 578.372208 -414.786872 
L 579.426226 -416.042195 
L 580.480245 -417.281937 
L 581.534264 -418.505477 
L 582.588282 -419.712211 
L 583.642301 -420.901542 
L 584.69632 -422.072889 
L 585.750338 -423.225679 
L 586.804357 -424.359353 
L 587.858376 -425.473359 
L 588.912394 -426.567158 
L 589.966413 -427.64022 
L 591.020431 -428.692022 
L 592.07445 -429.722054 
L 593.128469 -430.72981 
L 594.182487 -431.714798 
L 595.236506 -432.676529 
L 596.290525 -433.614526 
L 597.344543 -434.528319 
L 598.398562 -435.417444 
L 599.452581 -436.281449 
L 600.506599 -437.119884 
L 601.560618 -437.932313 
L 602.614637 -438.718303 
L 603.668655 -439.477431 
L 604.722674 -440.20928 
L 605.776693 -440.913443 
L 606.830711 -441.58952 
L 607.88473 -442.237117 
L 608.938749 -442.85585 
L 609.992767 -443.445343 
L 611.046786 -444.005226 
L 612.100805 -444.53514 
L 613.154823 -445.034733 
L 614.208842 -445.503659 
L 615.262861 -445.941584 
L 616.316879 -446.348181 
L 617.370898 -446.723132 
L 618.424917 -447.066126 
L 619.478935 -447.376864 
L 620.532954 -447.655055 
L 621.586973 -447.900415 
L 622.640991 -448.112673 
L 623.69501 -448.291564 
L 624.749029 -448.436835 
L 625.803047 -448.548241 
L 626.857066 -448.62555 
L 627.911085 -448.668538 
L 628.965103 -448.676991 
L 630.019122 -448.650706 
L 631.073141 -448.589491 
L 632.127159 -448.493167 
L 633.181178 -448.361562 
L 634.235197 -448.194519 
L 635.289215 -447.991891 
L 636.343234 -447.753543 
L 637.397253 -447.479353 
L 638.451271 -447.169212 
L 639.50529 -446.823022 
L 640.559309 -446.440698 
L 641.613327 -446.022171 
L 642.667346 -445.567383 
L 643.721365 -445.076291 
L 644.775383 -447.493385 
L 645.829402 -450.30271 
L 646.883421 -453.121117 
L 647.937439 -455.948412 
L 648.991458 -458.784414 
L 650.045477 -461.628953 
L 651.099495 -464.481869 
L 652.153514 -467.343013 
L 653.207533 -470.212243 
L 654.261551 -473.089431 
L 655.31557 -475.974451 
L 656.369589 -478.867189 
L 657.423607 -481.767536 
L 658.477626 -484.675391 
L 659.531645 -487.590658 
L 660.585663 -490.513247 
L 661.639682 -493.443075 
L 662.693701 -496.380063 
L 663.747719 -499.324135 
L 664.801738 -502.275221 
L 665.855757 -505.233256 
L 666.909775 -508.198177 
L 667.963794 -511.169925 
L 669.017812 -514.148444 
L 669.017812 -430.353135 
L 669.017812 -430.353135 
L 667.963794 -431.049041 
L 666.909775 -431.738626 
L 665.855757 -432.421812 
L 664.801738 -433.098513 
L 663.747719 -433.768639 
L 662.693701 -434.432093 
L 661.639682 -435.088774 
L 660.585663 -435.738571 
L 659.531645 -436.381368 
L 658.477626 -437.017042 
L 657.423607 -437.645461 
L 656.369589 -438.266484 
L 655.31557 -438.879962 
L 654.261551 -439.485735 
L 653.207533 -440.083634 
L 652.153514 -440.673479 
L 651.099495 -441.255078 
L 650.045477 -441.828226 
L 648.991458 -442.392706 
L 647.937439 -442.948288 
L 646.883421 -443.494724 
L 645.829402 -444.031754 
L 644.775383 -444.5591 
L 643.721365 -444.693524 
L 642.667346 -441.919055 
L 641.613327 -439.18038 
L 640.559309 -436.477687 
L 639.50529 -433.811144 
L 638.451271 -431.1809 
L 637.397253 -428.587085 
L 636.343234 -426.029812 
L 635.289215 -423.509172 
L 634.235197 -421.025239 
L 633.181178 -418.57807 
L 632.127159 -416.167701 
L 631.073141 -413.79415 
L 630.019122 -411.457417 
L 628.965103 -409.157484 
L 627.911085 -406.894313 
L 626.857066 -404.667849 
L 625.803047 -402.478018 
L 624.749029 -400.324727 
L 623.69501 -398.207865 
L 622.640991 -396.127301 
L 621.586973 -394.082886 
L 620.532954 -392.074453 
L 619.478935 -390.101815 
L 618.424917 -388.164766 
L 617.370898 -386.263081 
L 616.316879 -384.396516 
L 615.262861 -382.564806 
L 614.208842 -380.76767 
L 613.154823 -379.004802 
L 612.100805 -377.27588 
L 611.046786 -375.580562 
L 609.992767 -373.918483 
L 608.938749 -372.28926 
L 607.88473 -370.692487 
L 606.830711 -369.127741 
L 605.776693 -367.594574 
L 604.722674 -366.092519 
L 603.668655 -364.621086 
L 602.614637 -363.179766 
L 601.560618 -361.768024 
L 600.506599 -360.385306 
L 599.452581 -359.031036 
L 598.398562 -357.704611 
L 597.344543 -356.405411 
L 596.290525 -355.132787 
L 595.236506 -353.886071 
L 594.182487 -352.664569 
L 593.128469 -351.467562 
L 592.07445 -350.294309 
L 591.020431 -349.144043 
L 589.966413 -348.01597 
L 588.912394 -346.909275 
L 587.858376 -345.823112 
L 586.804357 -344.756612 
L 585.750338 -343.70888 
L 584.69632 -342.678992 
L 583.642301 -341.665998 
L 582.588282 -340.66892 
L 581.534264 -339.686753 
L 580.480245 -338.718464 
L 579.426226 -337.762991 
L 578.372208 -336.819245 
L 577.318189 -335.886106 
L 576.26417 -334.96243 
L 575.210152 -334.04704 
L 574.156133 -333.138736 
L 573.102114 -332.236288 
L 572.048096 -331.338438 
L 570.994077 -330.443907 
L 569.940058 -329.551389 
L 568.88604 -328.659554 
L 567.832021 -327.767055 
L 566.778002 -326.872523 
L 565.723984 -325.974576 
L 564.669965 -325.07182 
L 563.615946 -324.162852 
L 562.561928 -323.246266 
L 561.507909 -322.320658 
L 560.45389 -321.384633 
L 559.399872 -320.436808 
L 558.345853 -319.475823 
L 557.291834 -318.500348 
L 556.237816 -317.509093 
L 555.183797 -316.500812 
L 554.129778 -315.474321 
L 553.07576 -314.428499 
L 552.021741 -313.362307 
L 550.967722 -312.274794 
L 549.913704 -311.165106 
L 548.859685 -310.032501 
L 547.805666 -308.876353 
L 546.751648 -307.696164 
L 545.697629 -306.491573 
L 544.64361 -305.262358 
L 543.589592 -304.008444 
L 542.535573 -302.729905 
L 541.481554 -301.426968 
L 540.427536 -300.100008 
L 539.373517 -298.74955 
L 538.319498 -297.376263 
L 537.26548 -295.980954 
L 536.211461 -294.564561 
L 535.157442 -293.128146 
L 534.103424 -291.672879 
L 533.049405 -290.200035 
L 531.995386 -288.710974 
L 530.941368 -287.207136 
L 529.887349 -285.690021 
L 528.83333 -284.161183 
L 527.779312 -282.622215 
L 526.725293 -281.074733 
L 525.671274 -279.520371 
L 524.617256 -277.960768 
L 523.563237 -276.397554 
L 522.509218 -274.832346 
L 521.4552 -273.266736 
L 520.401181 -271.702285 
L 519.347162 -270.140515 
L 518.293144 -268.582903 
L 517.239125 -267.030878 
L 516.185106 -265.485811 
L 515.131088 -263.949017 
L 514.077069 -262.421745 
L 513.02305 -260.905184 
L 511.969032 -259.400449 
L 510.915013 -257.908588 
L 509.860994 -256.430578 
L 508.806976 -254.96732 
L 507.752957 -253.51964 
L 506.698939 -252.088289 
L 505.64492 -250.673942 
L 504.590901 -249.277194 
L 503.536883 -247.898562 
L 502.482864 -246.538484 
L 501.428845 -245.197318 
L 500.374827 -243.875342 
L 499.320808 -242.572752 
L 498.266789 -241.289664 
L 497.212771 -240.026112 
L 496.158752 -238.782048 
L 495.104733 -237.55734 
L 494.050715 -236.351778 
L 492.996696 -235.165064 
L 491.942677 -233.996823 
L 490.888659 -232.846595 
L 489.83464 -231.713839 
L 488.780621 -230.597934 
L 487.726603 -229.498178 
L 486.672584 -228.413792 
L 485.618565 -227.34392 
L 484.564547 -226.287634 
L 483.510528 -225.243933 
L 482.456509 -224.211747 
L 481.402491 -223.189948 
L 480.348472 -222.177344 
L 479.294453 -221.172696 
L 478.240435 -220.174717 
L 477.186416 -219.182083 
L 476.132397 -218.193441 
L 475.078379 -217.207422 
L 474.02436 -216.222646 
L 472.970341 -215.23774 
L 471.916323 -214.251345 
L 470.862304 -213.262136 
L 469.808285 -212.268828 
L 468.754267 -211.270198 
L 467.700248 -210.265095 
L 466.646229 -209.252453 
L 465.592211 -208.231308 
L 464.538192 -207.200807 
L 463.484173 -206.160221 
L 462.430155 -205.108955 
L 461.376136 -204.04655 
L 460.322117 -202.972695 
L 459.268099 -201.887227 
L 458.21408 -200.790127 
L 457.160061 -199.681527 
L 456.106043 -198.561697 
L 455.052024 -197.431042 
L 453.998005 -196.290096 
L 452.943987 -195.139508 
L 451.889968 -193.980034 
L 450.835949 -192.812523 
L 449.781931 -191.637909 
L 448.727912 -190.457191 
L 447.673893 -189.271429 
L 446.619875 -188.081726 
L 445.565856 -186.88922 
L 444.511837 -185.695069 
L 443.457819 -184.500446 
L 442.4038 -183.306527 
L 441.349781 -182.11448 
L 440.295763 -180.925462 
L 439.241744 -179.740609 
L 438.187725 -178.561031 
L 437.133707 -177.387807 
L 436.079688 -176.221976 
L 435.025669 -175.06454 
L 433.971651 -173.916455 
L 432.917632 -172.778627 
L 431.863613 -171.651916 
L 430.809595 -170.537123 
L 429.755576 -169.435001 
L 428.701557 -168.346241 
L 427.647539 -167.271479 
L 426.59352 -166.211292 
L 425.539502 -165.166197 
L 424.485483 -164.136653 
L 423.431464 -163.123058 
L 422.377446 -162.12575 
L 421.323427 -161.145008 
L 420.269408 -160.181053 
L 419.21539 -159.234049 
L 418.161371 -158.304102 
L 417.107352 -157.391264 
L 416.053334 -156.495532 
L 414.999315 -155.616853 
L 413.945296 -154.755125 
L 412.891278 -153.910196 
L 411.837259 -153.081873 
L 410.78324 -152.269918 
L 409.729222 -151.474057 
L 408.675203 -150.693979 
L 407.621184 -149.929342 
L 406.567166 -149.179776 
L 405.513147 -148.444886 
L 404.459128 -147.724259 
L 403.40511 -147.017462 
L 402.351091 -146.324056 
L 401.297072 -145.643591 
L 400.243054 -144.975617 
L 399.189035 -144.319685 
L 398.135016 -143.675354 
L 397.080998 -143.042192 
L 396.026979 -142.419785 
L 394.97296 -141.807737 
L 393.918942 -141.205677 
L 392.864923 -140.61326 
L 391.810904 -140.030171 
L 390.756886 -139.456129 
L 389.702867 -138.890889 
L 388.648848 -138.334243 
L 387.59483 -137.78602 
L 386.540811 -137.24609 
L 385.486792 -136.714365 
L 384.432774 -136.190793 
L 383.378755 -135.675361 
L 382.324736 -135.168097 
L 381.270718 -134.669061 
L 380.216699 -134.178346 
L 379.16268 -133.696079 
L 378.108662 -133.22241 
L 377.054643 -132.757517 
L 376.000624 -132.301595 
L 374.946606 -131.854859 
L 373.892587 -131.417533 
L 372.838568 -130.989851 
L 371.78455 -130.572054 
L 370.730531 -130.164381 
L 369.676512 -129.767067 
L 368.622494 -129.380343 
L 367.568475 -129.004427 
L 366.514456 -128.639526 
L 365.460438 -128.285829 
L 364.406419 -127.943505 
L 363.3524 -127.612703 
L 362.298382 -127.293548 
L 361.244363 -126.986139 
L 360.190344 -126.69055 
L 359.136326 -126.406827 
L 358.082307 -126.134988 
L 357.028288 -125.875025 
L 355.97427 -125.626901 
L 354.920251 -125.390552 
L 353.866232 -125.165889 
L 352.812214 -124.9528 
L 351.758195 -124.751149 
L 350.704176 -124.560779 
L 349.650158 -124.381518 
L 348.596139 -124.213177 
L 347.54212 -124.055556 
L 346.488102 -123.908443 
L 345.434083 -123.771625 
L 344.380065 -123.644883 
L 343.326046 -123.528004 
L 342.272027 -123.420775 
L 341.218009 -123.322997 
L 340.16399 -123.234481 
L 339.109971 -123.155054 
L 338.055953 -123.084564 
L 337.001934 -123.022883 
L 335.947915 -122.969905 
L 334.893897 -122.925557 
L 333.839878 -122.889793 
L 332.785859 -122.862604 
L 331.731841 -122.844011 
L 330.677822 -122.834074 
L 329.623803 -122.832889 
L 328.569785 -122.840587 
L 327.515766 -122.857336 
L 326.461747 -122.883342 
L 325.407729 -122.918843 
L 324.35371 -122.964112 
L 323.299691 -123.019454 
L 322.245673 -123.085203 
L 321.191654 -123.161721 
L 320.137635 -123.249394 
L 319.083617 -123.34863 
L 318.029598 -123.459856 
L 316.975579 -123.583514 
L 315.921561 -123.720061 
L 314.867542 -123.869961 
L 313.813523 -124.033685 
L 312.759505 -124.211707 
L 311.705486 -124.404501 
L 310.651467 -124.612538 
L 309.597449 -124.836284 
L 308.54343 -125.076195 
L 307.489411 -125.332717 
L 306.435393 -125.606282 
L 305.381374 -125.897306 
L 304.327355 -126.206188 
L 303.273337 -126.533307 
L 302.219318 -126.87902 
L 301.165299 -127.243663 
L 300.111281 -127.627545 
L 299.057262 -128.030953 
L 298.003243 -128.454145 
L 296.949225 -128.897354 
L 295.895206 -129.360784 
L 294.841187 -129.84461 
L 293.787169 -130.348981 
L 292.73315 -130.874013 
L 291.679131 -131.419798 
L 290.625113 -131.986393 
L 289.571094 -132.573831 
L 288.517075 -133.182112 
L 287.463057 -133.811209 
L 286.409038 -134.461068 
L 285.355019 -135.131603 
L 284.301001 -135.822705 
L 283.246982 -136.534233 
L 282.192963 -137.266023 
L 281.138945 -138.017884 
L 280.084926 -138.789599 
L 279.030907 -139.580928 
L 277.976889 -140.391606 
L 276.92287 -141.221346 
L 275.868851 -142.069837 
L 274.814833 -142.936749 
L 273.760814 -143.821731 
L 272.706795 -144.724412 
L 271.652777 -145.644403 
L 270.598758 -146.581297 
L 269.544739 -147.534673 
L 268.490721 -148.504092 
L 267.436702 -149.489102 
L 266.382683 -150.489236 
L 265.328665 -151.504018 
L 264.274646 -152.532958 
L 263.220628 -153.575557 
L 262.166609 -154.631308 
L 261.11259 -155.699694 
L 260.058572 -156.780194 
L 259.004553 -157.872277 
L 257.950534 -158.975413 
L 256.896516 -160.089063 
L 255.842497 -161.212688 
L 254.788478 -162.345748 
L 253.73446 -163.4877 
L 252.680441 -164.638003 
L 251.626422 -165.796117 
L 250.572404 -166.961502 
L 249.518385 -168.133624 
L 248.464366 -169.31195 
L 247.410348 -170.495953 
L 246.356329 -171.685109 
L 245.30231 -172.878902 
L 244.248292 -174.076822 
L 243.194273 -175.278363 
L 242.140254 -176.48303 
L 241.086236 -177.690333 
L 240.032217 -178.899793 
L 238.978198 -180.110936 
L 237.92418 -181.3233 
L 236.870161 -182.536431 
L 235.816142 -183.749883 
L 234.762124 -184.963221 
L 233.708105 -186.17602 
L 232.654086 -187.387863 
L 231.600068 -188.598344 
L 230.546049 -189.807067 
L 229.49203 -191.013646 
L 228.438012 -192.217703 
L 227.383993 -193.418872 
L 226.329974 -194.616795 
L 225.275956 -195.811125 
L 224.221937 -197.001524 
L 223.167918 -198.187664 
L 222.1139 -199.369226 
L 221.059881 -200.545901 
L 220.005862 -201.717387 
L 218.951844 -202.883394 
L 217.897825 -204.043641 
L 216.843806 -205.197854 
L 215.789788 -206.345769 
L 214.735769 -207.487131 
L 213.68175 -208.621693 
L 212.627732 -209.749218 
L 211.573713 -210.869477 
L 210.519694 -211.982249 
L 209.465676 -213.087322 
L 208.411657 -214.184491 
L 207.357638 -215.273563 
L 206.30362 -216.354348 
L 205.249601 -217.426668 
L 204.195582 -218.490352 
L 203.141564 -219.545235 
L 202.087545 -220.591163 
L 201.033526 -221.627986 
L 199.979508 -222.655563 
L 198.925489 -223.673762 
L 197.87147 -224.682455 
L 196.817452 -225.681523 
L 195.763433 -226.670851 
L 194.709414 -227.650334 
L 193.655396 -228.61987 
L 192.601377 -229.579365 
L 191.547358 -230.52873 
L 190.49334 -231.46788 
L 189.439321 -232.396738 
L 188.385302 -233.315229 
L 187.331284 -234.223285 
L 186.277265 -235.120841 
L 185.223246 -236.007836 
L 184.169228 -236.884214 
L 183.115209 -237.749921 
L 182.061191 -238.604908 
L 181.007172 -239.449128 
L 179.953153 -240.282537 
L 178.899135 -241.105093 
L 177.845116 -241.916757 
L 176.791097 -242.717494 
L 175.737079 -243.507268 
L 174.68306 -244.286046 
L 173.629041 -245.053798 
L 172.575023 -245.810493 
L 171.521004 -246.556103 
L 170.466985 -247.290602 
L 169.412967 -248.013963 
L 168.358948 -248.726162 
L 167.304929 -249.427175 
L 166.250911 -250.116978 
L 165.196892 -250.795551 
L 164.142873 -251.462871 
L 163.088855 -252.118917 
L 162.034836 -252.763671 
L 160.980817 -253.397112 
L 159.926799 -254.019222 
L 158.87278 -254.629983 
L 157.818761 -255.229378 
L 156.764743 -255.81739 
L 155.710724 -256.394003 
L 154.656705 -256.9592 
L 153.602687 -257.512968 
L 152.548668 -258.055292 
L 151.494649 -258.586159 
L 150.440631 -259.105555 
L 149.386612 -259.613469 
L 148.332593 -260.109888 
L 147.278575 -260.594803 
L 146.224556 -261.068202 
L 145.170537 -261.530077 
L 144.116519 -261.980418 
L 143.0625 -262.419219 
z
" style="stroke: #ffa500; stroke-opacity: 0.3"/>
    </defs>
    <g clip-path="url(#p2355b926b4)">
     <use xlink:href="#m45130426f8" x="0" y="645.12" style="fill: #ffa500; fill-opacity: 0.3; stroke: #ffa500; stroke-opacity: 0.3"/>
    </g>
   </g>
   <g id="matplotlib.axis_1">
    <g id="xtick_1">
     <g id="line2d_1">
      <path d="M 143.0625 561.418667 
L 143.0625 91.84 
" clip-path="url(#p2355b926b4)" style="fill: none; stroke-dasharray: 1.85,0.8; stroke-dashoffset: 0; stroke: #b0b0b0; stroke-width: 0.5"/>
     </g>
     <g id="line2d_2">
      <defs>
       <path id="m7041070721" d="M 0 0 
L 0 3.5 
" style="stroke: #000000; stroke-width: 0.8"/>
      </defs>
      <g>
       <use xlink:href="#m7041070721" x="143.0625" y="561.418667" style="stroke: #000000; stroke-width: 0.8"/>
      </g>
     </g>
     <g id="text_1">
      <!-- 0.4 -->
      <g transform="translate(135.110938 576.017104)scale(0.1 -0.1)">
       <defs>
        <path id="DejaVuSans-30" d="M 2034 4250 
Q 1547 4250 1301 3770 
Q 1056 3291 1056 2328 
Q 1056 1369 1301 889 
Q 1547 409 2034 409 
Q 2525 409 2770 889 
Q 3016 1369 3016 2328 
Q 3016 3291 2770 3770 
Q 2525 4250 2034 4250 
z
M 2034 4750 
Q 2819 4750 3233 4129 
Q 3647 3509 3647 2328 
Q 3647 1150 3233 529 
Q 2819 -91 2034 -91 
Q 1250 -91 836 529 
Q 422 1150 422 2328 
Q 422 3509 836 4129 
Q 1250 4750 2034 4750 
z
" transform="scale(0.015625)"/>
        <path id="DejaVuSans-2e" d="M 684 794 
L 1344 794 
L 1344 0 
L 684 0 
L 684 794 
z
" transform="scale(0.015625)"/>
        <path id="DejaVuSans-34" d="M 2419 4116 
L 825 1625 
L 2419 1625 
L 2419 4116 
z
M 2253 4666 
L 3047 4666 
L 3047 1625 
L 3713 1625 
L 3713 1100 
L 3047 1100 
L 3047 0 
L 2419 0 
L 2419 1100 
L 313 1100 
L 313 1709 
L 2253 4666 
z
" transform="scale(0.015625)"/>
       </defs>
       <use xlink:href="#DejaVuSans-30"/>
       <use xlink:href="#DejaVuSans-2e" x="63.623047"/>
       <use xlink:href="#DejaVuSans-34" x="95.410156"/>
      </g>
     </g>
    </g>
    <g id="xtick_2">
     <g id="line2d_3">
      <path d="M 208.806914 561.418667 
L 208.806914 91.84 
" clip-path="url(#p2355b926b4)" style="fill: none; stroke-dasharray: 1.85,0.8; stroke-dashoffset: 0; stroke: #b0b0b0; stroke-width: 0.5"/>
     </g>
     <g id="line2d_4">
      <g>
       <use xlink:href="#m7041070721" x="208.806914" y="561.418667" style="stroke: #000000; stroke-width: 0.8"/>
      </g>
     </g>
     <g id="text_2">
      <!-- 0.5 -->
      <g transform="translate(200.855352 576.017104)scale(0.1 -0.1)">
       <defs>
        <path id="DejaVuSans-35" d="M 691 4666 
L 3169 4666 
L 3169 4134 
L 1269 4134 
L 1269 2991 
Q 1406 3038 1543 3061 
Q 1681 3084 1819 3084 
Q 2600 3084 3056 2656 
Q 3513 2228 3513 1497 
Q 3513 744 3044 326 
Q 2575 -91 1722 -91 
Q 1428 -91 1123 -41 
Q 819 9 494 109 
L 494 744 
Q 775 591 1075 516 
Q 1375 441 1709 441 
Q 2250 441 2565 725 
Q 2881 1009 2881 1497 
Q 2881 1984 2565 2268 
Q 2250 2553 1709 2553 
Q 1456 2553 1204 2497 
Q 953 2441 691 2322 
L 691 4666 
z
" transform="scale(0.015625)"/>
       </defs>
       <use xlink:href="#DejaVuSans-30"/>
       <use xlink:href="#DejaVuSans-2e" x="63.623047"/>
       <use xlink:href="#DejaVuSans-35" x="95.410156"/>
      </g>
     </g>
    </g>
    <g id="xtick_3">
     <g id="line2d_5">
      <path d="M 274.551328 561.418667 
L 274.551328 91.84 
" clip-path="url(#p2355b926b4)" style="fill: none; stroke-dasharray: 1.85,0.8; stroke-dashoffset: 0; stroke: #b0b0b0; stroke-width: 0.5"/>
     </g>
     <g id="line2d_6">
      <g>
       <use xlink:href="#m7041070721" x="274.551328" y="561.418667" style="stroke: #000000; stroke-width: 0.8"/>
      </g>
     </g>
     <g id="text_3">
      <!-- 0.6 -->
      <g transform="translate(266.599766 576.017104)scale(0.1 -0.1)">
       <defs>
        <path id="DejaVuSans-36" d="M 2113 2584 
Q 1688 2584 1439 2293 
Q 1191 2003 1191 1497 
Q 1191 994 1439 701 
Q 1688 409 2113 409 
Q 2538 409 2786 701 
Q 3034 994 3034 1497 
Q 3034 2003 2786 2293 
Q 2538 2584 2113 2584 
z
M 3366 4563 
L 3366 3988 
Q 3128 4100 2886 4159 
Q 2644 4219 2406 4219 
Q 1781 4219 1451 3797 
Q 1122 3375 1075 2522 
Q 1259 2794 1537 2939 
Q 1816 3084 2150 3084 
Q 2853 3084 3261 2657 
Q 3669 2231 3669 1497 
Q 3669 778 3244 343 
Q 2819 -91 2113 -91 
Q 1303 -91 875 529 
Q 447 1150 447 2328 
Q 447 3434 972 4092 
Q 1497 4750 2381 4750 
Q 2619 4750 2861 4703 
Q 3103 4656 3366 4563 
z
" transform="scale(0.015625)"/>
       </defs>
       <use xlink:href="#DejaVuSans-30"/>
       <use xlink:href="#DejaVuSans-2e" x="63.623047"/>
       <use xlink:href="#DejaVuSans-36" x="95.410156"/>
      </g>
     </g>
    </g>
    <g id="xtick_4">
     <g id="line2d_7">
      <path d="M 340.295742 561.418667 
L 340.295742 91.84 
" clip-path="url(#p2355b926b4)" style="fill: none; stroke-dasharray: 1.85,0.8; stroke-dashoffset: 0; stroke: #b0b0b0; stroke-width: 0.5"/>
     </g>
     <g id="line2d_8">
      <g>
       <use xlink:href="#m7041070721" x="340.295742" y="561.418667" style="stroke: #000000; stroke-width: 0.8"/>
      </g>
     </g>
     <g id="text_4">
      <!-- 0.7 -->
      <g transform="translate(332.34418 576.017104)scale(0.1 -0.1)">
       <defs>
        <path id="DejaVuSans-37" d="M 525 4666 
L 3525 4666 
L 3525 4397 
L 1831 0 
L 1172 0 
L 2766 4134 
L 525 4134 
L 525 4666 
z
" transform="scale(0.015625)"/>
       </defs>
       <use xlink:href="#DejaVuSans-30"/>
       <use xlink:href="#DejaVuSans-2e" x="63.623047"/>
       <use xlink:href="#DejaVuSans-37" x="95.410156"/>
      </g>
     </g>
    </g>
    <g id="xtick_5">
     <g id="line2d_9">
      <path d="M 406.040156 561.418667 
L 406.040156 91.84 
" clip-path="url(#p2355b926b4)" style="fill: none; stroke-dasharray: 1.85,0.8; stroke-dashoffset: 0; stroke: #b0b0b0; stroke-width: 0.5"/>
     </g>
     <g id="line2d_10">
      <g>
       <use xlink:href="#m7041070721" x="406.040156" y="561.418667" style="stroke: #000000; stroke-width: 0.8"/>
      </g>
     </g>
     <g id="text_5">
      <!-- 0.8 -->
      <g transform="translate(398.088594 576.017104)scale(0.1 -0.1)">
       <defs>
        <path id="DejaVuSans-38" d="M 2034 2216 
Q 1584 2216 1326 1975 
Q 1069 1734 1069 1313 
Q 1069 891 1326 650 
Q 1584 409 2034 409 
Q 2484 409 2743 651 
Q 3003 894 3003 1313 
Q 3003 1734 2745 1975 
Q 2488 2216 2034 2216 
z
M 1403 2484 
Q 997 2584 770 2862 
Q 544 3141 544 3541 
Q 544 4100 942 4425 
Q 1341 4750 2034 4750 
Q 2731 4750 3128 4425 
Q 3525 4100 3525 3541 
Q 3525 3141 3298 2862 
Q 3072 2584 2669 2484 
Q 3125 2378 3379 2068 
Q 3634 1759 3634 1313 
Q 3634 634 3220 271 
Q 2806 -91 2034 -91 
Q 1263 -91 848 271 
Q 434 634 434 1313 
Q 434 1759 690 2068 
Q 947 2378 1403 2484 
z
M 1172 3481 
Q 1172 3119 1398 2916 
Q 1625 2713 2034 2713 
Q 2441 2713 2670 2916 
Q 2900 3119 2900 3481 
Q 2900 3844 2670 4047 
Q 2441 4250 2034 4250 
Q 1625 4250 1398 4047 
Q 1172 3844 1172 3481 
z
" transform="scale(0.015625)"/>
       </defs>
       <use xlink:href="#DejaVuSans-30"/>
       <use xlink:href="#DejaVuSans-2e" x="63.623047"/>
       <use xlink:href="#DejaVuSans-38" x="95.410156"/>
      </g>
     </g>
    </g>
    <g id="xtick_6">
     <g id="line2d_11">
      <path d="M 471.78457 561.418667 
L 471.78457 91.84 
" clip-path="url(#p2355b926b4)" style="fill: none; stroke-dasharray: 1.85,0.8; stroke-dashoffset: 0; stroke: #b0b0b0; stroke-width: 0.5"/>
     </g>
     <g id="line2d_12">
      <g>
       <use xlink:href="#m7041070721" x="471.78457" y="561.418667" style="stroke: #000000; stroke-width: 0.8"/>
      </g>
     </g>
     <g id="text_6">
      <!-- 0.9 -->
      <g transform="translate(463.833008 576.017104)scale(0.1 -0.1)">
       <defs>
        <path id="DejaVuSans-39" d="M 703 97 
L 703 672 
Q 941 559 1184 500 
Q 1428 441 1663 441 
Q 2288 441 2617 861 
Q 2947 1281 2994 2138 
Q 2813 1869 2534 1725 
Q 2256 1581 1919 1581 
Q 1219 1581 811 2004 
Q 403 2428 403 3163 
Q 403 3881 828 4315 
Q 1253 4750 1959 4750 
Q 2769 4750 3195 4129 
Q 3622 3509 3622 2328 
Q 3622 1225 3098 567 
Q 2575 -91 1691 -91 
Q 1453 -91 1209 -44 
Q 966 3 703 97 
z
M 1959 2075 
Q 2384 2075 2632 2365 
Q 2881 2656 2881 3163 
Q 2881 3666 2632 3958 
Q 2384 4250 1959 4250 
Q 1534 4250 1286 3958 
Q 1038 3666 1038 3163 
Q 1038 2656 1286 2365 
Q 1534 2075 1959 2075 
z
" transform="scale(0.015625)"/>
       </defs>
       <use xlink:href="#DejaVuSans-30"/>
       <use xlink:href="#DejaVuSans-2e" x="63.623047"/>
       <use xlink:href="#DejaVuSans-39" x="95.410156"/>
      </g>
     </g>
    </g>
    <g id="xtick_7">
     <g id="line2d_13">
      <path d="M 537.528984 561.418667 
L 537.528984 91.84 
" clip-path="url(#p2355b926b4)" style="fill: none; stroke-dasharray: 1.85,0.8; stroke-dashoffset: 0; stroke: #b0b0b0; stroke-width: 0.5"/>
     </g>
     <g id="line2d_14">
      <g>
       <use xlink:href="#m7041070721" x="537.528984" y="561.418667" style="stroke: #000000; stroke-width: 0.8"/>
      </g>
     </g>
     <g id="text_7">
      <!-- 1.0 -->
      <g transform="translate(529.577422 576.017104)scale(0.1 -0.1)">
       <defs>
        <path id="DejaVuSans-31" d="M 794 531 
L 1825 531 
L 1825 4091 
L 703 3866 
L 703 4441 
L 1819 4666 
L 2450 4666 
L 2450 531 
L 3481 531 
L 3481 0 
L 794 0 
L 794 531 
z
" transform="scale(0.015625)"/>
       </defs>
       <use xlink:href="#DejaVuSans-31"/>
       <use xlink:href="#DejaVuSans-2e" x="63.623047"/>
       <use xlink:href="#DejaVuSans-30" x="95.410156"/>
      </g>
     </g>
    </g>
    <g id="xtick_8">
     <g id="line2d_15">
      <path d="M 603.273398 561.418667 
L 603.273398 91.84 
" clip-path="url(#p2355b926b4)" style="fill: none; stroke-dasharray: 1.85,0.8; stroke-dashoffset: 0; stroke: #b0b0b0; stroke-width: 0.5"/>
     </g>
     <g id="line2d_16">
      <g>
       <use xlink:href="#m7041070721" x="603.273398" y="561.418667" style="stroke: #000000; stroke-width: 0.8"/>
      </g>
     </g>
     <g id="text_8">
      <!-- 1.1 -->
      <g transform="translate(595.321836 576.017104)scale(0.1 -0.1)">
       <use xlink:href="#DejaVuSans-31"/>
       <use xlink:href="#DejaVuSans-2e" x="63.623047"/>
       <use xlink:href="#DejaVuSans-31" x="95.410156"/>
      </g>
     </g>
    </g>
    <g id="xtick_9">
     <g id="line2d_17">
      <path d="M 669.017812 561.418667 
L 669.017812 91.84 
" clip-path="url(#p2355b926b4)" style="fill: none; stroke-dasharray: 1.85,0.8; stroke-dashoffset: 0; stroke: #b0b0b0; stroke-width: 0.5"/>
     </g>
     <g id="line2d_18">
      <g>
       <use xlink:href="#m7041070721" x="669.017812" y="561.418667" style="stroke: #000000; stroke-width: 0.8"/>
      </g>
     </g>
     <g id="text_9">
      <!-- 1.2 -->
      <g transform="translate(661.06625 576.017104)scale(0.1 -0.1)">
       <defs>
        <path id="DejaVuSans-32" d="M 1228 531 
L 3431 531 
L 3431 0 
L 469 0 
L 469 531 
Q 828 903 1448 1529 
Q 2069 2156 2228 2338 
Q 2531 2678 2651 2914 
Q 2772 3150 2772 3378 
Q 2772 3750 2511 3984 
Q 2250 4219 1831 4219 
Q 1534 4219 1204 4116 
Q 875 4013 500 3803 
L 500 4441 
Q 881 4594 1212 4672 
Q 1544 4750 1819 4750 
Q 2544 4750 2975 4387 
Q 3406 4025 3406 3419 
Q 3406 3131 3298 2873 
Q 3191 2616 2906 2266 
Q 2828 2175 2409 1742 
Q 1991 1309 1228 531 
z
" transform="scale(0.015625)"/>
       </defs>
       <use xlink:href="#DejaVuSans-31"/>
       <use xlink:href="#DejaVuSans-2e" x="63.623047"/>
       <use xlink:href="#DejaVuSans-32" x="95.410156"/>
      </g>
     </g>
    </g>
    <g id="text_10">
     <!-- $ \phi $ -->
     <g transform="translate(402.740156 589.696792)scale(0.1 -0.1)">
      <defs>
       <path id="DejaVuSans-Oblique-3d5" d="M 2991 4863 
L 2738 3572 
Q 3363 3572 3684 3094 
Q 4016 2606 3850 1747 
Q 3681 888 3159 400 
Q 2653 -78 2028 -78 
L 1784 -1331 
L 1213 -1331 
L 1456 -78 
Q 834 -78 509 400 
Q 178 888 347 1747 
Q 513 2606 1034 3094 
Q 1544 3572 2166 3572 
L 2419 4863 
L 2991 4863 
z
M 2128 434 
Q 2481 434 2784 756 
Q 3116 1116 3244 1747 
Q 3369 2372 3169 2738 
Q 2991 3059 2638 3059 
L 2128 434 
z
M 1556 434 
L 2066 3059 
Q 1716 3059 1413 2738 
Q 1072 2372 953 1747 
Q 834 1116 1028 756 
Q 1203 434 1556 434 
z
" transform="scale(0.015625)"/>
      </defs>
      <use xlink:href="#DejaVuSans-Oblique-3d5" transform="translate(0 0.015625)"/>
     </g>
    </g>
   </g>
   <g id="matplotlib.axis_2">
    <g id="ytick_1">
     <g id="line2d_19">
      <path d="M 143.0625 544.64313 
L 669.017812 544.64313 
" clip-path="url(#p2355b926b4)" style="fill: none; stroke-dasharray: 1.85,0.8; stroke-dashoffset: 0; stroke: #b0b0b0; stroke-width: 0.5"/>
     </g>
     <g id="line2d_20">
      <defs>
       <path id="ma420e2739b" d="M 0 0 
L -3.5 0 
" style="stroke: #000000; stroke-width: 0.8"/>
      </defs>
      <g>
       <use xlink:href="#ma420e2739b" x="143.0625" y="544.64313" style="stroke: #000000; stroke-width: 0.8"/>
      </g>
     </g>
     <g id="text_11">
      <!-- 0.050 -->
      <g transform="translate(107.434375 548.442349)scale(0.1 -0.1)">
       <use xlink:href="#DejaVuSans-30"/>
       <use xlink:href="#DejaVuSans-2e" x="63.623047"/>
       <use xlink:href="#DejaVuSans-30" x="95.410156"/>
       <use xlink:href="#DejaVuSans-35" x="159.033203"/>
       <use xlink:href="#DejaVuSans-30" x="222.65625"/>
      </g>
     </g>
    </g>
    <g id="ytick_2">
     <g id="line2d_21">
      <path d="M 143.0625 442.909573 
L 669.017812 442.909573 
" clip-path="url(#p2355b926b4)" style="fill: none; stroke-dasharray: 1.85,0.8; stroke-dashoffset: 0; stroke: #b0b0b0; stroke-width: 0.5"/>
     </g>
     <g id="line2d_22">
      <g>
       <use xlink:href="#ma420e2739b" x="143.0625" y="442.909573" style="stroke: #000000; stroke-width: 0.8"/>
      </g>
     </g>
     <g id="text_12">
      <!-- 0.055 -->
      <g transform="translate(107.434375 446.708791)scale(0.1 -0.1)">
       <use xlink:href="#DejaVuSans-30"/>
       <use xlink:href="#DejaVuSans-2e" x="63.623047"/>
       <use xlink:href="#DejaVuSans-30" x="95.410156"/>
       <use xlink:href="#DejaVuSans-35" x="159.033203"/>
       <use xlink:href="#DejaVuSans-35" x="222.65625"/>
      </g>
     </g>
    </g>
    <g id="ytick_3">
     <g id="line2d_23">
      <path d="M 143.0625 341.176015 
L 669.017812 341.176015 
" clip-path="url(#p2355b926b4)" style="fill: none; stroke-dasharray: 1.85,0.8; stroke-dashoffset: 0; stroke: #b0b0b0; stroke-width: 0.5"/>
     </g>
     <g id="line2d_24">
      <g>
       <use xlink:href="#ma420e2739b" x="143.0625" y="341.176015" style="stroke: #000000; stroke-width: 0.8"/>
      </g>
     </g>
     <g id="text_13">
      <!-- 0.060 -->
      <g transform="translate(107.434375 344.975234)scale(0.1 -0.1)">
       <use xlink:href="#DejaVuSans-30"/>
       <use xlink:href="#DejaVuSans-2e" x="63.623047"/>
       <use xlink:href="#DejaVuSans-30" x="95.410156"/>
       <use xlink:href="#DejaVuSans-36" x="159.033203"/>
       <use xlink:href="#DejaVuSans-30" x="222.65625"/>
      </g>
     </g>
    </g>
    <g id="ytick_4">
     <g id="line2d_25">
      <path d="M 143.0625 239.442457 
L 669.017812 239.442457 
" clip-path="url(#p2355b926b4)" style="fill: none; stroke-dasharray: 1.85,0.8; stroke-dashoffset: 0; stroke: #b0b0b0; stroke-width: 0.5"/>
     </g>
     <g id="line2d_26">
      <g>
       <use xlink:href="#ma420e2739b" x="143.0625" y="239.442457" style="stroke: #000000; stroke-width: 0.8"/>
      </g>
     </g>
     <g id="text_14">
      <!-- 0.065 -->
      <g transform="translate(107.434375 243.241676)scale(0.1 -0.1)">
       <use xlink:href="#DejaVuSans-30"/>
       <use xlink:href="#DejaVuSans-2e" x="63.623047"/>
       <use xlink:href="#DejaVuSans-30" x="95.410156"/>
       <use xlink:href="#DejaVuSans-36" x="159.033203"/>
       <use xlink:href="#DejaVuSans-35" x="222.65625"/>
      </g>
     </g>
    </g>
    <g id="ytick_5">
     <g id="line2d_27">
      <path d="M 143.0625 137.7089 
L 669.017812 137.7089 
" clip-path="url(#p2355b926b4)" style="fill: none; stroke-dasharray: 1.85,0.8; stroke-dashoffset: 0; stroke: #b0b0b0; stroke-width: 0.5"/>
     </g>
     <g id="line2d_28">
      <g>
       <use xlink:href="#ma420e2739b" x="143.0625" y="137.7089" style="stroke: #000000; stroke-width: 0.8"/>
      </g>
     </g>
     <g id="text_15">
      <!-- 0.070 -->
      <g transform="translate(107.434375 141.508118)scale(0.1 -0.1)">
       <use xlink:href="#DejaVuSans-30"/>
       <use xlink:href="#DejaVuSans-2e" x="63.623047"/>
       <use xlink:href="#DejaVuSans-30" x="95.410156"/>
       <use xlink:href="#DejaVuSans-37" x="159.033203"/>
       <use xlink:href="#DejaVuSans-30" x="222.65625"/>
      </g>
     </g>
    </g>
    <g id="text_16">
     <!-- $ \eta_{lost} $ -->
     <g transform="translate(101.334375 336.279333)rotate(-90)scale(0.1 -0.1)">
      <defs>
       <path id="DejaVuSans-Oblique-3b7" d="M 3703 2113 
L 3034 -1331 
L 2459 -1331 
L 3125 2094 
Q 3222 2591 3075 2838 
Q 2931 3084 2544 3084 
Q 2078 3084 1750 2788 
Q 1425 2491 1325 1978 
L 941 0 
L 363 0 
L 1044 3500 
L 1622 3500 
L 1516 2956 
Q 1781 3272 2094 3428 
Q 2403 3584 2769 3584 
Q 3372 3584 3609 3213 
Q 3844 2838 3703 2113 
z
" transform="scale(0.015625)"/>
       <path id="DejaVuSans-Oblique-6c" d="M 1172 4863 
L 1747 4863 
L 800 0 
L 225 0 
L 1172 4863 
z
" transform="scale(0.015625)"/>
       <path id="DejaVuSans-Oblique-6f" d="M 1625 -91 
Q 1009 -91 651 289 
Q 294 669 294 1325 
Q 294 1706 417 2101 
Q 541 2497 738 2766 
Q 1047 3184 1428 3384 
Q 1809 3584 2291 3584 
Q 2888 3584 3255 3212 
Q 3622 2841 3622 2241 
Q 3622 1825 3500 1412 
Q 3378 1000 3181 728 
Q 2875 309 2494 109 
Q 2113 -91 1625 -91 
z
M 891 1344 
Q 891 869 1089 633 
Q 1288 397 1691 397 
Q 2269 397 2648 901 
Q 3028 1406 3028 2181 
Q 3028 2634 2825 2865 
Q 2622 3097 2228 3097 
Q 1903 3097 1650 2945 
Q 1397 2794 1197 2484 
Q 1050 2253 970 1956 
Q 891 1659 891 1344 
z
" transform="scale(0.015625)"/>
       <path id="DejaVuSans-Oblique-73" d="M 3200 3397 
L 3091 2853 
Q 2863 2978 2609 3040 
Q 2356 3103 2088 3103 
Q 1634 3103 1373 2948 
Q 1113 2794 1113 2528 
Q 1113 2219 1719 2053 
Q 1766 2041 1788 2034 
L 1972 1978 
Q 2547 1819 2739 1644 
Q 2931 1469 2931 1166 
Q 2931 609 2489 259 
Q 2047 -91 1331 -91 
Q 1053 -91 747 -37 
Q 441 16 72 128 
L 184 722 
Q 500 559 806 475 
Q 1113 391 1394 391 
Q 1816 391 2080 572 
Q 2344 753 2344 1031 
Q 2344 1331 1650 1516 
L 1591 1531 
L 1394 1581 
Q 956 1697 753 1886 
Q 550 2075 550 2369 
Q 550 2928 970 3256 
Q 1391 3584 2113 3584 
Q 2397 3584 2667 3537 
Q 2938 3491 3200 3397 
z
" transform="scale(0.015625)"/>
       <path id="DejaVuSans-Oblique-74" d="M 2706 3500 
L 2619 3053 
L 1472 3053 
L 1100 1153 
Q 1081 1047 1072 975 
Q 1063 903 1063 863 
Q 1063 663 1183 572 
Q 1303 481 1569 481 
L 2150 481 
L 2053 0 
L 1503 0 
Q 991 0 739 200 
Q 488 400 488 806 
Q 488 878 497 964 
Q 506 1050 525 1153 
L 897 3053 
L 409 3053 
L 500 3500 
L 978 3500 
L 1172 4494 
L 1747 4494 
L 1556 3500 
L 2706 3500 
z
" transform="scale(0.015625)"/>
      </defs>
      <use xlink:href="#DejaVuSans-Oblique-3b7"/>
      <use xlink:href="#DejaVuSans-Oblique-6c" transform="translate(63.378906 -16.40625)scale(0.7)"/>
      <use xlink:href="#DejaVuSans-Oblique-6f" transform="translate(82.827148 -16.40625)scale(0.7)"/>
      <use xlink:href="#DejaVuSans-Oblique-73" transform="translate(125.654297 -16.40625)scale(0.7)"/>
      <use xlink:href="#DejaVuSans-Oblique-74" transform="translate(162.124023 -16.40625)scale(0.7)"/>
     </g>
    </g>
   </g>
   <g id="line2d_29">
    <path d="M 143.0625 280.172321 
L 167.304929 313.364956 
L 184.169228 336.098702 
L 198.925489 355.635143 
L 212.627732 373.411317 
L 225.275956 389.441443 
L 235.816142 402.4446 
L 245.30231 413.781978 
L 253.73446 423.481422 
L 261.11259 431.602697 
L 267.436702 438.238665 
L 273.760814 444.527794 
L 279.030907 449.47173 
L 284.301001 454.118914 
L 289.571094 458.445468 
L 294.841187 462.429136 
L 299.057262 465.355527 
L 303.273337 468.040231 
L 307.489411 470.475096 
L 311.705486 472.653177 
L 315.921561 474.568838 
L 320.137635 476.217843 
L 324.35371 477.597433 
L 328.569785 478.706403 
L 332.785859 479.545158 
L 337.001934 480.115759 
L 341.218009 480.421944 
L 345.434083 480.469127 
L 349.650158 480.264355 
L 353.866232 479.816235 
L 358.082307 479.134798 
L 362.298382 478.231318 
L 366.514456 477.118074 
L 370.730531 475.808045 
L 376.000624 473.914105 
L 381.270718 471.7594 
L 386.540811 469.368489 
L 392.864923 466.218464 
L 399.189035 462.791453 
L 405.513147 459.110495 
L 411.837259 455.189632 
L 418.161371 451.034083 
L 424.485483 446.640749 
L 430.809595 441.99888 
L 437.133707 437.090841 
L 443.457819 431.89295 
L 449.781931 426.376411 
L 455.052024 421.512426 
L 460.322117 416.384778 
L 465.592211 410.974725 
L 470.862304 405.267069 
L 476.132397 399.253204 
L 481.402491 392.934053 
L 487.726603 384.966609 
L 494.050715 376.623319 
L 501.428845 366.507499 
L 511.969032 351.620969 
L 526.725293 330.787688 
L 534.103424 320.749866 
L 540.427536 312.48107 
L 546.751648 304.562974 
L 553.07576 296.995104 
L 559.399872 289.744429 
L 566.778002 281.613319 
L 576.26417 271.522773 
L 592.07445 255.111819 
L 611.046786 235.327106 
L 625.803047 219.60687 
L 653.207533 189.972061 
L 669.017812 172.86921 
L 669.017812 172.86921 
" clip-path="url(#p2355b926b4)" style="fill: none; stroke: #0000ff; stroke-width: 1.5; stroke-linecap: square"/>
   </g>
   <g id="patch_3">
    <path d="M 143.0625 561.418667 
L 143.0625 91.84 
" style="fill: none; stroke: #000000; stroke-width: 0.8; stroke-linejoin: miter; stroke-linecap: square"/>
   </g>
   <g id="patch_4">
    <path d="M 669.017812 561.418667 
L 669.017812 91.84 
" style="fill: none; stroke: #000000; stroke-width: 0.8; stroke-linejoin: miter; stroke-linecap: square"/>
   </g>
   <g id="patch_5">
    <path d="M 143.0625 561.418667 
L 669.017812 561.418667 
" style="fill: none; stroke: #000000; stroke-width: 0.8; stroke-linejoin: miter; stroke-linecap: square"/>
   </g>
   <g id="patch_6">
    <path d="M 143.0625 91.84 
L 669.017812 91.84 
" style="fill: none; stroke: #000000; stroke-width: 0.8; stroke-linejoin: miter; stroke-linecap: square"/>
   </g>
   <g id="text_17">
    <!-- 0.05 -->
    <g style="fill: #00008b" transform="translate(344.380065 480.481255)scale(0.12 -0.12)">
     <use xlink:href="#DejaVuSans-30"/>
     <use xlink:href="#DejaVuSans-2e" x="63.623047"/>
     <use xlink:href="#DejaVuSans-30" x="95.410156"/>
     <use xlink:href="#DejaVuSans-35" x="159.033203"/>
    </g>
   </g>
   <g id="text_18">
    <!-- $  \psi = 1.578\; \; \; \Lambda = 0.510\; \; \; M = 0.642\; \; \; Co = 0.649\; \; \;  $ -->
    <g transform="translate(290.740156 85.84)scale(0.1 -0.1)">
     <defs>
      <path id="DejaVuSans-Oblique-3c8" d="M 1591 -78 
Q 891 38 616 341 
Q 278 713 425 1472 
L 819 3500 
L 1400 3500 
L 1009 1494 
Q 900 922 1119 684 
Q 1313 478 1691 434 
L 2284 3500 
L 2856 3500 
L 2263 438 
Q 2681 481 2928 688 
Q 3247 950 3353 1497 
L 3741 3500 
L 4322 3500 
L 3928 1475 
Q 3775 688 3300 344 
Q 2872 34 2163 -75 
L 1919 -1331 
L 1347 -1331 
L 1591 -78 
z
" transform="scale(0.015625)"/>
      <path id="DejaVuSans-3d" d="M 678 2906 
L 4684 2906 
L 4684 2381 
L 678 2381 
L 678 2906 
z
M 678 1631 
L 4684 1631 
L 4684 1100 
L 678 1100 
L 678 1631 
z
" transform="scale(0.015625)"/>
      <path id="DejaVuSans-39b" d="M 716 0 
L 50 0 
L 1831 4666 
L 2547 4666 
L 4325 0 
L 3669 0 
L 2188 4044 
L 716 0 
z
" transform="scale(0.015625)"/>
      <path id="DejaVuSans-Oblique-4d" d="M 1081 4666 
L 2028 4666 
L 2572 1522 
L 4378 4666 
L 5350 4666 
L 4441 0 
L 3828 0 
L 4622 4091 
L 2791 897 
L 2175 897 
L 1581 4103 
L 788 0 
L 172 0 
L 1081 4666 
z
" transform="scale(0.015625)"/>
      <path id="DejaVuSans-Oblique-43" d="M 4447 4306 
L 4319 3641 
Q 4019 3944 3683 4091 
Q 3347 4238 2956 4238 
Q 2422 4238 2017 3981 
Q 1613 3725 1319 3200 
Q 1131 2863 1032 2486 
Q 934 2109 934 1728 
Q 934 1091 1264 756 
Q 1594 422 2222 422 
Q 2656 422 3056 561 
Q 3456 700 3834 978 
L 3688 231 
Q 3316 72 2936 -9 
Q 2556 -91 2175 -91 
Q 1278 -91 773 396 
Q 269 884 269 1753 
Q 269 2309 461 2846 
Q 653 3384 1013 3828 
Q 1394 4300 1883 4525 
Q 2372 4750 3022 4750 
Q 3422 4750 3780 4639 
Q 4138 4528 4447 4306 
z
" transform="scale(0.015625)"/>
     </defs>
     <use xlink:href="#DejaVuSans-Oblique-3c8" transform="translate(0 0.78125)"/>
     <use xlink:href="#DejaVuSans-3d" transform="translate(85.449219 0.78125)"/>
     <use xlink:href="#DejaVuSans-31" transform="translate(188.720703 0.78125)"/>
     <use xlink:href="#DejaVuSans-2e" transform="translate(252.34375 0.78125)"/>
     <use xlink:href="#DejaVuSans-35" transform="translate(284.130859 0.78125)"/>
     <use xlink:href="#DejaVuSans-37" transform="translate(340.503906 0.78125)"/>
     <use xlink:href="#DejaVuSans-38" transform="translate(404.126953 0.78125)"/>
     <use xlink:href="#DejaVuSans-39b" transform="translate(548.927407 0.78125)"/>
     <use xlink:href="#DejaVuSans-3d" transform="translate(636.818032 0.78125)"/>
     <use xlink:href="#DejaVuSans-30" transform="translate(740.089517 0.78125)"/>
     <use xlink:href="#DejaVuSans-2e" transform="translate(803.712563 0.78125)"/>
     <use xlink:href="#DejaVuSans-35" transform="translate(835.499673 0.78125)"/>
     <use xlink:href="#DejaVuSans-31" transform="translate(899.12272 0.78125)"/>
     <use xlink:href="#DejaVuSans-30" transform="translate(962.745767 0.78125)"/>
     <use xlink:href="#DejaVuSans-Oblique-4d" transform="translate(1107.546221 0.78125)"/>
     <use xlink:href="#DejaVuSans-3d" transform="translate(1213.307939 0.78125)"/>
     <use xlink:href="#DejaVuSans-30" transform="translate(1316.579424 0.78125)"/>
     <use xlink:href="#DejaVuSans-2e" transform="translate(1380.202471 0.78125)"/>
     <use xlink:href="#DejaVuSans-36" transform="translate(1411.98958 0.78125)"/>
     <use xlink:href="#DejaVuSans-34" transform="translate(1475.612627 0.78125)"/>
     <use xlink:href="#DejaVuSans-32" transform="translate(1539.235674 0.78125)"/>
     <use xlink:href="#DejaVuSans-Oblique-43" transform="translate(1684.036128 0.78125)"/>
     <use xlink:href="#DejaVuSans-Oblique-6f" transform="translate(1753.860347 0.78125)"/>
     <use xlink:href="#DejaVuSans-3d" transform="translate(1834.524409 0.78125)"/>
     <use xlink:href="#DejaVuSans-30" transform="translate(1937.795894 0.78125)"/>
     <use xlink:href="#DejaVuSans-2e" transform="translate(2001.41894 0.78125)"/>
     <use xlink:href="#DejaVuSans-36" transform="translate(2033.20605 0.78125)"/>
     <use xlink:href="#DejaVuSans-34" transform="translate(2096.829097 0.78125)"/>
     <use xlink:href="#DejaVuSans-39" transform="translate(2160.452144 0.78125)"/>
    </g>
   </g>
   <g id="legend_1">
    <g id="patch_7">
     <path d="M 681.536919 138.874375 
L 834.988481 138.874375 
Q 836.988481 138.874375 836.988481 136.874375 
L 836.988481 93.84 
Q 836.988481 91.84 834.988481 91.84 
L 681.536919 91.84 
Q 679.536919 91.84 679.536919 93.84 
L 679.536919 136.874375 
Q 679.536919 138.874375 681.536919 138.874375 
z
" style="fill: #ffffff; opacity: 0.8; stroke: #cccccc; stroke-linejoin: miter"/>
    </g>
    <g id="PathCollection_2">
     <g>
      <use xlink:href="#mb6bba993a1" x="693.536919" y="100.813438" style="fill: #ff0000; stroke: #ff0000; stroke-width: 1.5"/>
     </g>
    </g>
    <g id="text_19">
     <!-- Training data points -->
     <g transform="translate(711.536919 103.438438)scale(0.1 -0.1)">
      <defs>
       <path id="DejaVuSans-54" d="M -19 4666 
L 3928 4666 
L 3928 4134 
L 2272 4134 
L 2272 0 
L 1638 0 
L 1638 4134 
L -19 4134 
L -19 4666 
z
" transform="scale(0.015625)"/>
       <path id="DejaVuSans-72" d="M 2631 2963 
Q 2534 3019 2420 3045 
Q 2306 3072 2169 3072 
Q 1681 3072 1420 2755 
Q 1159 2438 1159 1844 
L 1159 0 
L 581 0 
L 581 3500 
L 1159 3500 
L 1159 2956 
Q 1341 3275 1631 3429 
Q 1922 3584 2338 3584 
Q 2397 3584 2469 3576 
Q 2541 3569 2628 3553 
L 2631 2963 
z
" transform="scale(0.015625)"/>
       <path id="DejaVuSans-61" d="M 2194 1759 
Q 1497 1759 1228 1600 
Q 959 1441 959 1056 
Q 959 750 1161 570 
Q 1363 391 1709 391 
Q 2188 391 2477 730 
Q 2766 1069 2766 1631 
L 2766 1759 
L 2194 1759 
z
M 3341 1997 
L 3341 0 
L 2766 0 
L 2766 531 
Q 2569 213 2275 61 
Q 1981 -91 1556 -91 
Q 1019 -91 701 211 
Q 384 513 384 1019 
Q 384 1609 779 1909 
Q 1175 2209 1959 2209 
L 2766 2209 
L 2766 2266 
Q 2766 2663 2505 2880 
Q 2244 3097 1772 3097 
Q 1472 3097 1187 3025 
Q 903 2953 641 2809 
L 641 3341 
Q 956 3463 1253 3523 
Q 1550 3584 1831 3584 
Q 2591 3584 2966 3190 
Q 3341 2797 3341 1997 
z
" transform="scale(0.015625)"/>
       <path id="DejaVuSans-69" d="M 603 3500 
L 1178 3500 
L 1178 0 
L 603 0 
L 603 3500 
z
M 603 4863 
L 1178 4863 
L 1178 4134 
L 603 4134 
L 603 4863 
z
" transform="scale(0.015625)"/>
       <path id="DejaVuSans-6e" d="M 3513 2113 
L 3513 0 
L 2938 0 
L 2938 2094 
Q 2938 2591 2744 2837 
Q 2550 3084 2163 3084 
Q 1697 3084 1428 2787 
Q 1159 2491 1159 1978 
L 1159 0 
L 581 0 
L 581 3500 
L 1159 3500 
L 1159 2956 
Q 1366 3272 1645 3428 
Q 1925 3584 2291 3584 
Q 2894 3584 3203 3211 
Q 3513 2838 3513 2113 
z
" transform="scale(0.015625)"/>
       <path id="DejaVuSans-67" d="M 2906 1791 
Q 2906 2416 2648 2759 
Q 2391 3103 1925 3103 
Q 1463 3103 1205 2759 
Q 947 2416 947 1791 
Q 947 1169 1205 825 
Q 1463 481 1925 481 
Q 2391 481 2648 825 
Q 2906 1169 2906 1791 
z
M 3481 434 
Q 3481 -459 3084 -895 
Q 2688 -1331 1869 -1331 
Q 1566 -1331 1297 -1286 
Q 1028 -1241 775 -1147 
L 775 -588 
Q 1028 -725 1275 -790 
Q 1522 -856 1778 -856 
Q 2344 -856 2625 -561 
Q 2906 -266 2906 331 
L 2906 616 
Q 2728 306 2450 153 
Q 2172 0 1784 0 
Q 1141 0 747 490 
Q 353 981 353 1791 
Q 353 2603 747 3093 
Q 1141 3584 1784 3584 
Q 2172 3584 2450 3431 
Q 2728 3278 2906 2969 
L 2906 3500 
L 3481 3500 
L 3481 434 
z
" transform="scale(0.015625)"/>
       <path id="DejaVuSans-20" transform="scale(0.015625)"/>
       <path id="DejaVuSans-64" d="M 2906 2969 
L 2906 4863 
L 3481 4863 
L 3481 0 
L 2906 0 
L 2906 525 
Q 2725 213 2448 61 
Q 2172 -91 1784 -91 
Q 1150 -91 751 415 
Q 353 922 353 1747 
Q 353 2572 751 3078 
Q 1150 3584 1784 3584 
Q 2172 3584 2448 3432 
Q 2725 3281 2906 2969 
z
M 947 1747 
Q 947 1113 1208 752 
Q 1469 391 1925 391 
Q 2381 391 2643 752 
Q 2906 1113 2906 1747 
Q 2906 2381 2643 2742 
Q 2381 3103 1925 3103 
Q 1469 3103 1208 2742 
Q 947 2381 947 1747 
z
" transform="scale(0.015625)"/>
       <path id="DejaVuSans-74" d="M 1172 4494 
L 1172 3500 
L 2356 3500 
L 2356 3053 
L 1172 3053 
L 1172 1153 
Q 1172 725 1289 603 
Q 1406 481 1766 481 
L 2356 481 
L 2356 0 
L 1766 0 
Q 1100 0 847 248 
Q 594 497 594 1153 
L 594 3053 
L 172 3053 
L 172 3500 
L 594 3500 
L 594 4494 
L 1172 4494 
z
" transform="scale(0.015625)"/>
       <path id="DejaVuSans-70" d="M 1159 525 
L 1159 -1331 
L 581 -1331 
L 581 3500 
L 1159 3500 
L 1159 2969 
Q 1341 3281 1617 3432 
Q 1894 3584 2278 3584 
Q 2916 3584 3314 3078 
Q 3713 2572 3713 1747 
Q 3713 922 3314 415 
Q 2916 -91 2278 -91 
Q 1894 -91 1617 61 
Q 1341 213 1159 525 
z
M 3116 1747 
Q 3116 2381 2855 2742 
Q 2594 3103 2138 3103 
Q 1681 3103 1420 2742 
Q 1159 2381 1159 1747 
Q 1159 1113 1420 752 
Q 1681 391 2138 391 
Q 2594 391 2855 752 
Q 3116 1113 3116 1747 
z
" transform="scale(0.015625)"/>
       <path id="DejaVuSans-6f" d="M 1959 3097 
Q 1497 3097 1228 2736 
Q 959 2375 959 1747 
Q 959 1119 1226 758 
Q 1494 397 1959 397 
Q 2419 397 2687 759 
Q 2956 1122 2956 1747 
Q 2956 2369 2687 2733 
Q 2419 3097 1959 3097 
z
M 1959 3584 
Q 2709 3584 3137 3096 
Q 3566 2609 3566 1747 
Q 3566 888 3137 398 
Q 2709 -91 1959 -91 
Q 1206 -91 779 398 
Q 353 888 353 1747 
Q 353 2609 779 3096 
Q 1206 3584 1959 3584 
z
" transform="scale(0.015625)"/>
       <path id="DejaVuSans-73" d="M 2834 3397 
L 2834 2853 
Q 2591 2978 2328 3040 
Q 2066 3103 1784 3103 
Q 1356 3103 1142 2972 
Q 928 2841 928 2578 
Q 928 2378 1081 2264 
Q 1234 2150 1697 2047 
L 1894 2003 
Q 2506 1872 2764 1633 
Q 3022 1394 3022 966 
Q 3022 478 2636 193 
Q 2250 -91 1575 -91 
Q 1294 -91 989 -36 
Q 684 19 347 128 
L 347 722 
Q 666 556 975 473 
Q 1284 391 1588 391 
Q 1994 391 2212 530 
Q 2431 669 2431 922 
Q 2431 1156 2273 1281 
Q 2116 1406 1581 1522 
L 1381 1569 
Q 847 1681 609 1914 
Q 372 2147 372 2553 
Q 372 3047 722 3315 
Q 1072 3584 1716 3584 
Q 2034 3584 2315 3537 
Q 2597 3491 2834 3397 
z
" transform="scale(0.015625)"/>
      </defs>
      <use xlink:href="#DejaVuSans-54"/>
      <use xlink:href="#DejaVuSans-72" x="46.333984"/>
      <use xlink:href="#DejaVuSans-61" x="87.447266"/>
      <use xlink:href="#DejaVuSans-69" x="148.726562"/>
      <use xlink:href="#DejaVuSans-6e" x="176.509766"/>
      <use xlink:href="#DejaVuSans-69" x="239.888672"/>
      <use xlink:href="#DejaVuSans-6e" x="267.671875"/>
      <use xlink:href="#DejaVuSans-67" x="331.050781"/>
      <use xlink:href="#DejaVuSans-20" x="394.527344"/>
      <use xlink:href="#DejaVuSans-64" x="426.314453"/>
      <use xlink:href="#DejaVuSans-61" x="489.791016"/>
      <use xlink:href="#DejaVuSans-74" x="551.070312"/>
      <use xlink:href="#DejaVuSans-61" x="590.279297"/>
      <use xlink:href="#DejaVuSans-20" x="651.558594"/>
      <use xlink:href="#DejaVuSans-70" x="683.345703"/>
      <use xlink:href="#DejaVuSans-6f" x="746.822266"/>
      <use xlink:href="#DejaVuSans-69" x="808.003906"/>
      <use xlink:href="#DejaVuSans-6e" x="835.787109"/>
      <use xlink:href="#DejaVuSans-74" x="899.166016"/>
      <use xlink:href="#DejaVuSans-73" x="938.375"/>
     </g>
    </g>
    <g id="line2d_30">
     <path d="M 683.536919 114.616563 
L 693.536919 114.616563 
L 703.536919 114.616563 
" style="fill: none; stroke: #0000ff; stroke-width: 1.5; stroke-linecap: square"/>
    </g>
    <g id="text_20">
     <!-- Mean prediction -->
     <g transform="translate(711.536919 118.116563)scale(0.1 -0.1)">
      <defs>
       <path id="DejaVuSans-4d" d="M 628 4666 
L 1569 4666 
L 2759 1491 
L 3956 4666 
L 4897 4666 
L 4897 0 
L 4281 0 
L 4281 4097 
L 3078 897 
L 2444 897 
L 1241 4097 
L 1241 0 
L 628 0 
L 628 4666 
z
" transform="scale(0.015625)"/>
       <path id="DejaVuSans-65" d="M 3597 1894 
L 3597 1613 
L 953 1613 
Q 991 1019 1311 708 
Q 1631 397 2203 397 
Q 2534 397 2845 478 
Q 3156 559 3463 722 
L 3463 178 
Q 3153 47 2828 -22 
Q 2503 -91 2169 -91 
Q 1331 -91 842 396 
Q 353 884 353 1716 
Q 353 2575 817 3079 
Q 1281 3584 2069 3584 
Q 2775 3584 3186 3129 
Q 3597 2675 3597 1894 
z
M 3022 2063 
Q 3016 2534 2758 2815 
Q 2500 3097 2075 3097 
Q 1594 3097 1305 2825 
Q 1016 2553 972 2059 
L 3022 2063 
z
" transform="scale(0.015625)"/>
       <path id="DejaVuSans-63" d="M 3122 3366 
L 3122 2828 
Q 2878 2963 2633 3030 
Q 2388 3097 2138 3097 
Q 1578 3097 1268 2742 
Q 959 2388 959 1747 
Q 959 1106 1268 751 
Q 1578 397 2138 397 
Q 2388 397 2633 464 
Q 2878 531 3122 666 
L 3122 134 
Q 2881 22 2623 -34 
Q 2366 -91 2075 -91 
Q 1284 -91 818 406 
Q 353 903 353 1747 
Q 353 2603 823 3093 
Q 1294 3584 2113 3584 
Q 2378 3584 2631 3529 
Q 2884 3475 3122 3366 
z
" transform="scale(0.015625)"/>
      </defs>
      <use xlink:href="#DejaVuSans-4d"/>
      <use xlink:href="#DejaVuSans-65" x="86.279297"/>
      <use xlink:href="#DejaVuSans-61" x="147.802734"/>
      <use xlink:href="#DejaVuSans-6e" x="209.082031"/>
      <use xlink:href="#DejaVuSans-20" x="272.460938"/>
      <use xlink:href="#DejaVuSans-70" x="304.248047"/>
      <use xlink:href="#DejaVuSans-72" x="367.724609"/>
      <use xlink:href="#DejaVuSans-65" x="406.587891"/>
      <use xlink:href="#DejaVuSans-64" x="468.111328"/>
      <use xlink:href="#DejaVuSans-69" x="531.587891"/>
      <use xlink:href="#DejaVuSans-63" x="559.371094"/>
      <use xlink:href="#DejaVuSans-74" x="614.351562"/>
      <use xlink:href="#DejaVuSans-69" x="653.560547"/>
      <use xlink:href="#DejaVuSans-6f" x="681.34375"/>
      <use xlink:href="#DejaVuSans-6e" x="742.525391"/>
     </g>
    </g>
    <g id="patch_8">
     <path d="M 683.536919 132.794688 
L 703.536919 132.794688 
L 703.536919 125.794688 
L 683.536919 125.794688 
z
" style="fill: #ffa500; fill-opacity: 0.3; stroke: #ffa500; stroke-opacity: 0.3; stroke-linejoin: miter"/>
    </g>
    <g id="text_21">
     <!-- 95% confidence interval -->
     <g transform="translate(711.536919 132.794688)scale(0.1 -0.1)">
      <defs>
       <path id="DejaVuSans-25" d="M 4653 2053 
Q 4381 2053 4226 1822 
Q 4072 1591 4072 1178 
Q 4072 772 4226 539 
Q 4381 306 4653 306 
Q 4919 306 5073 539 
Q 5228 772 5228 1178 
Q 5228 1588 5073 1820 
Q 4919 2053 4653 2053 
z
M 4653 2450 
Q 5147 2450 5437 2106 
Q 5728 1763 5728 1178 
Q 5728 594 5436 251 
Q 5144 -91 4653 -91 
Q 4153 -91 3862 251 
Q 3572 594 3572 1178 
Q 3572 1766 3864 2108 
Q 4156 2450 4653 2450 
z
M 1428 4353 
Q 1159 4353 1004 4120 
Q 850 3888 850 3481 
Q 850 3069 1003 2837 
Q 1156 2606 1428 2606 
Q 1700 2606 1854 2837 
Q 2009 3069 2009 3481 
Q 2009 3884 1853 4118 
Q 1697 4353 1428 4353 
z
M 4250 4750 
L 4750 4750 
L 1831 -91 
L 1331 -91 
L 4250 4750 
z
M 1428 4750 
Q 1922 4750 2215 4408 
Q 2509 4066 2509 3481 
Q 2509 2891 2217 2550 
Q 1925 2209 1428 2209 
Q 931 2209 642 2551 
Q 353 2894 353 3481 
Q 353 4063 643 4406 
Q 934 4750 1428 4750 
z
" transform="scale(0.015625)"/>
       <path id="DejaVuSans-66" d="M 2375 4863 
L 2375 4384 
L 1825 4384 
Q 1516 4384 1395 4259 
Q 1275 4134 1275 3809 
L 1275 3500 
L 2222 3500 
L 2222 3053 
L 1275 3053 
L 1275 0 
L 697 0 
L 697 3053 
L 147 3053 
L 147 3500 
L 697 3500 
L 697 3744 
Q 697 4328 969 4595 
Q 1241 4863 1831 4863 
L 2375 4863 
z
" transform="scale(0.015625)"/>
       <path id="DejaVuSans-76" d="M 191 3500 
L 800 3500 
L 1894 563 
L 2988 3500 
L 3597 3500 
L 2284 0 
L 1503 0 
L 191 3500 
z
" transform="scale(0.015625)"/>
       <path id="DejaVuSans-6c" d="M 603 4863 
L 1178 4863 
L 1178 0 
L 603 0 
L 603 4863 
z
" transform="scale(0.015625)"/>
      </defs>
      <use xlink:href="#DejaVuSans-39"/>
      <use xlink:href="#DejaVuSans-35" x="63.623047"/>
      <use xlink:href="#DejaVuSans-25" x="127.246094"/>
      <use xlink:href="#DejaVuSans-20" x="222.265625"/>
      <use xlink:href="#DejaVuSans-63" x="254.052734"/>
      <use xlink:href="#DejaVuSans-6f" x="309.033203"/>
      <use xlink:href="#DejaVuSans-6e" x="370.214844"/>
      <use xlink:href="#DejaVuSans-66" x="433.59375"/>
      <use xlink:href="#DejaVuSans-69" x="468.798828"/>
      <use xlink:href="#DejaVuSans-64" x="496.582031"/>
      <use xlink:href="#DejaVuSans-65" x="560.058594"/>
      <use xlink:href="#DejaVuSans-6e" x="621.582031"/>
      <use xlink:href="#DejaVuSans-63" x="684.960938"/>
      <use xlink:href="#DejaVuSans-65" x="739.941406"/>
      <use xlink:href="#DejaVuSans-20" x="801.464844"/>
      <use xlink:href="#DejaVuSans-69" x="833.251953"/>
      <use xlink:href="#DejaVuSans-6e" x="861.035156"/>
      <use xlink:href="#DejaVuSans-74" x="924.414062"/>
      <use xlink:href="#DejaVuSans-65" x="963.623047"/>
      <use xlink:href="#DejaVuSans-72" x="1025.146484"/>
      <use xlink:href="#DejaVuSans-76" x="1066.259766"/>
      <use xlink:href="#DejaVuSans-61" x="1125.439453"/>
      <use xlink:href="#DejaVuSans-6c" x="1186.71875"/>
     </g>
    </g>
   </g>
  </g>
  <g id="text_22">
   <!-- Data-driven turbine design -->
   <g transform="translate(459.210938 22.020525)scale(0.12 -0.12)">
    <defs>
     <path id="DejaVuSans-44" d="M 1259 4147 
L 1259 519 
L 2022 519 
Q 2988 519 3436 956 
Q 3884 1394 3884 2338 
Q 3884 3275 3436 3711 
Q 2988 4147 2022 4147 
L 1259 4147 
z
M 628 4666 
L 1925 4666 
Q 3281 4666 3915 4102 
Q 4550 3538 4550 2338 
Q 4550 1131 3912 565 
Q 3275 0 1925 0 
L 628 0 
L 628 4666 
z
" transform="scale(0.015625)"/>
     <path id="DejaVuSans-2d" d="M 313 2009 
L 1997 2009 
L 1997 1497 
L 313 1497 
L 313 2009 
z
" transform="scale(0.015625)"/>
     <path id="DejaVuSans-75" d="M 544 1381 
L 544 3500 
L 1119 3500 
L 1119 1403 
Q 1119 906 1312 657 
Q 1506 409 1894 409 
Q 2359 409 2629 706 
Q 2900 1003 2900 1516 
L 2900 3500 
L 3475 3500 
L 3475 0 
L 2900 0 
L 2900 538 
Q 2691 219 2414 64 
Q 2138 -91 1772 -91 
Q 1169 -91 856 284 
Q 544 659 544 1381 
z
M 1991 3584 
L 1991 3584 
z
" transform="scale(0.015625)"/>
     <path id="DejaVuSans-62" d="M 3116 1747 
Q 3116 2381 2855 2742 
Q 2594 3103 2138 3103 
Q 1681 3103 1420 2742 
Q 1159 2381 1159 1747 
Q 1159 1113 1420 752 
Q 1681 391 2138 391 
Q 2594 391 2855 752 
Q 3116 1113 3116 1747 
z
M 1159 2969 
Q 1341 3281 1617 3432 
Q 1894 3584 2278 3584 
Q 2916 3584 3314 3078 
Q 3713 2572 3713 1747 
Q 3713 922 3314 415 
Q 2916 -91 2278 -91 
Q 1894 -91 1617 61 
Q 1341 213 1159 525 
L 1159 0 
L 581 0 
L 581 4863 
L 1159 4863 
L 1159 2969 
z
" transform="scale(0.015625)"/>
    </defs>
    <use xlink:href="#DejaVuSans-44"/>
    <use xlink:href="#DejaVuSans-61" x="77.001953"/>
    <use xlink:href="#DejaVuSans-74" x="138.28125"/>
    <use xlink:href="#DejaVuSans-61" x="177.490234"/>
    <use xlink:href="#DejaVuSans-2d" x="238.769531"/>
    <use xlink:href="#DejaVuSans-64" x="274.853516"/>
    <use xlink:href="#DejaVuSans-72" x="338.330078"/>
    <use xlink:href="#DejaVuSans-69" x="379.443359"/>
    <use xlink:href="#DejaVuSans-76" x="407.226562"/>
    <use xlink:href="#DejaVuSans-65" x="466.40625"/>
    <use xlink:href="#DejaVuSans-6e" x="527.929688"/>
    <use xlink:href="#DejaVuSans-20" x="591.308594"/>
    <use xlink:href="#DejaVuSans-74" x="623.095703"/>
    <use xlink:href="#DejaVuSans-75" x="662.304688"/>
    <use xlink:href="#DejaVuSans-72" x="725.683594"/>
    <use xlink:href="#DejaVuSans-62" x="766.796875"/>
    <use xlink:href="#DejaVuSans-69" x="830.273438"/>
    <use xlink:href="#DejaVuSans-6e" x="858.056641"/>
    <use xlink:href="#DejaVuSans-65" x="921.435547"/>
    <use xlink:href="#DejaVuSans-20" x="982.958984"/>
    <use xlink:href="#DejaVuSans-64" x="1014.746094"/>
    <use xlink:href="#DejaVuSans-65" x="1078.222656"/>
    <use xlink:href="#DejaVuSans-73" x="1139.746094"/>
    <use xlink:href="#DejaVuSans-69" x="1191.845703"/>
    <use xlink:href="#DejaVuSans-67" x="1219.628906"/>
    <use xlink:href="#DejaVuSans-6e" x="1283.105469"/>
   </g>
  </g>
 </g>
 <defs>
  <clipPath id="p2355b926b4">
   <rect x="143.0625" y="91.84" width="525.955312" height="469.578667"/>
  </clipPath>
 </defs>
</svg>
