<?xml version="1.0" encoding="utf-8" standalone="no"?>
<!DOCTYPE svg PUBLIC "-//W3C//DTD SVG 1.1//EN"
  "http://www.w3.org/Graphics/SVG/1.1/DTD/svg11.dtd">
<svg xmlns:xlink="http://www.w3.org/1999/xlink" width="585.36pt" height="416.16pt" viewBox="0 0 585.36 416.16" xmlns="http://www.w3.org/2000/svg" version="1.1">
 <metadata>
  <rdf:RDF xmlns:dc="http://purl.org/dc/elements/1.1/" xmlns:cc="http://creativecommons.org/ns#" xmlns:rdf="http://www.w3.org/1999/02/22-rdf-syntax-ns#">
   <cc:Work>
    <dc:type rdf:resource="http://purl.org/dc/dcmitype/StillImage"/>
    <dc:date>2022-10-19T23:00:51.150233</dc:date>
    <dc:format>image/svg+xml</dc:format>
    <dc:creator>
     <cc:Agent>
      <dc:title>Matplotlib v3.5.3, https://matplotlib.org/</dc:title>
     </cc:Agent>
    </dc:creator>
   </cc:Work>
  </rdf:RDF>
 </metadata>
 <defs>
  <style type="text/css">*{stroke-linejoin: round; stroke-linecap: butt}</style>
 </defs>
 <g id="figure_1">
  <g id="patch_1">
   <path d="M 0 416.16 
L 585.36 416.16 
L 585.36 0 
L 0 0 
z
" style="fill: #ffffff"/>
  </g>
  <g id="axes_1">
   <g id="patch_2">
    <path d="M 73.17 370.3824 
L 526.824 370.3824 
L 526.824 49.9392 
L 73.17 49.9392 
z
" style="fill: #ffffff"/>
   </g>
   <g id="PolyCollection_1">
    <defs>
     <path id="m6cb6d2e6ad" d="M 73.17 -186.915213 
L 73.17 -134.682371 
L 74.079126 -135.997103 
L 74.988253 -137.310257 
L 75.897379 -138.621801 
L 76.806505 -139.931698 
L 77.715631 -141.239914 
L 78.624758 -142.546412 
L 79.533884 -143.85116 
L 80.44301 -145.15412 
L 81.352136 -146.455258 
L 82.261263 -147.754538 
L 83.170389 -149.051926 
L 84.079515 -150.347386 
L 84.988641 -151.640883 
L 85.897768 -152.932382 
L 86.806894 -154.221848 
L 87.71602 -155.509245 
L 88.625146 -156.79454 
L 89.534273 -158.077696 
L 90.443399 -159.35868 
L 91.352525 -160.637457 
L 92.261651 -161.913991 
L 93.170778 -163.18825 
L 94.079904 -164.460199 
L 94.98903 -165.729803 
L 95.898156 -166.99703 
L 96.807283 -168.261844 
L 97.716409 -169.524214 
L 98.625535 -170.784106 
L 99.534661 -172.041486 
L 100.443788 -173.296323 
L 101.352914 -174.548584 
L 102.26204 -175.798237 
L 103.171166 -177.04525 
L 104.080293 -178.289591 
L 104.989419 -179.531231 
L 105.898545 -180.770137 
L 106.807671 -182.00628 
L 107.716798 -183.23963 
L 108.625924 -184.470157 
L 109.53505 -185.697832 
L 110.444176 -186.922627 
L 111.353303 -188.144513 
L 112.262429 -189.363463 
L 113.171555 -190.579449 
L 114.080681 -191.792445 
L 114.989808 -193.002424 
L 115.898934 -194.20936 
L 116.80806 -195.41323 
L 117.717186 -196.614007 
L 118.626313 -197.811669 
L 119.535439 -199.00619 
L 120.444565 -200.19755 
L 121.353691 -201.385725 
L 122.262818 -202.570693 
L 123.171944 -203.752434 
L 124.08107 -204.930928 
L 124.990196 -206.106153 
L 125.899323 -207.278092 
L 126.808449 -208.446726 
L 127.717575 -209.612036 
L 128.626701 -210.774006 
L 129.535828 -211.932618 
L 130.444954 -213.087857 
L 131.35408 -214.239707 
L 132.263206 -215.388154 
L 133.172333 -216.533184 
L 134.081459 -217.674782 
L 134.990585 -218.812935 
L 135.899711 -219.947633 
L 136.808838 -221.078861 
L 137.717964 -222.20661 
L 138.62709 -223.330869 
L 139.536216 -224.451627 
L 140.445343 -225.568875 
L 141.354469 -226.682603 
L 142.263595 -227.792803 
L 143.172721 -228.899466 
L 144.081848 -230.002584 
L 144.990974 -231.10215 
L 145.9001 -232.198157 
L 146.809226 -233.290597 
L 147.718353 -234.379464 
L 148.627479 -235.464751 
L 149.536605 -236.546452 
L 150.445731 -237.624561 
L 151.354858 -238.699072 
L 152.263984 -239.76998 
L 153.17311 -240.837277 
L 154.082236 -241.900959 
L 154.991363 -242.961018 
L 155.900489 -244.01745 
L 156.809615 -245.070248 
L 157.718741 -246.119406 
L 158.627868 -247.164916 
L 159.536994 -248.206771 
L 160.44612 -249.244965 
L 161.355246 -250.279489 
L 162.264373 -251.310336 
L 163.173499 -252.337495 
L 164.082625 -253.360959 
L 164.991752 -254.380716 
L 165.900878 -255.396757 
L 166.810004 -256.409069 
L 167.71913 -257.417641 
L 168.628257 -258.42246 
L 169.537383 -259.42351 
L 170.446509 -260.420779 
L 171.355635 -261.414248 
L 172.264762 -262.403903 
L 173.173888 -263.389724 
L 174.083014 -264.371693 
L 174.99214 -265.349788 
L 175.901267 -266.32399 
L 176.810393 -267.294273 
L 177.719519 -268.260615 
L 178.628645 -269.22299 
L 179.537772 -270.181371 
L 180.446898 -271.135729 
L 181.356024 -272.086034 
L 182.26515 -273.032255 
L 183.174277 -273.97436 
L 184.083403 -274.912312 
L 184.992529 -275.846078 
L 185.901655 -276.775617 
L 186.810782 -277.700892 
L 187.719908 -278.621861 
L 188.629034 -279.538481 
L 189.53816 -280.450708 
L 190.447287 -281.358495 
L 191.356413 -282.261794 
L 192.265539 -283.160556 
L 193.174665 -284.054728 
L 194.083792 -284.944257 
L 194.992918 -285.829089 
L 195.902044 -286.709166 
L 196.81117 -287.584428 
L 197.720297 -288.454817 
L 198.629423 -289.320268 
L 199.538549 -290.180718 
L 200.447675 -291.0361 
L 201.356802 -291.886347 
L 202.265928 -292.731388 
L 203.175054 -293.571152 
L 204.08418 -294.405566 
L 204.993307 -295.234555 
L 205.902433 -296.05804 
L 206.811559 -296.875945 
L 207.720685 -297.688187 
L 208.629812 -298.494685 
L 209.538938 -299.295354 
L 210.448064 -300.090109 
L 211.35719 -300.878861 
L 212.266317 -301.661523 
L 213.175443 -302.438002 
L 214.084569 -303.208205 
L 214.993695 -303.972039 
L 215.902822 -304.729407 
L 216.811948 -305.480212 
L 217.721074 -306.224353 
L 218.6302 -306.96173 
L 219.539327 -307.692239 
L 220.448453 -308.415777 
L 221.357579 -309.132237 
L 222.266705 -309.841511 
L 223.175832 -310.54349 
L 224.084958 -311.238063 
L 224.994084 -311.925117 
L 225.90321 -312.604537 
L 226.812337 -313.276208 
L 227.721463 -313.940012 
L 228.630589 -314.59583 
L 229.539715 -315.243541 
L 230.448842 -315.883022 
L 231.357968 -316.514149 
L 232.267094 -317.136796 
L 233.17622 -317.750836 
L 234.085347 -318.356139 
L 234.994473 -318.952573 
L 235.903599 -319.540008 
L 236.812725 -320.118307 
L 237.721852 -320.687336 
L 238.630978 -321.246955 
L 239.540104 -321.797027 
L 240.44923 -322.337408 
L 241.358357 -322.867957 
L 242.267483 -323.388528 
L 243.176609 -323.898975 
L 244.085735 -324.39915 
L 244.994862 -324.888902 
L 245.903988 -325.36808 
L 246.813114 -325.836531 
L 247.72224 -326.294099 
L 248.631367 -326.740628 
L 249.540493 -327.175959 
L 250.449619 -327.599933 
L 251.358745 -328.012388 
L 252.267872 -328.413162 
L 253.176998 -328.80209 
L 254.086124 -329.179007 
L 254.995251 -329.543746 
L 255.904377 -329.896141 
L 256.813503 -330.236023 
L 257.722629 -330.563222 
L 258.631756 -330.87757 
L 259.540882 -331.178896 
L 260.450008 -331.46703 
L 261.359134 -331.741803 
L 262.268261 -332.003046 
L 263.177387 -332.25059 
L 264.086513 -332.484267 
L 264.995639 -332.703912 
L 265.904766 -332.90936 
L 266.813892 -333.10045 
L 267.723018 -333.277024 
L 268.632144 -333.438924 
L 269.541271 -333.586001 
L 270.450397 -333.718106 
L 271.359523 -333.835097 
L 272.268649 -333.936838 
L 273.177776 -334.023199 
L 274.086902 -334.094055 
L 274.996028 -334.149293 
L 275.905154 -334.188805 
L 276.814281 -334.212493 
L 277.723407 -334.220271 
L 278.632533 -334.212061 
L 279.541659 -334.187798 
L 280.450786 -334.147431 
L 281.359912 -334.090919 
L 282.269038 -334.018237 
L 283.178164 -333.929373 
L 284.087291 -333.824333 
L 284.996417 -333.703135 
L 285.905543 -333.565816 
L 286.814669 -333.412429 
L 287.723796 -333.243043 
L 288.632922 -333.057746 
L 289.542048 -332.856642 
L 290.451174 -332.639854 
L 291.360301 -332.407522 
L 292.269427 -332.159802 
L 293.178553 -331.89687 
L 294.087679 -331.618916 
L 294.996806 -331.326147 
L 295.905932 -331.018788 
L 296.815058 -330.697075 
L 297.724184 -330.361263 
L 298.633311 -330.011615 
L 299.542437 -329.648412 
L 300.451563 -329.271941 
L 301.360689 -328.882505 
L 302.269816 -328.480412 
L 303.178942 -328.06598 
L 304.088068 -327.639533 
L 304.997194 -327.201403 
L 305.906321 -326.751925 
L 306.815447 -326.291437 
L 307.724573 -325.82028 
L 308.633699 -325.338798 
L 309.542826 -324.847334 
L 310.451952 -324.346227 
L 311.361078 -323.83582 
L 312.270204 -323.316449 
L 313.179331 -322.788448 
L 314.088457 -322.252147 
L 314.997583 -321.707868 
L 315.906709 -321.15593 
L 316.815836 -320.596646 
L 317.724962 -320.030318 
L 318.634088 -319.457243 
L 319.543214 -318.877711 
L 320.452341 -318.292001 
L 321.361467 -317.700384 
L 322.270593 -317.103122 
L 323.179719 -316.500469 
L 324.088846 -315.892667 
L 324.997972 -315.279949 
L 325.907098 -314.66254 
L 326.816224 -314.040653 
L 327.725351 -313.414492 
L 328.634477 -312.784251 
L 329.543603 -312.150115 
L 330.452729 -311.512258 
L 331.361856 -310.870846 
L 332.270982 -310.226034 
L 333.180108 -309.577968 
L 334.089234 -308.926786 
L 334.998361 -308.272616 
L 335.907487 -307.615576 
L 336.816613 -306.955779 
L 337.725739 -306.293325 
L 338.634866 -305.628311 
L 339.543992 -304.960821 
L 340.453118 -304.290935 
L 341.362244 -303.618723 
L 342.271371 -302.944251 
L 343.180497 -302.267575 
L 344.089623 -301.588745 
L 344.998749 -300.907806 
L 345.907876 -300.224794 
L 346.817002 -299.539742 
L 347.726128 -298.852675 
L 348.635255 -298.163615 
L 349.544381 -297.472574 
L 350.453507 -296.779565 
L 351.362633 -296.084591 
L 352.27176 -295.387653 
L 353.180886 -294.688747 
L 354.090012 -293.987864 
L 354.999138 -293.284992 
L 355.908265 -292.580115 
L 356.817391 -291.873213 
L 357.726517 -291.164261 
L 358.635643 -290.453234 
L 359.54477 -289.740102 
L 360.453896 -289.02483 
L 361.363022 -288.307384 
L 362.272148 -287.587725 
L 363.181275 -286.865811 
L 364.090401 -286.1416 
L 364.999527 -285.415045 
L 365.908653 -284.686099 
L 366.81778 -283.954711 
L 367.726906 -283.22083 
L 368.636032 -282.484402 
L 369.545158 -281.745372 
L 370.454285 -281.003683 
L 371.363411 -280.259277 
L 372.272537 -279.512094 
L 373.181663 -278.762073 
L 374.09079 -278.009153 
L 374.999916 -277.25327 
L 375.909042 -276.49436 
L 376.818168 -275.732357 
L 377.727295 -274.967197 
L 378.636421 -274.198813 
L 379.545547 -273.427137 
L 380.454673 -272.652101 
L 381.3638 -271.873636 
L 382.272926 -271.091674 
L 383.182052 -270.306146 
L 384.091178 -269.516981 
L 385.000305 -268.724109 
L 385.909431 -267.927459 
L 386.818557 -267.126962 
L 387.727683 -266.322545 
L 388.63681 -265.514139 
L 389.545936 -264.701671 
L 390.455062 -263.885071 
L 391.364188 -263.064267 
L 392.273315 -262.239188 
L 393.182441 -261.409764 
L 394.091567 -260.575921 
L 395.000693 -259.73759 
L 395.90982 -258.8947 
L 396.818946 -258.04718 
L 397.728072 -257.194959 
L 398.637198 -256.337967 
L 399.546325 -255.476134 
L 400.455451 -254.609389 
L 401.364577 -253.737663 
L 402.273703 -252.860888 
L 403.18283 -251.978992 
L 404.091956 -251.091909 
L 405.001082 -250.199568 
L 405.910208 -249.301903 
L 406.819335 -248.398846 
L 407.728461 -247.490328 
L 408.637587 -246.576283 
L 409.546713 -245.656644 
L 410.45584 -244.731345 
L 411.364966 -243.80032 
L 412.274092 -242.863503 
L 413.183218 -241.92083 
L 414.092345 -240.972235 
L 415.001471 -240.017653 
L 415.910597 -239.057022 
L 416.819723 -238.090278 
L 417.72885 -237.117357 
L 418.637976 -236.138196 
L 419.547102 -235.152734 
L 420.456228 -234.160908 
L 421.365355 -233.162657 
L 422.274481 -232.157919 
L 423.183607 -231.146635 
L 424.092733 -230.128742 
L 425.00186 -229.104183 
L 425.910986 -228.072896 
L 426.820112 -227.034822 
L 427.729238 -225.989904 
L 428.638365 -224.938081 
L 429.547491 -223.879297 
L 430.456617 -222.813493 
L 431.365743 -221.740611 
L 432.27487 -220.660596 
L 433.183996 -219.573389 
L 434.093122 -218.478935 
L 435.002248 -217.377177 
L 435.911375 -216.26806 
L 436.820501 -215.151528 
L 437.729627 -214.027526 
L 438.638754 -212.896 
L 439.54788 -211.756894 
L 440.457006 -210.610155 
L 441.366132 -209.455728 
L 442.275259 -208.29356 
L 443.184385 -207.123598 
L 444.093511 -205.945788 
L 445.002637 -204.760078 
L 445.911764 -203.566415 
L 446.82089 -202.364747 
L 447.730016 -201.155022 
L 448.639142 -199.937189 
L 449.548269 -198.711196 
L 450.457395 -197.476992 
L 451.366521 -196.234526 
L 452.275647 -194.983748 
L 453.184774 -193.724607 
L 454.0939 -192.457054 
L 455.003026 -191.181039 
L 455.912152 -189.896513 
L 456.821279 -188.603427 
L 457.730405 -187.301731 
L 458.639531 -185.991379 
L 459.548657 -184.672321 
L 460.457784 -183.34451 
L 461.36691 -182.007898 
L 462.276036 -180.66244 
L 463.185162 -179.308087 
L 464.094289 -177.944794 
L 465.003415 -176.572516 
L 465.912541 -175.191206 
L 466.821667 -173.80082 
L 467.730794 -172.401314 
L 468.63992 -170.992642 
L 469.549046 -169.574762 
L 470.458172 -168.147631 
L 471.367299 -166.711205 
L 472.276425 -165.265444 
L 473.185551 -163.810304 
L 474.094677 -162.345746 
L 475.003804 -160.871729 
L 475.91293 -159.388214 
L 476.822056 -157.89516 
L 477.731182 -156.39253 
L 478.640309 -154.880286 
L 479.549435 -153.358391 
L 480.458561 -151.826809 
L 481.367687 -150.285503 
L 482.276814 -148.734439 
L 483.18594 -147.173583 
L 484.095066 -145.602902 
L 485.004192 -144.022363 
L 485.913319 -142.431935 
L 486.822445 -140.831588 
L 487.731571 -139.221291 
L 488.640697 -137.601017 
L 489.549824 -135.970737 
L 490.45895 -134.330424 
L 491.368076 -132.680054 
L 492.277202 -131.019602 
L 493.186329 -129.349044 
L 494.095455 -127.668358 
L 495.004581 -125.977523 
L 495.913707 -124.276518 
L 496.822834 -122.565327 
L 497.73196 -120.84393 
L 498.641086 -119.112312 
L 499.550212 -117.370459 
L 500.459339 -115.618355 
L 501.368465 -113.855991 
L 502.277591 -112.083354 
L 503.186717 -110.300436 
L 504.095844 -108.507229 
L 505.00497 -106.703726 
L 505.914096 -104.889923 
L 506.823222 -103.065817 
L 507.732349 -101.231406 
L 508.641475 -99.386689 
L 509.550601 -97.531669 
L 510.459727 -95.666348 
L 511.368854 -93.790731 
L 512.27798 -91.904826 
L 513.187106 -90.008639 
L 514.096232 -88.102182 
L 515.005359 -86.185465 
L 515.914485 -84.258503 
L 516.823611 -82.321311 
L 517.732737 -80.373905 
L 518.641864 -78.416305 
L 519.55099 -76.448532 
L 520.460116 -74.470607 
L 521.369242 -72.482556 
L 522.278369 -70.484405 
L 523.187495 -68.476182 
L 524.096621 -66.457917 
L 525.005747 -64.429642 
L 525.914874 -62.391391 
L 526.824 -60.3432 
L 526.824 -88.637324 
L 526.824 -88.637324 
L 525.914874 -90.559044 
L 525.005747 -92.473911 
L 524.096621 -94.381873 
L 523.187495 -96.282878 
L 522.278369 -98.176876 
L 521.369242 -100.063815 
L 520.460116 -101.943647 
L 519.55099 -103.816321 
L 518.641864 -105.68179 
L 517.732737 -107.540005 
L 516.823611 -109.390918 
L 515.914485 -111.234483 
L 515.005359 -113.070654 
L 514.096232 -114.899384 
L 513.187106 -116.72063 
L 512.27798 -118.534347 
L 511.368854 -120.340492 
L 510.459727 -122.139022 
L 509.550601 -123.929895 
L 508.641475 -125.713069 
L 507.732349 -127.488505 
L 506.823222 -129.256162 
L 505.914096 -131.016002 
L 505.00497 -132.767988 
L 504.095844 -134.512081 
L 503.186717 -136.248245 
L 502.277591 -137.976446 
L 501.368465 -139.696648 
L 500.459339 -141.408819 
L 499.550212 -143.112925 
L 498.641086 -144.808936 
L 497.73196 -146.49682 
L 496.822834 -148.176548 
L 495.913707 -149.848091 
L 495.004581 -151.511423 
L 494.095455 -153.166516 
L 493.186329 -154.813345 
L 492.277202 -156.451885 
L 491.368076 -158.082115 
L 490.45895 -159.704011 
L 489.549824 -161.317554 
L 488.640697 -162.922722 
L 487.731571 -164.519498 
L 486.822445 -166.107864 
L 485.913319 -167.687804 
L 485.004192 -169.259303 
L 484.095066 -170.822347 
L 483.18594 -172.376924 
L 482.276814 -173.923022 
L 481.367687 -175.460631 
L 480.458561 -176.989743 
L 479.549435 -178.51035 
L 478.640309 -180.022445 
L 477.731182 -181.526023 
L 476.822056 -183.021081 
L 475.91293 -184.507615 
L 475.003804 -185.985626 
L 474.094677 -187.455111 
L 473.185551 -188.916073 
L 472.276425 -190.368514 
L 471.367299 -191.812438 
L 470.458172 -193.24785 
L 469.549046 -194.674754 
L 468.63992 -196.09316 
L 467.730794 -197.503076 
L 466.821667 -198.904511 
L 465.912541 -200.297476 
L 465.003415 -201.681983 
L 464.094289 -203.058046 
L 463.185162 -204.42568 
L 462.276036 -205.784899 
L 461.36691 -207.13572 
L 460.457784 -208.478162 
L 459.548657 -209.812244 
L 458.639531 -211.137984 
L 457.730405 -212.455405 
L 456.821279 -213.764528 
L 455.912152 -215.065376 
L 455.003026 -216.357974 
L 454.0939 -217.642346 
L 453.184774 -218.918519 
L 452.275647 -220.186519 
L 451.366521 -221.446374 
L 450.457395 -222.698113 
L 449.548269 -223.941765 
L 448.639142 -225.177359 
L 447.730016 -226.404929 
L 446.82089 -227.624504 
L 445.911764 -228.836118 
L 445.002637 -230.039803 
L 444.093511 -231.235594 
L 443.184385 -232.423524 
L 442.275259 -233.60363 
L 441.366132 -234.775946 
L 440.457006 -235.940509 
L 439.54788 -237.097355 
L 438.638754 -238.246522 
L 437.729627 -239.388047 
L 436.820501 -240.521968 
L 435.911375 -241.648324 
L 435.002248 -242.767153 
L 434.093122 -243.878494 
L 433.183996 -244.982387 
L 432.27487 -246.078871 
L 431.365743 -247.167987 
L 430.456617 -248.249774 
L 429.547491 -249.324274 
L 428.638365 -250.391525 
L 427.729238 -251.451569 
L 426.820112 -252.504448 
L 425.910986 -253.5502 
L 425.00186 -254.588869 
L 424.092733 -255.620494 
L 423.183607 -256.645116 
L 422.274481 -257.662777 
L 421.365355 -258.673518 
L 420.456228 -259.67738 
L 419.547102 -260.674403 
L 418.637976 -261.664628 
L 417.72885 -262.648098 
L 416.819723 -263.624851 
L 415.910597 -264.59493 
L 415.001471 -265.558374 
L 414.092345 -266.515224 
L 413.183218 -267.465521 
L 412.274092 -268.409305 
L 411.364966 -269.346615 
L 410.45584 -270.277492 
L 409.546713 -271.201976 
L 408.637587 -272.120107 
L 407.728461 -273.031924 
L 406.819335 -273.937466 
L 405.910208 -274.836773 
L 405.001082 -275.729885 
L 404.091956 -276.61684 
L 403.18283 -277.497676 
L 402.273703 -278.372434 
L 401.364577 -279.241152 
L 400.455451 -280.103868 
L 399.546325 -280.960621 
L 398.637198 -281.811449 
L 397.728072 -282.656392 
L 396.818946 -283.495486 
L 395.90982 -284.328771 
L 395.000693 -285.156284 
L 394.091567 -285.978064 
L 393.182441 -286.794149 
L 392.273315 -287.604577 
L 391.364188 -288.409387 
L 390.455062 -289.208616 
L 389.545936 -290.002303 
L 388.63681 -290.790486 
L 387.727683 -291.573204 
L 386.818557 -292.350494 
L 385.909431 -293.122396 
L 385.000305 -293.888947 
L 384.091178 -294.650187 
L 383.182052 -295.406155 
L 382.272926 -296.156888 
L 381.3638 -296.902427 
L 380.454673 -297.64281 
L 379.545547 -298.378077 
L 378.636421 -299.108267 
L 377.727295 -299.83342 
L 376.818168 -300.553575 
L 375.909042 -301.268772 
L 374.999916 -301.979051 
L 374.09079 -302.684452 
L 373.181663 -303.385016 
L 372.272537 -304.080783 
L 371.363411 -304.771793 
L 370.454285 -305.458086 
L 369.545158 -306.139704 
L 368.636032 -306.816686 
L 367.726906 -307.489074 
L 366.81778 -308.156908 
L 365.908653 -308.820229 
L 364.999527 -309.479076 
L 364.090401 -310.133491 
L 363.181275 -310.783514 
L 362.272148 -311.429185 
L 361.363022 -312.070543 
L 360.453896 -312.707627 
L 359.54477 -313.340478 
L 358.635643 -313.969134 
L 357.726517 -314.593633 
L 356.817391 -315.214012 
L 355.908265 -315.830309 
L 354.999138 -316.442559 
L 354.090012 -317.050799 
L 353.180886 -317.655063 
L 352.27176 -318.255385 
L 351.362633 -318.851797 
L 350.453507 -319.444331 
L 349.544381 -320.033017 
L 348.635255 -320.617883 
L 347.726128 -321.198957 
L 346.817002 -321.776264 
L 345.907876 -322.349828 
L 344.998749 -322.919671 
L 344.089623 -323.485813 
L 343.180497 -324.048271 
L 342.271371 -324.607061 
L 341.362244 -325.162196 
L 340.453118 -325.713687 
L 339.543992 -326.26154 
L 338.634866 -326.805761 
L 337.725739 -327.346351 
L 336.816613 -327.883309 
L 335.907487 -328.416629 
L 334.998361 -328.946304 
L 334.089234 -329.472321 
L 333.180108 -329.994664 
L 332.270982 -330.513314 
L 331.361856 -331.028246 
L 330.452729 -331.539432 
L 329.543603 -332.046839 
L 328.634477 -332.550431 
L 327.725351 -333.050164 
L 326.816224 -333.545994 
L 325.907098 -334.037867 
L 324.997972 -334.525727 
L 324.088846 -335.009514 
L 323.179719 -335.489158 
L 322.270593 -335.96459 
L 321.361467 -336.435731 
L 320.452341 -336.902499 
L 319.543214 -337.364805 
L 318.634088 -337.822555 
L 317.724962 -338.275652 
L 316.815836 -338.72399 
L 315.906709 -339.16746 
L 314.997583 -339.605947 
L 314.088457 -340.03933 
L 313.179331 -340.467483 
L 312.270204 -340.890277 
L 311.361078 -341.307574 
L 310.451952 -341.719236 
L 309.542826 -342.125115 
L 308.633699 -342.525063 
L 307.724573 -342.918924 
L 306.815447 -343.30654 
L 305.906321 -343.687748 
L 304.997194 -344.06238 
L 304.088068 -344.430267 
L 303.178942 -344.791235 
L 302.269816 -345.145106 
L 301.360689 -345.4917 
L 300.451563 -345.830835 
L 299.542437 -346.162325 
L 298.633311 -346.485984 
L 297.724184 -346.801623 
L 296.815058 -347.109053 
L 295.905932 -347.408081 
L 294.996806 -347.698517 
L 294.087679 -347.98017 
L 293.178553 -348.252847 
L 292.269427 -348.516359 
L 291.360301 -348.770516 
L 290.451174 -349.01513 
L 289.542048 -349.250015 
L 288.632922 -349.474989 
L 287.723796 -349.689871 
L 286.814669 -349.894484 
L 285.905543 -350.088655 
L 284.996417 -350.272215 
L 284.087291 -350.445002 
L 283.178164 -350.606855 
L 282.269038 -350.757623 
L 281.359912 -350.897156 
L 280.450786 -351.025315 
L 279.541659 -351.141965 
L 278.632533 -351.246978 
L 277.723407 -351.340233 
L 276.814281 -351.421616 
L 275.905154 -351.491022 
L 274.996028 -351.548351 
L 274.086902 -351.593513 
L 273.177776 -351.626424 
L 272.268649 -351.647009 
L 271.359523 -351.6552 
L 270.450397 -351.650936 
L 269.541271 -351.634166 
L 268.632144 -351.604844 
L 267.723018 -351.562932 
L 266.813892 -351.508402 
L 265.904766 -351.44123 
L 264.995639 -351.3614 
L 264.086513 -351.268904 
L 263.177387 -351.163741 
L 262.268261 -351.045914 
L 261.359134 -350.915434 
L 260.450008 -350.77232 
L 259.540882 -350.616593 
L 258.631756 -350.448284 
L 257.722629 -350.267427 
L 256.813503 -350.074062 
L 255.904377 -349.868233 
L 254.995251 -349.649992 
L 254.086124 -349.419393 
L 253.176998 -349.176495 
L 252.267872 -348.921362 
L 251.358745 -348.654062 
L 250.449619 -348.374668 
L 249.540493 -348.083254 
L 248.631367 -347.7799 
L 247.72224 -347.464689 
L 246.813114 -347.137708 
L 245.903988 -346.799044 
L 244.994862 -346.448792 
L 244.085735 -346.087044 
L 243.176609 -345.7139 
L 242.267483 -345.329459 
L 241.358357 -344.933825 
L 240.44923 -344.527101 
L 239.540104 -344.109395 
L 238.630978 -343.680815 
L 237.721852 -343.241474 
L 236.812725 -342.791483 
L 235.903599 -342.330956 
L 234.994473 -341.860011 
L 234.085347 -341.378763 
L 233.17622 -340.887332 
L 232.267094 -340.385837 
L 231.357968 -339.874401 
L 230.448842 -339.353144 
L 229.539715 -338.822191 
L 228.630589 -338.281666 
L 227.721463 -337.731693 
L 226.812337 -337.172398 
L 225.90321 -336.603908 
L 224.994084 -336.02635 
L 224.084958 -335.439851 
L 223.175832 -334.844538 
L 222.266705 -334.240541 
L 221.357579 -333.627988 
L 220.448453 -333.007008 
L 219.539327 -332.37773 
L 218.6302 -331.740283 
L 217.721074 -331.094796 
L 216.811948 -330.441398 
L 215.902822 -329.780219 
L 214.993695 -329.111386 
L 214.084569 -328.43503 
L 213.175443 -327.751278 
L 212.266317 -327.060259 
L 211.35719 -326.3621 
L 210.448064 -325.656928 
L 209.538938 -324.944871 
L 208.629812 -324.226055 
L 207.720685 -323.500605 
L 206.811559 -322.768646 
L 205.902433 -322.030304 
L 204.993307 -321.285701 
L 204.08418 -320.53496 
L 203.175054 -319.778204 
L 202.265928 -319.015554 
L 201.356802 -318.24713 
L 200.447675 -317.473051 
L 199.538549 -316.693436 
L 198.629423 -315.908402 
L 197.720297 -315.118065 
L 196.81117 -314.322541 
L 195.902044 -313.521943 
L 194.992918 -312.716385 
L 194.083792 -311.905977 
L 193.174665 -311.090831 
L 192.265539 -310.271055 
L 191.356413 -309.446757 
L 190.447287 -308.618045 
L 189.53816 -307.785022 
L 188.629034 -306.947793 
L 187.719908 -306.10646 
L 186.810782 -305.261125 
L 185.901655 -304.411886 
L 184.992529 -303.558842 
L 184.083403 -302.702089 
L 183.174277 -301.841723 
L 182.26515 -300.977837 
L 181.356024 -300.110524 
L 180.446898 -299.239873 
L 179.537772 -298.365974 
L 178.628645 -297.488914 
L 177.719519 -296.60878 
L 176.810393 -295.725656 
L 175.901267 -294.839623 
L 174.99214 -293.950764 
L 174.083014 -293.059159 
L 173.173888 -292.164884 
L 172.264762 -291.268018 
L 171.355635 -290.368633 
L 170.446509 -289.466804 
L 169.537383 -288.562602 
L 168.628257 -287.656098 
L 167.71913 -286.747359 
L 166.810004 -285.836453 
L 165.900878 -284.923445 
L 164.991752 -284.008399 
L 164.082625 -283.091376 
L 163.173499 -282.172438 
L 162.264373 -281.251644 
L 161.355246 -280.32905 
L 160.44612 -279.404714 
L 159.536994 -278.478689 
L 158.627868 -277.551029 
L 157.718741 -276.621786 
L 156.809615 -275.691008 
L 155.900489 -274.758746 
L 154.991363 -273.825045 
L 154.082236 -272.889953 
L 153.17311 -271.953512 
L 152.263984 -271.015767 
L 151.354858 -270.076759 
L 150.445731 -269.136528 
L 149.536605 -268.195112 
L 148.627479 -267.252551 
L 147.718353 -266.30888 
L 146.809226 -265.364133 
L 145.9001 -264.418346 
L 144.990974 -263.471551 
L 144.081848 -262.523779 
L 143.172721 -261.575061 
L 142.263595 -260.625425 
L 141.354469 -259.674901 
L 140.445343 -258.723514 
L 139.536216 -257.771292 
L 138.62709 -256.818258 
L 137.717964 -255.864437 
L 136.808838 -254.909852 
L 135.899711 -253.954525 
L 134.990585 -252.998477 
L 134.081459 -252.041727 
L 133.172333 -251.084297 
L 132.263206 -250.126203 
L 131.35408 -249.167464 
L 130.444954 -248.208097 
L 129.535828 -247.248118 
L 128.626701 -246.287542 
L 127.717575 -245.326385 
L 126.808449 -244.364659 
L 125.899323 -243.40238 
L 124.990196 -242.439559 
L 124.08107 -241.476208 
L 123.171944 -240.512341 
L 122.262818 -239.547967 
L 121.353691 -238.583098 
L 120.444565 -237.617743 
L 119.535439 -236.651913 
L 118.626313 -235.685617 
L 117.717186 -234.718863 
L 116.80806 -233.75166 
L 115.898934 -232.784017 
L 114.989808 -231.81594 
L 114.080681 -230.847438 
L 113.171555 -229.878518 
L 112.262429 -228.909187 
L 111.353303 -227.939451 
L 110.444176 -226.969316 
L 109.53505 -225.99879 
L 108.625924 -225.027878 
L 107.716798 -224.056585 
L 106.807671 -223.084917 
L 105.898545 -222.112881 
L 104.989419 -221.14048 
L 104.080293 -220.167721 
L 103.171166 -219.194609 
L 102.26204 -218.221147 
L 101.352914 -217.247343 
L 100.443788 -216.2732 
L 99.534661 -215.298722 
L 98.625535 -214.323916 
L 97.716409 -213.348785 
L 96.807283 -212.373335 
L 95.898156 -211.397569 
L 94.98903 -210.421494 
L 94.079904 -209.445112 
L 93.170778 -208.46843 
L 92.261651 -207.491451 
L 91.352525 -206.514181 
L 90.443399 -205.536623 
L 89.534273 -204.558784 
L 88.625146 -203.580667 
L 87.71602 -202.602278 
L 86.806894 -201.623622 
L 85.897768 -200.644703 
L 84.988641 -199.665527 
L 84.079515 -198.686098 
L 83.170389 -197.706422 
L 82.261263 -196.726504 
L 81.352136 -195.746349 
L 80.44301 -194.765963 
L 79.533884 -193.785351 
L 78.624758 -192.804518 
L 77.715631 -191.823471 
L 76.806505 -190.842214 
L 75.897379 -189.860754 
L 74.988253 -188.879097 
L 74.079126 -187.897248 
L 73.17 -186.915213 
z
" style="stroke: #ffa500; stroke-opacity: 0.3"/>
    </defs>
    <g clip-path="url(#p61a13413af)">
     <use xlink:href="#m6cb6d2e6ad" x="0" y="416.16" style="fill: #ffa500; fill-opacity: 0.3; stroke: #ffa500; stroke-opacity: 0.3"/>
    </g>
   </g>
   <g id="matplotlib.axis_1">
    <g id="xtick_1">
     <g id="line2d_1">
      <defs>
       <path id="m91b60a4135" d="M 0 0 
L 0 3.5 
" style="stroke: #000000; stroke-width: 0.8"/>
      </defs>
      <g>
       <use xlink:href="#m91b60a4135" x="73.17" y="370.3824" style="stroke: #000000; stroke-width: 0.8"/>
      </g>
     </g>
     <g id="text_1">
      <!-- 0.50 -->
      <g transform="translate(62.037188 384.980838)scale(0.1 -0.1)">
       <defs>
        <path id="DejaVuSans-30" d="M 2034 4250 
Q 1547 4250 1301 3770 
Q 1056 3291 1056 2328 
Q 1056 1369 1301 889 
Q 1547 409 2034 409 
Q 2525 409 2770 889 
Q 3016 1369 3016 2328 
Q 3016 3291 2770 3770 
Q 2525 4250 2034 4250 
z
M 2034 4750 
Q 2819 4750 3233 4129 
Q 3647 3509 3647 2328 
Q 3647 1150 3233 529 
Q 2819 -91 2034 -91 
Q 1250 -91 836 529 
Q 422 1150 422 2328 
Q 422 3509 836 4129 
Q 1250 4750 2034 4750 
z
" transform="scale(0.015625)"/>
        <path id="DejaVuSans-2e" d="M 684 794 
L 1344 794 
L 1344 0 
L 684 0 
L 684 794 
z
" transform="scale(0.015625)"/>
        <path id="DejaVuSans-35" d="M 691 4666 
L 3169 4666 
L 3169 4134 
L 1269 4134 
L 1269 2991 
Q 1406 3038 1543 3061 
Q 1681 3084 1819 3084 
Q 2600 3084 3056 2656 
Q 3513 2228 3513 1497 
Q 3513 744 3044 326 
Q 2575 -91 1722 -91 
Q 1428 -91 1123 -41 
Q 819 9 494 109 
L 494 744 
Q 775 591 1075 516 
Q 1375 441 1709 441 
Q 2250 441 2565 725 
Q 2881 1009 2881 1497 
Q 2881 1984 2565 2268 
Q 2250 2553 1709 2553 
Q 1456 2553 1204 2497 
Q 953 2441 691 2322 
L 691 4666 
z
" transform="scale(0.015625)"/>
       </defs>
       <use xlink:href="#DejaVuSans-30"/>
       <use xlink:href="#DejaVuSans-2e" x="63.623047"/>
       <use xlink:href="#DejaVuSans-35" x="95.410156"/>
       <use xlink:href="#DejaVuSans-30" x="159.033203"/>
      </g>
     </g>
    </g>
    <g id="xtick_2">
     <g id="line2d_2">
      <g>
       <use xlink:href="#m91b60a4135" x="129.87675" y="370.3824" style="stroke: #000000; stroke-width: 0.8"/>
      </g>
     </g>
     <g id="text_2">
      <!-- 0.55 -->
      <g transform="translate(118.743938 384.980838)scale(0.1 -0.1)">
       <use xlink:href="#DejaVuSans-30"/>
       <use xlink:href="#DejaVuSans-2e" x="63.623047"/>
       <use xlink:href="#DejaVuSans-35" x="95.410156"/>
       <use xlink:href="#DejaVuSans-35" x="159.033203"/>
      </g>
     </g>
    </g>
    <g id="xtick_3">
     <g id="line2d_3">
      <g>
       <use xlink:href="#m91b60a4135" x="186.5835" y="370.3824" style="stroke: #000000; stroke-width: 0.8"/>
      </g>
     </g>
     <g id="text_3">
      <!-- 0.60 -->
      <g transform="translate(175.450688 384.980838)scale(0.1 -0.1)">
       <defs>
        <path id="DejaVuSans-36" d="M 2113 2584 
Q 1688 2584 1439 2293 
Q 1191 2003 1191 1497 
Q 1191 994 1439 701 
Q 1688 409 2113 409 
Q 2538 409 2786 701 
Q 3034 994 3034 1497 
Q 3034 2003 2786 2293 
Q 2538 2584 2113 2584 
z
M 3366 4563 
L 3366 3988 
Q 3128 4100 2886 4159 
Q 2644 4219 2406 4219 
Q 1781 4219 1451 3797 
Q 1122 3375 1075 2522 
Q 1259 2794 1537 2939 
Q 1816 3084 2150 3084 
Q 2853 3084 3261 2657 
Q 3669 2231 3669 1497 
Q 3669 778 3244 343 
Q 2819 -91 2113 -91 
Q 1303 -91 875 529 
Q 447 1150 447 2328 
Q 447 3434 972 4092 
Q 1497 4750 2381 4750 
Q 2619 4750 2861 4703 
Q 3103 4656 3366 4563 
z
" transform="scale(0.015625)"/>
       </defs>
       <use xlink:href="#DejaVuSans-30"/>
       <use xlink:href="#DejaVuSans-2e" x="63.623047"/>
       <use xlink:href="#DejaVuSans-36" x="95.410156"/>
       <use xlink:href="#DejaVuSans-30" x="159.033203"/>
      </g>
     </g>
    </g>
    <g id="xtick_4">
     <g id="line2d_4">
      <g>
       <use xlink:href="#m91b60a4135" x="243.29025" y="370.3824" style="stroke: #000000; stroke-width: 0.8"/>
      </g>
     </g>
     <g id="text_4">
      <!-- 0.65 -->
      <g transform="translate(232.157438 384.980838)scale(0.1 -0.1)">
       <use xlink:href="#DejaVuSans-30"/>
       <use xlink:href="#DejaVuSans-2e" x="63.623047"/>
       <use xlink:href="#DejaVuSans-36" x="95.410156"/>
       <use xlink:href="#DejaVuSans-35" x="159.033203"/>
      </g>
     </g>
    </g>
    <g id="xtick_5">
     <g id="line2d_5">
      <g>
       <use xlink:href="#m91b60a4135" x="299.997" y="370.3824" style="stroke: #000000; stroke-width: 0.8"/>
      </g>
     </g>
     <g id="text_5">
      <!-- 0.70 -->
      <g transform="translate(288.864188 384.980838)scale(0.1 -0.1)">
       <defs>
        <path id="DejaVuSans-37" d="M 525 4666 
L 3525 4666 
L 3525 4397 
L 1831 0 
L 1172 0 
L 2766 4134 
L 525 4134 
L 525 4666 
z
" transform="scale(0.015625)"/>
       </defs>
       <use xlink:href="#DejaVuSans-30"/>
       <use xlink:href="#DejaVuSans-2e" x="63.623047"/>
       <use xlink:href="#DejaVuSans-37" x="95.410156"/>
       <use xlink:href="#DejaVuSans-30" x="159.033203"/>
      </g>
     </g>
    </g>
    <g id="xtick_6">
     <g id="line2d_6">
      <g>
       <use xlink:href="#m91b60a4135" x="356.70375" y="370.3824" style="stroke: #000000; stroke-width: 0.8"/>
      </g>
     </g>
     <g id="text_6">
      <!-- 0.75 -->
      <g transform="translate(345.570938 384.980838)scale(0.1 -0.1)">
       <use xlink:href="#DejaVuSans-30"/>
       <use xlink:href="#DejaVuSans-2e" x="63.623047"/>
       <use xlink:href="#DejaVuSans-37" x="95.410156"/>
       <use xlink:href="#DejaVuSans-35" x="159.033203"/>
      </g>
     </g>
    </g>
    <g id="xtick_7">
     <g id="line2d_7">
      <g>
       <use xlink:href="#m91b60a4135" x="413.4105" y="370.3824" style="stroke: #000000; stroke-width: 0.8"/>
      </g>
     </g>
     <g id="text_7">
      <!-- 0.80 -->
      <g transform="translate(402.277688 384.980838)scale(0.1 -0.1)">
       <defs>
        <path id="DejaVuSans-38" d="M 2034 2216 
Q 1584 2216 1326 1975 
Q 1069 1734 1069 1313 
Q 1069 891 1326 650 
Q 1584 409 2034 409 
Q 2484 409 2743 651 
Q 3003 894 3003 1313 
Q 3003 1734 2745 1975 
Q 2488 2216 2034 2216 
z
M 1403 2484 
Q 997 2584 770 2862 
Q 544 3141 544 3541 
Q 544 4100 942 4425 
Q 1341 4750 2034 4750 
Q 2731 4750 3128 4425 
Q 3525 4100 3525 3541 
Q 3525 3141 3298 2862 
Q 3072 2584 2669 2484 
Q 3125 2378 3379 2068 
Q 3634 1759 3634 1313 
Q 3634 634 3220 271 
Q 2806 -91 2034 -91 
Q 1263 -91 848 271 
Q 434 634 434 1313 
Q 434 1759 690 2068 
Q 947 2378 1403 2484 
z
M 1172 3481 
Q 1172 3119 1398 2916 
Q 1625 2713 2034 2713 
Q 2441 2713 2670 2916 
Q 2900 3119 2900 3481 
Q 2900 3844 2670 4047 
Q 2441 4250 2034 4250 
Q 1625 4250 1398 4047 
Q 1172 3844 1172 3481 
z
" transform="scale(0.015625)"/>
       </defs>
       <use xlink:href="#DejaVuSans-30"/>
       <use xlink:href="#DejaVuSans-2e" x="63.623047"/>
       <use xlink:href="#DejaVuSans-38" x="95.410156"/>
       <use xlink:href="#DejaVuSans-30" x="159.033203"/>
      </g>
     </g>
    </g>
    <g id="xtick_8">
     <g id="line2d_8">
      <g>
       <use xlink:href="#m91b60a4135" x="470.11725" y="370.3824" style="stroke: #000000; stroke-width: 0.8"/>
      </g>
     </g>
     <g id="text_8">
      <!-- 0.85 -->
      <g transform="translate(458.984438 384.980838)scale(0.1 -0.1)">
       <use xlink:href="#DejaVuSans-30"/>
       <use xlink:href="#DejaVuSans-2e" x="63.623047"/>
       <use xlink:href="#DejaVuSans-38" x="95.410156"/>
       <use xlink:href="#DejaVuSans-35" x="159.033203"/>
      </g>
     </g>
    </g>
    <g id="xtick_9">
     <g id="line2d_9">
      <g>
       <use xlink:href="#m91b60a4135" x="526.824" y="370.3824" style="stroke: #000000; stroke-width: 0.8"/>
      </g>
     </g>
     <g id="text_9">
      <!-- 0.90 -->
      <g transform="translate(515.691188 384.980838)scale(0.1 -0.1)">
       <defs>
        <path id="DejaVuSans-39" d="M 703 97 
L 703 672 
Q 941 559 1184 500 
Q 1428 441 1663 441 
Q 2288 441 2617 861 
Q 2947 1281 2994 2138 
Q 2813 1869 2534 1725 
Q 2256 1581 1919 1581 
Q 1219 1581 811 2004 
Q 403 2428 403 3163 
Q 403 3881 828 4315 
Q 1253 4750 1959 4750 
Q 2769 4750 3195 4129 
Q 3622 3509 3622 2328 
Q 3622 1225 3098 567 
Q 2575 -91 1691 -91 
Q 1453 -91 1209 -44 
Q 966 3 703 97 
z
M 1959 2075 
Q 2384 2075 2632 2365 
Q 2881 2656 2881 3163 
Q 2881 3666 2632 3958 
Q 2384 4250 1959 4250 
Q 1534 4250 1286 3958 
Q 1038 3666 1038 3163 
Q 1038 2656 1286 2365 
Q 1534 2075 1959 2075 
z
" transform="scale(0.015625)"/>
       </defs>
       <use xlink:href="#DejaVuSans-30"/>
       <use xlink:href="#DejaVuSans-2e" x="63.623047"/>
       <use xlink:href="#DejaVuSans-39" x="95.410156"/>
       <use xlink:href="#DejaVuSans-30" x="159.033203"/>
      </g>
     </g>
    </g>
    <g id="text_10">
     <!-- $M$ -->
     <g transform="translate(295.647 398.658963)scale(0.1 -0.1)">
      <defs>
       <path id="DejaVuSans-Oblique-4d" d="M 1081 4666 
L 2028 4666 
L 2572 1522 
L 4378 4666 
L 5350 4666 
L 4441 0 
L 3828 0 
L 4622 4091 
L 2791 897 
L 2175 897 
L 1581 4103 
L 788 0 
L 172 0 
L 1081 4666 
z
" transform="scale(0.015625)"/>
      </defs>
      <use xlink:href="#DejaVuSans-Oblique-4d" transform="translate(0 0.09375)"/>
     </g>
    </g>
   </g>
   <g id="matplotlib.axis_2">
    <g id="ytick_1">
     <g id="line2d_10">
      <defs>
       <path id="mb6fb58ae73" d="M 0 0 
L -3.5 0 
" style="stroke: #000000; stroke-width: 0.8"/>
      </defs>
      <g>
       <use xlink:href="#mb6fb58ae73" x="73.17" y="369.543008" style="stroke: #000000; stroke-width: 0.8"/>
      </g>
     </g>
     <g id="text_11">
      <!-- 94.0 -->
      <g transform="translate(43.904375 373.342226)scale(0.1 -0.1)">
       <defs>
        <path id="DejaVuSans-34" d="M 2419 4116 
L 825 1625 
L 2419 1625 
L 2419 4116 
z
M 2253 4666 
L 3047 4666 
L 3047 1625 
L 3713 1625 
L 3713 1100 
L 3047 1100 
L 3047 0 
L 2419 0 
L 2419 1100 
L 313 1100 
L 313 1709 
L 2253 4666 
z
" transform="scale(0.015625)"/>
       </defs>
       <use xlink:href="#DejaVuSans-39"/>
       <use xlink:href="#DejaVuSans-34" x="63.623047"/>
       <use xlink:href="#DejaVuSans-2e" x="127.246094"/>
       <use xlink:href="#DejaVuSans-30" x="159.033203"/>
      </g>
     </g>
    </g>
    <g id="ytick_2">
     <g id="line2d_11">
      <g>
       <use xlink:href="#mb6fb58ae73" x="73.17" y="305.469671" style="stroke: #000000; stroke-width: 0.8"/>
      </g>
     </g>
     <g id="text_12">
      <!-- 94.2 -->
      <g transform="translate(43.904375 309.26889)scale(0.1 -0.1)">
       <defs>
        <path id="DejaVuSans-32" d="M 1228 531 
L 3431 531 
L 3431 0 
L 469 0 
L 469 531 
Q 828 903 1448 1529 
Q 2069 2156 2228 2338 
Q 2531 2678 2651 2914 
Q 2772 3150 2772 3378 
Q 2772 3750 2511 3984 
Q 2250 4219 1831 4219 
Q 1534 4219 1204 4116 
Q 875 4013 500 3803 
L 500 4441 
Q 881 4594 1212 4672 
Q 1544 4750 1819 4750 
Q 2544 4750 2975 4387 
Q 3406 4025 3406 3419 
Q 3406 3131 3298 2873 
Q 3191 2616 2906 2266 
Q 2828 2175 2409 1742 
Q 1991 1309 1228 531 
z
" transform="scale(0.015625)"/>
       </defs>
       <use xlink:href="#DejaVuSans-39"/>
       <use xlink:href="#DejaVuSans-34" x="63.623047"/>
       <use xlink:href="#DejaVuSans-2e" x="127.246094"/>
       <use xlink:href="#DejaVuSans-32" x="159.033203"/>
      </g>
     </g>
    </g>
    <g id="ytick_3">
     <g id="line2d_12">
      <g>
       <use xlink:href="#mb6fb58ae73" x="73.17" y="241.396335" style="stroke: #000000; stroke-width: 0.8"/>
      </g>
     </g>
     <g id="text_13">
      <!-- 94.4 -->
      <g transform="translate(43.904375 245.195554)scale(0.1 -0.1)">
       <use xlink:href="#DejaVuSans-39"/>
       <use xlink:href="#DejaVuSans-34" x="63.623047"/>
       <use xlink:href="#DejaVuSans-2e" x="127.246094"/>
       <use xlink:href="#DejaVuSans-34" x="159.033203"/>
      </g>
     </g>
    </g>
    <g id="ytick_4">
     <g id="line2d_13">
      <g>
       <use xlink:href="#mb6fb58ae73" x="73.17" y="177.322999" style="stroke: #000000; stroke-width: 0.8"/>
      </g>
     </g>
     <g id="text_14">
      <!-- 94.6 -->
      <g transform="translate(43.904375 181.122218)scale(0.1 -0.1)">
       <use xlink:href="#DejaVuSans-39"/>
       <use xlink:href="#DejaVuSans-34" x="63.623047"/>
       <use xlink:href="#DejaVuSans-2e" x="127.246094"/>
       <use xlink:href="#DejaVuSans-36" x="159.033203"/>
      </g>
     </g>
    </g>
    <g id="ytick_5">
     <g id="line2d_14">
      <g>
       <use xlink:href="#mb6fb58ae73" x="73.17" y="113.249663" style="stroke: #000000; stroke-width: 0.8"/>
      </g>
     </g>
     <g id="text_15">
      <!-- 94.8 -->
      <g transform="translate(43.904375 117.048882)scale(0.1 -0.1)">
       <use xlink:href="#DejaVuSans-39"/>
       <use xlink:href="#DejaVuSans-34" x="63.623047"/>
       <use xlink:href="#DejaVuSans-2e" x="127.246094"/>
       <use xlink:href="#DejaVuSans-38" x="159.033203"/>
      </g>
     </g>
    </g>
    <g id="text_16">
     <!-- $ \eta $ -->
     <g transform="translate(37.804375 213.3608)rotate(-90)scale(0.1 -0.1)">
      <defs>
       <path id="DejaVuSans-Oblique-3b7" d="M 3703 2113 
L 3034 -1331 
L 2459 -1331 
L 3125 2094 
Q 3222 2591 3075 2838 
Q 2931 3084 2544 3084 
Q 2078 3084 1750 2788 
Q 1425 2491 1325 1978 
L 941 0 
L 363 0 
L 1044 3500 
L 1622 3500 
L 1516 2956 
Q 1781 3272 2094 3428 
Q 2403 3584 2769 3584 
Q 3372 3584 3609 3213 
Q 3844 2838 3703 2113 
z
" transform="scale(0.015625)"/>
      </defs>
      <use xlink:href="#DejaVuSans-Oblique-3b7"/>
     </g>
    </g>
   </g>
   <g id="line2d_15">
    <path d="M 73.17 255.361208 
L 90.443399 233.712348 
L 104.989419 215.824145 
L 118.626313 199.411357 
L 131.35408 184.456414 
L 143.172721 170.922737 
L 154.082236 158.764544 
L 164.082625 147.933832 
L 173.173888 138.382696 
L 182.26515 129.154954 
L 190.447287 121.17173 
L 197.720297 114.373559 
L 204.993307 107.899872 
L 211.35719 102.53952 
L 216.811948 98.199195 
L 222.266705 94.118974 
L 227.721463 90.324147 
L 232.267094 87.398683 
L 236.812725 84.705105 
L 241.358357 82.259109 
L 245.903988 80.076438 
L 250.449619 78.1727 
L 254.086124 76.8608 
L 257.722629 75.744675 
L 261.359134 74.831381 
L 264.995639 74.127344 
L 268.632144 73.638116 
L 272.268649 73.368076 
L 275.905154 73.320087 
L 279.541659 73.495118 
L 283.178164 73.891886 
L 286.814669 74.506544 
L 290.451174 75.332508 
L 294.087679 76.360457 
L 298.633311 77.9112 
L 303.178942 79.731393 
L 307.724573 81.790398 
L 313.179331 84.532034 
L 318.634088 87.520101 
L 324.997972 91.257162 
L 332.270982 95.790326 
L 340.453118 101.157689 
L 349.544381 107.407204 
L 358.635643 113.948816 
L 366.81778 120.104191 
L 374.999916 126.54384 
L 382.272926 132.535719 
L 389.545936 138.808013 
L 396.818946 145.388667 
L 404.091956 152.305626 
L 410.45584 158.655581 
L 416.819723 165.302435 
L 423.183607 172.264125 
L 429.547491 179.558215 
L 435.911375 187.201808 
L 442.275259 195.211405 
L 448.639142 203.602726 
L 455.003026 212.390493 
L 461.36691 221.588191 
L 467.730794 231.207805 
L 474.094677 241.259571 
L 480.458561 251.751724 
L 486.822445 262.690274 
L 493.186329 274.078806 
L 499.550212 285.918308 
L 505.914096 298.207037 
L 512.27798 310.940413 
L 519.55099 326.027573 
L 526.824 341.669738 
L 526.824 341.669738 
" clip-path="url(#p61a13413af)" style="fill: none; stroke: #0000ff; stroke-width: 1.5; stroke-linecap: square"/>
   </g>
   <g id="patch_3">
    <path d="M 73.17 370.3824 
L 73.17 49.9392 
" style="fill: none; stroke: #000000; stroke-width: 0.8; stroke-linejoin: miter; stroke-linecap: square"/>
   </g>
   <g id="patch_4">
    <path d="M 526.824 370.3824 
L 526.824 49.9392 
" style="fill: none; stroke: #000000; stroke-width: 0.8; stroke-linejoin: miter; stroke-linecap: square"/>
   </g>
   <g id="patch_5">
    <path d="M 73.17 370.3824 
L 526.824 370.3824 
" style="fill: none; stroke: #000000; stroke-width: 0.8; stroke-linejoin: miter; stroke-linecap: square"/>
   </g>
   <g id="patch_6">
    <path d="M 73.17 49.9392 
L 526.824 49.9392 
" style="fill: none; stroke: #000000; stroke-width: 0.8; stroke-linejoin: miter; stroke-linecap: square"/>
   </g>
   <g id="text_17">
    <!-- 94.92 -->
    <g style="fill: #00008b" transform="translate(274.996028 73.311178)scale(0.12 -0.12)">
     <use xlink:href="#DejaVuSans-39"/>
     <use xlink:href="#DejaVuSans-34" x="63.623047"/>
     <use xlink:href="#DejaVuSans-2e" x="127.246094"/>
     <use xlink:href="#DejaVuSans-39" x="159.033203"/>
     <use xlink:href="#DejaVuSans-32" x="222.65625"/>
    </g>
   </g>
   <g id="text_18">
    <!-- $  \phi = 0.6\; \; \; \psi = 1.4\; \; \; \Lambda = 0.5\; \; \; Co = 0.6\; \; \;  $ -->
    <g transform="translate(210.797 43.9392)scale(0.1 -0.1)">
     <defs>
      <path id="DejaVuSans-Oblique-3d5" d="M 2991 4863 
L 2738 3572 
Q 3363 3572 3684 3094 
Q 4016 2606 3850 1747 
Q 3681 888 3159 400 
Q 2653 -78 2028 -78 
L 1784 -1331 
L 1213 -1331 
L 1456 -78 
Q 834 -78 509 400 
Q 178 888 347 1747 
Q 513 2606 1034 3094 
Q 1544 3572 2166 3572 
L 2419 4863 
L 2991 4863 
z
M 2128 434 
Q 2481 434 2784 756 
Q 3116 1116 3244 1747 
Q 3369 2372 3169 2738 
Q 2991 3059 2638 3059 
L 2128 434 
z
M 1556 434 
L 2066 3059 
Q 1716 3059 1413 2738 
Q 1072 2372 953 1747 
Q 834 1116 1028 756 
Q 1203 434 1556 434 
z
" transform="scale(0.015625)"/>
      <path id="DejaVuSans-3d" d="M 678 2906 
L 4684 2906 
L 4684 2381 
L 678 2381 
L 678 2906 
z
M 678 1631 
L 4684 1631 
L 4684 1100 
L 678 1100 
L 678 1631 
z
" transform="scale(0.015625)"/>
      <path id="DejaVuSans-Oblique-3c8" d="M 1591 -78 
Q 891 38 616 341 
Q 278 713 425 1472 
L 819 3500 
L 1400 3500 
L 1009 1494 
Q 900 922 1119 684 
Q 1313 478 1691 434 
L 2284 3500 
L 2856 3500 
L 2263 438 
Q 2681 481 2928 688 
Q 3247 950 3353 1497 
L 3741 3500 
L 4322 3500 
L 3928 1475 
Q 3775 688 3300 344 
Q 2872 34 2163 -75 
L 1919 -1331 
L 1347 -1331 
L 1591 -78 
z
" transform="scale(0.015625)"/>
      <path id="DejaVuSans-31" d="M 794 531 
L 1825 531 
L 1825 4091 
L 703 3866 
L 703 4441 
L 1819 4666 
L 2450 4666 
L 2450 531 
L 3481 531 
L 3481 0 
L 794 0 
L 794 531 
z
" transform="scale(0.015625)"/>
      <path id="DejaVuSans-39b" d="M 716 0 
L 50 0 
L 1831 4666 
L 2547 4666 
L 4325 0 
L 3669 0 
L 2188 4044 
L 716 0 
z
" transform="scale(0.015625)"/>
      <path id="DejaVuSans-Oblique-43" d="M 4447 4306 
L 4319 3641 
Q 4019 3944 3683 4091 
Q 3347 4238 2956 4238 
Q 2422 4238 2017 3981 
Q 1613 3725 1319 3200 
Q 1131 2863 1032 2486 
Q 934 2109 934 1728 
Q 934 1091 1264 756 
Q 1594 422 2222 422 
Q 2656 422 3056 561 
Q 3456 700 3834 978 
L 3688 231 
Q 3316 72 2936 -9 
Q 2556 -91 2175 -91 
Q 1278 -91 773 396 
Q 269 884 269 1753 
Q 269 2309 461 2846 
Q 653 3384 1013 3828 
Q 1394 4300 1883 4525 
Q 2372 4750 3022 4750 
Q 3422 4750 3780 4639 
Q 4138 4528 4447 4306 
z
" transform="scale(0.015625)"/>
      <path id="DejaVuSans-Oblique-6f" d="M 1625 -91 
Q 1009 -91 651 289 
Q 294 669 294 1325 
Q 294 1706 417 2101 
Q 541 2497 738 2766 
Q 1047 3184 1428 3384 
Q 1809 3584 2291 3584 
Q 2888 3584 3255 3212 
Q 3622 2841 3622 2241 
Q 3622 1825 3500 1412 
Q 3378 1000 3181 728 
Q 2875 309 2494 109 
Q 2113 -91 1625 -91 
z
M 891 1344 
Q 891 869 1089 633 
Q 1288 397 1691 397 
Q 2269 397 2648 901 
Q 3028 1406 3028 2181 
Q 3028 2634 2825 2865 
Q 2622 3097 2228 3097 
Q 1903 3097 1650 2945 
Q 1397 2794 1197 2484 
Q 1050 2253 970 1956 
Q 891 1659 891 1344 
z
" transform="scale(0.015625)"/>
     </defs>
     <use xlink:href="#DejaVuSans-Oblique-3d5" transform="translate(0 0.015625)"/>
     <use xlink:href="#DejaVuSans-3d" transform="translate(85.449219 0.015625)"/>
     <use xlink:href="#DejaVuSans-30" transform="translate(188.720703 0.015625)"/>
     <use xlink:href="#DejaVuSans-2e" transform="translate(252.34375 0.015625)"/>
     <use xlink:href="#DejaVuSans-36" transform="translate(284.130859 0.015625)"/>
     <use xlink:href="#DejaVuSans-Oblique-3c8" transform="translate(428.931313 0.015625)"/>
     <use xlink:href="#DejaVuSans-3d" transform="translate(514.380532 0.015625)"/>
     <use xlink:href="#DejaVuSans-31" transform="translate(617.652017 0.015625)"/>
     <use xlink:href="#DejaVuSans-2e" transform="translate(681.275063 0.015625)"/>
     <use xlink:href="#DejaVuSans-34" transform="translate(713.062173 0.015625)"/>
     <use xlink:href="#DejaVuSans-39b" transform="translate(857.862627 0.015625)"/>
     <use xlink:href="#DejaVuSans-3d" transform="translate(945.753252 0.015625)"/>
     <use xlink:href="#DejaVuSans-30" transform="translate(1049.024736 0.015625)"/>
     <use xlink:href="#DejaVuSans-2e" transform="translate(1112.647783 0.015625)"/>
     <use xlink:href="#DejaVuSans-35" transform="translate(1144.434893 0.015625)"/>
     <use xlink:href="#DejaVuSans-Oblique-43" transform="translate(1289.235347 0.015625)"/>
     <use xlink:href="#DejaVuSans-Oblique-6f" transform="translate(1359.059565 0.015625)"/>
     <use xlink:href="#DejaVuSans-3d" transform="translate(1439.723628 0.015625)"/>
     <use xlink:href="#DejaVuSans-30" transform="translate(1542.995112 0.015625)"/>
     <use xlink:href="#DejaVuSans-2e" transform="translate(1606.618159 0.015625)"/>
     <use xlink:href="#DejaVuSans-36" transform="translate(1638.405269 0.015625)"/>
    </g>
   </g>
   <g id="legend_1">
    <g id="patch_7">
     <path d="M 90.744 352.3392 
L 244.195563 352.3392 
Q 246.195563 352.3392 246.195563 350.3392 
L 246.195563 321.98295 
Q 246.195563 319.98295 244.195563 319.98295 
L 90.744 319.98295 
Q 88.744 319.98295 88.744 321.98295 
L 88.744 350.3392 
Q 88.744 352.3392 90.744 352.3392 
z
" style="fill: #ffffff; opacity: 0.8; stroke: #cccccc; stroke-linejoin: miter"/>
    </g>
    <g id="line2d_16">
     <path d="M 92.744 328.081388 
L 102.744 328.081388 
L 112.744 328.081388 
" style="fill: none; stroke: #0000ff; stroke-width: 1.5; stroke-linecap: square"/>
    </g>
    <g id="text_19">
     <!-- Mean prediction -->
     <g transform="translate(120.744 331.581388)scale(0.1 -0.1)">
      <defs>
       <path id="DejaVuSans-4d" d="M 628 4666 
L 1569 4666 
L 2759 1491 
L 3956 4666 
L 4897 4666 
L 4897 0 
L 4281 0 
L 4281 4097 
L 3078 897 
L 2444 897 
L 1241 4097 
L 1241 0 
L 628 0 
L 628 4666 
z
" transform="scale(0.015625)"/>
       <path id="DejaVuSans-65" d="M 3597 1894 
L 3597 1613 
L 953 1613 
Q 991 1019 1311 708 
Q 1631 397 2203 397 
Q 2534 397 2845 478 
Q 3156 559 3463 722 
L 3463 178 
Q 3153 47 2828 -22 
Q 2503 -91 2169 -91 
Q 1331 -91 842 396 
Q 353 884 353 1716 
Q 353 2575 817 3079 
Q 1281 3584 2069 3584 
Q 2775 3584 3186 3129 
Q 3597 2675 3597 1894 
z
M 3022 2063 
Q 3016 2534 2758 2815 
Q 2500 3097 2075 3097 
Q 1594 3097 1305 2825 
Q 1016 2553 972 2059 
L 3022 2063 
z
" transform="scale(0.015625)"/>
       <path id="DejaVuSans-61" d="M 2194 1759 
Q 1497 1759 1228 1600 
Q 959 1441 959 1056 
Q 959 750 1161 570 
Q 1363 391 1709 391 
Q 2188 391 2477 730 
Q 2766 1069 2766 1631 
L 2766 1759 
L 2194 1759 
z
M 3341 1997 
L 3341 0 
L 2766 0 
L 2766 531 
Q 2569 213 2275 61 
Q 1981 -91 1556 -91 
Q 1019 -91 701 211 
Q 384 513 384 1019 
Q 384 1609 779 1909 
Q 1175 2209 1959 2209 
L 2766 2209 
L 2766 2266 
Q 2766 2663 2505 2880 
Q 2244 3097 1772 3097 
Q 1472 3097 1187 3025 
Q 903 2953 641 2809 
L 641 3341 
Q 956 3463 1253 3523 
Q 1550 3584 1831 3584 
Q 2591 3584 2966 3190 
Q 3341 2797 3341 1997 
z
" transform="scale(0.015625)"/>
       <path id="DejaVuSans-6e" d="M 3513 2113 
L 3513 0 
L 2938 0 
L 2938 2094 
Q 2938 2591 2744 2837 
Q 2550 3084 2163 3084 
Q 1697 3084 1428 2787 
Q 1159 2491 1159 1978 
L 1159 0 
L 581 0 
L 581 3500 
L 1159 3500 
L 1159 2956 
Q 1366 3272 1645 3428 
Q 1925 3584 2291 3584 
Q 2894 3584 3203 3211 
Q 3513 2838 3513 2113 
z
" transform="scale(0.015625)"/>
       <path id="DejaVuSans-20" transform="scale(0.015625)"/>
       <path id="DejaVuSans-70" d="M 1159 525 
L 1159 -1331 
L 581 -1331 
L 581 3500 
L 1159 3500 
L 1159 2969 
Q 1341 3281 1617 3432 
Q 1894 3584 2278 3584 
Q 2916 3584 3314 3078 
Q 3713 2572 3713 1747 
Q 3713 922 3314 415 
Q 2916 -91 2278 -91 
Q 1894 -91 1617 61 
Q 1341 213 1159 525 
z
M 3116 1747 
Q 3116 2381 2855 2742 
Q 2594 3103 2138 3103 
Q 1681 3103 1420 2742 
Q 1159 2381 1159 1747 
Q 1159 1113 1420 752 
Q 1681 391 2138 391 
Q 2594 391 2855 752 
Q 3116 1113 3116 1747 
z
" transform="scale(0.015625)"/>
       <path id="DejaVuSans-72" d="M 2631 2963 
Q 2534 3019 2420 3045 
Q 2306 3072 2169 3072 
Q 1681 3072 1420 2755 
Q 1159 2438 1159 1844 
L 1159 0 
L 581 0 
L 581 3500 
L 1159 3500 
L 1159 2956 
Q 1341 3275 1631 3429 
Q 1922 3584 2338 3584 
Q 2397 3584 2469 3576 
Q 2541 3569 2628 3553 
L 2631 2963 
z
" transform="scale(0.015625)"/>
       <path id="DejaVuSans-64" d="M 2906 2969 
L 2906 4863 
L 3481 4863 
L 3481 0 
L 2906 0 
L 2906 525 
Q 2725 213 2448 61 
Q 2172 -91 1784 -91 
Q 1150 -91 751 415 
Q 353 922 353 1747 
Q 353 2572 751 3078 
Q 1150 3584 1784 3584 
Q 2172 3584 2448 3432 
Q 2725 3281 2906 2969 
z
M 947 1747 
Q 947 1113 1208 752 
Q 1469 391 1925 391 
Q 2381 391 2643 752 
Q 2906 1113 2906 1747 
Q 2906 2381 2643 2742 
Q 2381 3103 1925 3103 
Q 1469 3103 1208 2742 
Q 947 2381 947 1747 
z
" transform="scale(0.015625)"/>
       <path id="DejaVuSans-69" d="M 603 3500 
L 1178 3500 
L 1178 0 
L 603 0 
L 603 3500 
z
M 603 4863 
L 1178 4863 
L 1178 4134 
L 603 4134 
L 603 4863 
z
" transform="scale(0.015625)"/>
       <path id="DejaVuSans-63" d="M 3122 3366 
L 3122 2828 
Q 2878 2963 2633 3030 
Q 2388 3097 2138 3097 
Q 1578 3097 1268 2742 
Q 959 2388 959 1747 
Q 959 1106 1268 751 
Q 1578 397 2138 397 
Q 2388 397 2633 464 
Q 2878 531 3122 666 
L 3122 134 
Q 2881 22 2623 -34 
Q 2366 -91 2075 -91 
Q 1284 -91 818 406 
Q 353 903 353 1747 
Q 353 2603 823 3093 
Q 1294 3584 2113 3584 
Q 2378 3584 2631 3529 
Q 2884 3475 3122 3366 
z
" transform="scale(0.015625)"/>
       <path id="DejaVuSans-74" d="M 1172 4494 
L 1172 3500 
L 2356 3500 
L 2356 3053 
L 1172 3053 
L 1172 1153 
Q 1172 725 1289 603 
Q 1406 481 1766 481 
L 2356 481 
L 2356 0 
L 1766 0 
Q 1100 0 847 248 
Q 594 497 594 1153 
L 594 3053 
L 172 3053 
L 172 3500 
L 594 3500 
L 594 4494 
L 1172 4494 
z
" transform="scale(0.015625)"/>
       <path id="DejaVuSans-6f" d="M 1959 3097 
Q 1497 3097 1228 2736 
Q 959 2375 959 1747 
Q 959 1119 1226 758 
Q 1494 397 1959 397 
Q 2419 397 2687 759 
Q 2956 1122 2956 1747 
Q 2956 2369 2687 2733 
Q 2419 3097 1959 3097 
z
M 1959 3584 
Q 2709 3584 3137 3096 
Q 3566 2609 3566 1747 
Q 3566 888 3137 398 
Q 2709 -91 1959 -91 
Q 1206 -91 779 398 
Q 353 888 353 1747 
Q 353 2609 779 3096 
Q 1206 3584 1959 3584 
z
" transform="scale(0.015625)"/>
      </defs>
      <use xlink:href="#DejaVuSans-4d"/>
      <use xlink:href="#DejaVuSans-65" x="86.279297"/>
      <use xlink:href="#DejaVuSans-61" x="147.802734"/>
      <use xlink:href="#DejaVuSans-6e" x="209.082031"/>
      <use xlink:href="#DejaVuSans-20" x="272.460938"/>
      <use xlink:href="#DejaVuSans-70" x="304.248047"/>
      <use xlink:href="#DejaVuSans-72" x="367.724609"/>
      <use xlink:href="#DejaVuSans-65" x="406.587891"/>
      <use xlink:href="#DejaVuSans-64" x="468.111328"/>
      <use xlink:href="#DejaVuSans-69" x="531.587891"/>
      <use xlink:href="#DejaVuSans-63" x="559.371094"/>
      <use xlink:href="#DejaVuSans-74" x="614.351562"/>
      <use xlink:href="#DejaVuSans-69" x="653.560547"/>
      <use xlink:href="#DejaVuSans-6f" x="681.34375"/>
      <use xlink:href="#DejaVuSans-6e" x="742.525391"/>
     </g>
    </g>
    <g id="patch_8">
     <path d="M 92.744 346.259513 
L 112.744 346.259513 
L 112.744 339.259513 
L 92.744 339.259513 
z
" style="fill: #ffa500; fill-opacity: 0.3; stroke: #ffa500; stroke-opacity: 0.3; stroke-linejoin: miter"/>
    </g>
    <g id="text_20">
     <!-- 10% confidence interval -->
     <g transform="translate(120.744 346.259513)scale(0.1 -0.1)">
      <defs>
       <path id="DejaVuSans-25" d="M 4653 2053 
Q 4381 2053 4226 1822 
Q 4072 1591 4072 1178 
Q 4072 772 4226 539 
Q 4381 306 4653 306 
Q 4919 306 5073 539 
Q 5228 772 5228 1178 
Q 5228 1588 5073 1820 
Q 4919 2053 4653 2053 
z
M 4653 2450 
Q 5147 2450 5437 2106 
Q 5728 1763 5728 1178 
Q 5728 594 5436 251 
Q 5144 -91 4653 -91 
Q 4153 -91 3862 251 
Q 3572 594 3572 1178 
Q 3572 1766 3864 2108 
Q 4156 2450 4653 2450 
z
M 1428 4353 
Q 1159 4353 1004 4120 
Q 850 3888 850 3481 
Q 850 3069 1003 2837 
Q 1156 2606 1428 2606 
Q 1700 2606 1854 2837 
Q 2009 3069 2009 3481 
Q 2009 3884 1853 4118 
Q 1697 4353 1428 4353 
z
M 4250 4750 
L 4750 4750 
L 1831 -91 
L 1331 -91 
L 4250 4750 
z
M 1428 4750 
Q 1922 4750 2215 4408 
Q 2509 4066 2509 3481 
Q 2509 2891 2217 2550 
Q 1925 2209 1428 2209 
Q 931 2209 642 2551 
Q 353 2894 353 3481 
Q 353 4063 643 4406 
Q 934 4750 1428 4750 
z
" transform="scale(0.015625)"/>
       <path id="DejaVuSans-66" d="M 2375 4863 
L 2375 4384 
L 1825 4384 
Q 1516 4384 1395 4259 
Q 1275 4134 1275 3809 
L 1275 3500 
L 2222 3500 
L 2222 3053 
L 1275 3053 
L 1275 0 
L 697 0 
L 697 3053 
L 147 3053 
L 147 3500 
L 697 3500 
L 697 3744 
Q 697 4328 969 4595 
Q 1241 4863 1831 4863 
L 2375 4863 
z
" transform="scale(0.015625)"/>
       <path id="DejaVuSans-76" d="M 191 3500 
L 800 3500 
L 1894 563 
L 2988 3500 
L 3597 3500 
L 2284 0 
L 1503 0 
L 191 3500 
z
" transform="scale(0.015625)"/>
       <path id="DejaVuSans-6c" d="M 603 4863 
L 1178 4863 
L 1178 0 
L 603 0 
L 603 4863 
z
" transform="scale(0.015625)"/>
      </defs>
      <use xlink:href="#DejaVuSans-31"/>
      <use xlink:href="#DejaVuSans-30" x="63.623047"/>
      <use xlink:href="#DejaVuSans-25" x="127.246094"/>
      <use xlink:href="#DejaVuSans-20" x="222.265625"/>
      <use xlink:href="#DejaVuSans-63" x="254.052734"/>
      <use xlink:href="#DejaVuSans-6f" x="309.033203"/>
      <use xlink:href="#DejaVuSans-6e" x="370.214844"/>
      <use xlink:href="#DejaVuSans-66" x="433.59375"/>
      <use xlink:href="#DejaVuSans-69" x="468.798828"/>
      <use xlink:href="#DejaVuSans-64" x="496.582031"/>
      <use xlink:href="#DejaVuSans-65" x="560.058594"/>
      <use xlink:href="#DejaVuSans-6e" x="621.582031"/>
      <use xlink:href="#DejaVuSans-63" x="684.960938"/>
      <use xlink:href="#DejaVuSans-65" x="739.941406"/>
      <use xlink:href="#DejaVuSans-20" x="801.464844"/>
      <use xlink:href="#DejaVuSans-69" x="833.251953"/>
      <use xlink:href="#DejaVuSans-6e" x="861.035156"/>
      <use xlink:href="#DejaVuSans-74" x="924.414062"/>
      <use xlink:href="#DejaVuSans-65" x="963.623047"/>
      <use xlink:href="#DejaVuSans-72" x="1025.146484"/>
      <use xlink:href="#DejaVuSans-76" x="1066.259766"/>
      <use xlink:href="#DejaVuSans-61" x="1125.439453"/>
      <use xlink:href="#DejaVuSans-6c" x="1186.71875"/>
     </g>
    </g>
   </g>
  </g>
  <g id="text_21">
   <!-- Data-driven turbine design -->
   <g transform="translate(211.890938 17.441325)scale(0.12 -0.12)">
    <defs>
     <path id="DejaVuSans-44" d="M 1259 4147 
L 1259 519 
L 2022 519 
Q 2988 519 3436 956 
Q 3884 1394 3884 2338 
Q 3884 3275 3436 3711 
Q 2988 4147 2022 4147 
L 1259 4147 
z
M 628 4666 
L 1925 4666 
Q 3281 4666 3915 4102 
Q 4550 3538 4550 2338 
Q 4550 1131 3912 565 
Q 3275 0 1925 0 
L 628 0 
L 628 4666 
z
" transform="scale(0.015625)"/>
     <path id="DejaVuSans-2d" d="M 313 2009 
L 1997 2009 
L 1997 1497 
L 313 1497 
L 313 2009 
z
" transform="scale(0.015625)"/>
     <path id="DejaVuSans-75" d="M 544 1381 
L 544 3500 
L 1119 3500 
L 1119 1403 
Q 1119 906 1312 657 
Q 1506 409 1894 409 
Q 2359 409 2629 706 
Q 2900 1003 2900 1516 
L 2900 3500 
L 3475 3500 
L 3475 0 
L 2900 0 
L 2900 538 
Q 2691 219 2414 64 
Q 2138 -91 1772 -91 
Q 1169 -91 856 284 
Q 544 659 544 1381 
z
M 1991 3584 
L 1991 3584 
z
" transform="scale(0.015625)"/>
     <path id="DejaVuSans-62" d="M 3116 1747 
Q 3116 2381 2855 2742 
Q 2594 3103 2138 3103 
Q 1681 3103 1420 2742 
Q 1159 2381 1159 1747 
Q 1159 1113 1420 752 
Q 1681 391 2138 391 
Q 2594 391 2855 752 
Q 3116 1113 3116 1747 
z
M 1159 2969 
Q 1341 3281 1617 3432 
Q 1894 3584 2278 3584 
Q 2916 3584 3314 3078 
Q 3713 2572 3713 1747 
Q 3713 922 3314 415 
Q 2916 -91 2278 -91 
Q 1894 -91 1617 61 
Q 1341 213 1159 525 
L 1159 0 
L 581 0 
L 581 4863 
L 1159 4863 
L 1159 2969 
z
" transform="scale(0.015625)"/>
     <path id="DejaVuSans-73" d="M 2834 3397 
L 2834 2853 
Q 2591 2978 2328 3040 
Q 2066 3103 1784 3103 
Q 1356 3103 1142 2972 
Q 928 2841 928 2578 
Q 928 2378 1081 2264 
Q 1234 2150 1697 2047 
L 1894 2003 
Q 2506 1872 2764 1633 
Q 3022 1394 3022 966 
Q 3022 478 2636 193 
Q 2250 -91 1575 -91 
Q 1294 -91 989 -36 
Q 684 19 347 128 
L 347 722 
Q 666 556 975 473 
Q 1284 391 1588 391 
Q 1994 391 2212 530 
Q 2431 669 2431 922 
Q 2431 1156 2273 1281 
Q 2116 1406 1581 1522 
L 1381 1569 
Q 847 1681 609 1914 
Q 372 2147 372 2553 
Q 372 3047 722 3315 
Q 1072 3584 1716 3584 
Q 2034 3584 2315 3537 
Q 2597 3491 2834 3397 
z
" transform="scale(0.015625)"/>
     <path id="DejaVuSans-67" d="M 2906 1791 
Q 2906 2416 2648 2759 
Q 2391 3103 1925 3103 
Q 1463 3103 1205 2759 
Q 947 2416 947 1791 
Q 947 1169 1205 825 
Q 1463 481 1925 481 
Q 2391 481 2648 825 
Q 2906 1169 2906 1791 
z
M 3481 434 
Q 3481 -459 3084 -895 
Q 2688 -1331 1869 -1331 
Q 1566 -1331 1297 -1286 
Q 1028 -1241 775 -1147 
L 775 -588 
Q 1028 -725 1275 -790 
Q 1522 -856 1778 -856 
Q 2344 -856 2625 -561 
Q 2906 -266 2906 331 
L 2906 616 
Q 2728 306 2450 153 
Q 2172 0 1784 0 
Q 1141 0 747 490 
Q 353 981 353 1791 
Q 353 2603 747 3093 
Q 1141 3584 1784 3584 
Q 2172 3584 2450 3431 
Q 2728 3278 2906 2969 
L 2906 3500 
L 3481 3500 
L 3481 434 
z
" transform="scale(0.015625)"/>
    </defs>
    <use xlink:href="#DejaVuSans-44"/>
    <use xlink:href="#DejaVuSans-61" x="77.001953"/>
    <use xlink:href="#DejaVuSans-74" x="138.28125"/>
    <use xlink:href="#DejaVuSans-61" x="177.490234"/>
    <use xlink:href="#DejaVuSans-2d" x="238.769531"/>
    <use xlink:href="#DejaVuSans-64" x="274.853516"/>
    <use xlink:href="#DejaVuSans-72" x="338.330078"/>
    <use xlink:href="#DejaVuSans-69" x="379.443359"/>
    <use xlink:href="#DejaVuSans-76" x="407.226562"/>
    <use xlink:href="#DejaVuSans-65" x="466.40625"/>
    <use xlink:href="#DejaVuSans-6e" x="527.929688"/>
    <use xlink:href="#DejaVuSans-20" x="591.308594"/>
    <use xlink:href="#DejaVuSans-74" x="623.095703"/>
    <use xlink:href="#DejaVuSans-75" x="662.304688"/>
    <use xlink:href="#DejaVuSans-72" x="725.683594"/>
    <use xlink:href="#DejaVuSans-62" x="766.796875"/>
    <use xlink:href="#DejaVuSans-69" x="830.273438"/>
    <use xlink:href="#DejaVuSans-6e" x="858.056641"/>
    <use xlink:href="#DejaVuSans-65" x="921.435547"/>
    <use xlink:href="#DejaVuSans-20" x="982.958984"/>
    <use xlink:href="#DejaVuSans-64" x="1014.746094"/>
    <use xlink:href="#DejaVuSans-65" x="1078.222656"/>
    <use xlink:href="#DejaVuSans-73" x="1139.746094"/>
    <use xlink:href="#DejaVuSans-69" x="1191.845703"/>
    <use xlink:href="#DejaVuSans-67" x="1219.628906"/>
    <use xlink:href="#DejaVuSans-6e" x="1283.105469"/>
   </g>
  </g>
 </g>
 <defs>
  <clipPath id="p61a13413af">
   <rect x="73.17" y="49.9392" width="453.654" height="320.4432"/>
  </clipPath>
 </defs>
</svg>
